<svg xmlns="http://www.w3.org/2000/svg" xmlns:xlink="http://www.w3.org/1999/xlink" version="1.2" width="297.00mm" height="210.00mm" viewBox="0 0 211.2617 149.3770">
<!-- Page: 1/1 -->
<text transform="translate(14.2264, 14.2264)" font-family="Century Schoolbook L" font-size="2.1999" text-anchor="start" fill="currentColor">
<tspan>
 </tspan>
</text>
<rect transform="translate(130.6267, 21.9636)" x="0.0000" y="-2.0000" width="0.2212" height="4.0000" ry="0.0000" fill="currentColor"/>
<rect transform="translate(65.9127, 21.9636)" x="0.0000" y="-2.0000" width="0.2212" height="4.0000" ry="0.0000" fill="currentColor"/>
<rect transform="translate(113.9110, 21.9636)" x="0.0000" y="-2.0000" width="0.2212" height="4.0000" ry="0.0000" fill="currentColor"/>
<rect transform="translate(41.4135, 21.9636)" x="0.0000" y="-2.0000" width="0.2212" height="4.0000" ry="0.0000" fill="currentColor"/>
<rect transform="translate(89.3618, 21.9636)" x="0.0000" y="-2.0000" width="0.2212" height="4.0000" ry="0.0000" fill="currentColor"/>
<rect transform="translate(144.1977, 21.9636)" x="0.0000" y="-2.0000" width="0.2212" height="4.0000" ry="0.0000" fill="currentColor"/>
<rect transform="translate(97.5782, 21.9636)" x="0.0000" y="-2.0000" width="0.2212" height="4.0000" ry="0.0000" fill="currentColor"/>
<rect transform="translate(49.5799, 21.9636)" x="0.0000" y="-2.0000" width="0.2212" height="4.0000" ry="0.0000" fill="currentColor"/>
<rect transform="translate(105.7446, 21.9636)" x="0.0000" y="-2.0000" width="0.2212" height="4.0000" ry="0.0000" fill="currentColor"/>
<rect transform="translate(14.2264, 24.9636)" x="10.6578" y="-0.1082" width="1.9719" height="0.2164" ry="0.1082" fill="currentColor"/>
<rect transform="translate(14.2264, 25.9636)" x="10.8326" y="-0.1082" width="1.7971" height="0.2164" ry="0.1082" fill="currentColor"/>
<rect transform="translate(14.2264, 18.9636)" x="13.9166" y="-0.1082" width="1.8183" height="0.2164" ry="0.1082" fill="currentColor"/>
<rect transform="translate(14.2264, 18.9636)" x="15.8775" y="-0.1082" width="1.9719" height="0.2164" ry="0.1082" fill="currentColor"/>
<rect transform="translate(14.2264, 24.9636)" x="23.7029" y="-0.1082" width="1.9719" height="0.2164" ry="0.1082" fill="currentColor"/>
<rect transform="translate(14.2264, 25.9636)" x="23.7029" y="-0.1082" width="1.9719" height="0.2164" ry="0.1082" fill="currentColor"/>
<rect transform="translate(14.2264, 24.9636)" x="28.8215" y="-0.1082" width="2.9207" height="0.2164" ry="0.1082" fill="currentColor"/>
<rect transform="translate(14.2264, 25.9636)" x="28.8215" y="-0.1082" width="2.9207" height="0.2164" ry="0.1082" fill="currentColor"/>
<rect transform="translate(14.2264, 24.9636)" x="36.9879" y="-0.1082" width="2.9207" height="0.2164" ry="0.1082" fill="currentColor"/>
<rect transform="translate(14.2264, 25.9636)" x="36.9879" y="-0.1082" width="2.9207" height="0.2164" ry="0.1082" fill="currentColor"/>
<rect transform="translate(14.2264, 24.9636)" x="45.1543" y="-0.1082" width="2.9207" height="0.2164" ry="0.1082" fill="currentColor"/>
<rect transform="translate(14.2264, 25.9636)" x="45.1543" y="-0.1082" width="2.9207" height="0.2164" ry="0.1082" fill="currentColor"/>
<rect transform="translate(14.2264, 24.9636)" x="52.4788" y="-0.1082" width="1.9719" height="0.2164" ry="0.1082" fill="currentColor"/>
<rect transform="translate(14.2264, 25.9636)" x="52.4788" y="-0.1082" width="1.9719" height="0.2164" ry="0.1082" fill="currentColor"/>
<rect transform="translate(14.2264, 24.9636)" x="55.5416" y="-0.1082" width="1.9719" height="0.2164" ry="0.1082" fill="currentColor"/>
<rect transform="translate(14.2264, 25.9636)" x="55.7164" y="-0.1082" width="1.7971" height="0.2164" ry="0.1082" fill="currentColor"/>
<rect transform="translate(14.2264, 24.9636)" x="58.0562" y="-0.1082" width="1.9719" height="0.2164" ry="0.1082" fill="currentColor"/>
<rect transform="translate(14.2264, 25.9636)" x="58.0562" y="-0.1082" width="1.9719" height="0.2164" ry="0.1082" fill="currentColor"/>
<rect transform="translate(14.2264, 24.9636)" x="67.6628" y="-0.1082" width="1.9719" height="0.2164" ry="0.1082" fill="currentColor"/>
<rect transform="translate(14.2264, 25.9636)" x="67.6628" y="-0.1082" width="1.9719" height="0.2164" ry="0.1082" fill="currentColor"/>
<rect transform="translate(14.2264, 24.9636)" x="70.1774" y="-0.1082" width="1.9219" height="0.2164" ry="0.1082" fill="currentColor"/>
<rect transform="translate(14.2264, 25.9636)" x="70.1774" y="-0.1082" width="1.9219" height="0.2164" ry="0.1082" fill="currentColor"/>
<rect transform="translate(14.2264, 24.9636)" x="72.1993" y="-0.1082" width="1.9219" height="0.2164" ry="0.1082" fill="currentColor"/>
<rect transform="translate(14.2264, 25.9636)" x="72.1993" y="-0.1082" width="1.9219" height="0.2164" ry="0.1082" fill="currentColor"/>
<rect transform="translate(14.2264, 26.9636)" x="72.1993" y="-0.1082" width="1.9219" height="0.2164" ry="0.1082" fill="currentColor"/>
<rect transform="translate(14.2264, 24.9636)" x="109.3797" y="-0.1082" width="1.9719" height="0.2164" ry="0.1082" fill="currentColor"/>
<rect transform="translate(14.2264, 25.9636)" x="109.3797" y="-0.1082" width="1.9719" height="0.2164" ry="0.1082" fill="currentColor"/>
<rect transform="translate(14.2264, 26.9636)" x="109.3797" y="-0.1082" width="1.9719" height="0.2164" ry="0.1082" fill="currentColor"/>
<rect transform="translate(57.7463, 21.9636)" x="0.0000" y="-2.0000" width="0.2212" height="4.0000" ry="0.0000" fill="currentColor"/>
<line transform="translate(14.2264, 23.9636)" stroke-linejoin="round" stroke-linecap="round" stroke-width="0.1164" stroke="currentColor" x1="0.0582" y1="-0.0000" x2="130.1344" y2="-0.0000"/>
<line transform="translate(14.2264, 22.9636)" stroke-linejoin="round" stroke-linecap="round" stroke-width="0.1164" stroke="currentColor" x1="0.0582" y1="-0.0000" x2="130.1344" y2="-0.0000"/>
<line transform="translate(14.2264, 21.9636)" stroke-linejoin="round" stroke-linecap="round" stroke-width="0.1164" stroke="currentColor" x1="0.0582" y1="-0.0000" x2="130.1344" y2="-0.0000"/>
<line transform="translate(14.2264, 20.9636)" stroke-linejoin="round" stroke-linecap="round" stroke-width="0.1164" stroke="currentColor" x1="0.0582" y1="-0.0000" x2="130.1344" y2="-0.0000"/>
<line transform="translate(14.2264, 19.9636)" stroke-linejoin="round" stroke-linecap="round" stroke-width="0.1164" stroke="currentColor" x1="0.0582" y1="-0.0000" x2="130.1344" y2="-0.0000"/>
<a style="color:inherit;" xlink:href="textedit:///Users/tatecarson/Documents/Supercollider%20/_OrgExamples/My%20Comps/Clarinet/notationGen/LY/cricket/cricket.4.ly:85:3:25">
<path transform="translate(140.0620, 21.4636) scale(0.0040, -0.0040)" d="M312 63c0 23 -20 40 -41 40c-4 0 -7 -1 -11 -2c-30 -8 -75 -38 -111 -61s-81 -52 -101 -76c-7 -8 -10 -17 -10 -27c0 -23 19 -40 40 -40c4 0 8 1 12 2c30 8 75 38 111 61s81 52 101 76c7 8 10 17 10 27zM258 140c51 0 92 -23 92 -78c0 -19 -4 -38 -10 -56
c-11 -38 -31 -75 -64 -97c-53 -36 -112 -49 -185 -49c-51 0 -91 23 -91 78c0 19 4 38 10 56c11 38 30 75 63 97c53 36 112 49 185 49z" fill="currentColor"/>
</a>
<rect transform="translate(140.1377, 21.9636)" x="-0.0757" y="-0.2518" width="0.1514" height="3.2518" ry="0.0500" fill="currentColor"/>
<rect transform="translate(33.5710, 21.9636)" x="-0.0757" y="-0.8269" width="0.1514" height="2.7990" ry="0.0500" fill="currentColor"/>
<a style="color:inherit;" xlink:href="textedit:///Users/tatecarson/Documents/Supercollider%20/_OrgExamples/My%20Comps/Clarinet/notationGen/LY/cricket/cricket.4.ly:41:3:25">
<path transform="translate(33.4953, 20.9636) scale(0.0040, -0.0040)" d="M214 140c59 0 115 -32 115 -97c0 -72 -54 -121 -101 -149c-35 -21 -74 -34 -114 -34c-59 0 -114 32 -114 97c0 72 54 121 101 149c35 21 73 34 113 34z" fill="currentColor"/>
</a>
<rect transform="translate(30.5082, 21.9636)" x="-0.0757" y="-2.8269" width="0.1514" height="3.6729" ry="0.0500" fill="currentColor"/>
<a style="color:inherit;" xlink:href="textedit:///Users/tatecarson/Documents/Supercollider%20/_OrgExamples/My%20Comps/Clarinet/notationGen/LY/cricket/cricket.4.ly:40:11:33">
<path transform="translate(30.4326, 18.9636) scale(0.0040, -0.0040)" d="M214 140c59 0 115 -32 115 -97c0 -72 -54 -121 -101 -149c-35 -21 -74 -34 -114 -34c-59 0 -114 32 -114 97c0 72 54 121 101 149c35 21 73 34 113 34z" fill="currentColor"/>
</a>
<path transform="translate(27.1679, 18.9636) scale(0.0040, -0.0040)" d="M31 37l-2 -62v-11c0 -22 2 -43 5 -64c43 38 89 80 89 137c0 32 -14 65 -42 65c-31 0 -49 -32 -50 -65zM-16 -140l-14 590c9 5 20 8 30 8s21 -3 30 -8l-8 -340c25 24 59 38 94 38c50 0 84 -50 84 -104c0 -78 -83 -117 -141 -169c-17 -15 -25 -44 -49 -44
c-15 0 -26 13 -26 29z" fill="currentColor"/>
<rect transform="translate(29.5569, 21.9636)" x="-0.0757" y="-6.4744" width="0.1514" height="3.3012" ry="0.0500" fill="currentColor"/>
<a style="color:inherit;" xlink:href="textedit:///Users/tatecarson/Documents/Supercollider%20/_OrgExamples/My%20Comps/Clarinet/notationGen/LY/cricket/cricket.4.ly:40:3:25">
<path transform="translate(28.3179, 18.9636) scale(0.0040, -0.0040)" d="M214 140c59 0 115 -32 115 -97c0 -72 -54 -121 -101 -149c-35 -21 -74 -34 -114 -34c-59 0 -114 32 -114 97c0 72 54 121 101 149c35 21 73 34 113 34z" fill="currentColor"/>
</a>
<path transform="translate(24.1052, 25.9636) scale(0.0040, -0.0040)" d="M134 37c-1 33 -19 65 -50 65c-28 0 -42 -33 -42 -65c0 -57 46 -99 89 -137c3 21 5 42 5 64v11zM181 -140c0 -16 -11 -29 -26 -29c-24 0 -32 29 -49 44c-58 52 -141 91 -141 169c0 54 34 104 84 104c35 0 69 -14 94 -38l-8 340c9 5 20 8 30 8s21 -3 30 -8z" fill="currentColor"/>
<rect transform="translate(26.4517, 21.9636)" x="-0.0757" y="-5.4239" width="0.1514" height="9.2507" ry="0.0500" fill="currentColor"/>
<a style="color:inherit;" xlink:href="textedit:///Users/tatecarson/Documents/Supercollider%20/_OrgExamples/My%20Comps/Clarinet/notationGen/LY/cricket/cricket.4.ly:39:3:25">
<path transform="translate(25.2128, 25.9636) scale(0.0040, -0.0040)" d="M214 140c59 0 115 -32 115 -97c0 -72 -54 -121 -101 -149c-35 -21 -74 -34 -114 -34c-59 0 -114 32 -114 97c0 72 54 121 101 149c35 21 73 34 113 34z" fill="currentColor"/>
</a>
<rect transform="translate(132.8736, 21.9636)" x="-0.0757" y="-0.3269" width="0.1514" height="3.3269" ry="0.0500" fill="currentColor"/>
<a style="color:inherit;" xlink:href="textedit:///Users/tatecarson/Documents/Supercollider%20/_OrgExamples/My%20Comps/Clarinet/notationGen/LY/cricket/cricket.4.ly:82:3:25">
<path transform="translate(132.7979, 21.4636) scale(0.0040, -0.0040)" d="M214 140c59 0 115 -32 115 -97c0 -72 -54 -121 -101 -149c-35 -21 -74 -34 -114 -34c-59 0 -114 32 -114 97c0 72 54 121 101 149c35 21 73 34 113 34z" fill="currentColor"/>
</a>
<rect transform="translate(130.0511, 21.9636)" x="-0.0757" y="-4.5000" width="0.1514" height="3.8269" ry="0.0500" fill="currentColor"/>
<a style="color:inherit;" xlink:href="textedit:///Users/tatecarson/Documents/Supercollider%20/_OrgExamples/My%20Comps/Clarinet/notationGen/LY/cricket/cricket.4.ly:79:3:25">
<path transform="translate(128.8121, 21.4636) scale(0.0040, -0.0040)" d="M214 140c59 0 115 -32 115 -97c0 -72 -54 -121 -101 -149c-35 -21 -74 -34 -114 -34c-59 0 -114 32 -114 97c0 72 54 121 101 149c35 21 73 34 113 34z" fill="currentColor"/>
</a>
<path transform="translate(125.8899, 20.9636) scale(0.0040, -0.0040)" d="M134 37c-1 33 -19 65 -50 65c-28 0 -42 -33 -42 -65c0 -57 46 -99 89 -137c3 21 5 42 5 64v11zM181 -140c0 -16 -11 -29 -26 -29c-24 0 -32 29 -49 44c-58 52 -141 91 -141 169c0 54 34 104 84 104c35 0 69 -14 94 -38l-8 340c9 5 20 8 30 8s21 -3 30 -8z" fill="currentColor"/>
<rect transform="translate(128.2364, 21.9636)" x="-0.0757" y="-4.5000" width="0.1514" height="3.3269" ry="0.0500" fill="currentColor"/>
<a style="color:inherit;" xlink:href="textedit:///Users/tatecarson/Documents/Supercollider%20/_OrgExamples/My%20Comps/Clarinet/notationGen/LY/cricket/cricket.4.ly:78:3:25">
<path transform="translate(126.9975, 20.9636) scale(0.0040, -0.0040)" d="M214 140c59 0 115 -32 115 -97c0 -72 -54 -121 -101 -149c-35 -21 -74 -34 -114 -34c-59 0 -114 32 -114 97c0 72 54 121 101 149c35 21 73 34 113 34z" fill="currentColor"/>
</a>
<rect transform="translate(125.1737, 21.9636)" x="-0.0757" y="-4.5000" width="0.1514" height="9.8269" ry="0.0500" fill="currentColor"/>
<a style="color:inherit;" xlink:href="textedit:///Users/tatecarson/Documents/Supercollider%20/_OrgExamples/My%20Comps/Clarinet/notationGen/LY/cricket/cricket.4.ly:77:3:25">
<path transform="translate(123.9348, 27.4636) scale(0.0040, -0.0040)" d="M214 140c59 0 115 -32 115 -97c0 -72 -54 -121 -101 -149c-35 -21 -74 -34 -114 -34c-59 0 -114 32 -114 97c0 72 54 121 101 149c35 21 73 34 113 34z" fill="currentColor"/>
</a>
<rect transform="translate(138.3231, 21.9636)" x="-0.0757" y="-0.3269" width="0.1514" height="3.1211" ry="0.0500" fill="currentColor"/>
<a style="color:inherit;" xlink:href="textedit:///Users/tatecarson/Documents/Supercollider%20/_OrgExamples/My%20Comps/Clarinet/notationGen/LY/cricket/cricket.4.ly:84:3:25">
<path transform="translate(138.2474, 21.4636) scale(0.0040, -0.0040)" d="M214 140c59 0 115 -32 115 -97c0 -72 -54 -121 -101 -149c-35 -21 -74 -34 -114 -34c-59 0 -114 32 -114 97c0 72 54 121 101 149c35 21 73 34 113 34z" fill="currentColor"/>
</a>
<path transform="translate(134.7030, 19.9636) scale(0.0040, -0.0040)" d="M134 37c-1 33 -19 65 -50 65c-28 0 -42 -33 -42 -65c0 -57 46 -99 89 -137c3 21 5 42 5 64v11zM181 -140c0 -16 -11 -29 -26 -29c-24 0 -32 29 -49 44c-58 52 -141 91 -141 169c0 54 34 104 84 104c35 0 69 -14 94 -38l-8 340c9 5 20 8 30 8s21 -3 30 -8z" fill="currentColor"/>
<rect transform="translate(135.8863, 21.9636)" x="-0.0757" y="-1.8269" width="0.1514" height="3.8508" ry="0.0500" fill="currentColor"/>
<path transform="translate(137.5667, 19.4636) scale(0.0040, -0.0040)" d="M0 0c0 30 25 55 55 55s55 -25 55 -55s-25 -55 -55 -55s-55 25 -55 55z" fill="currentColor"/>
<a style="color:inherit;" xlink:href="textedit:///Users/tatecarson/Documents/Supercollider%20/_OrgExamples/My%20Comps/Clarinet/notationGen/LY/cricket/cricket.4.ly:83:3:25">
<path transform="translate(135.8106, 19.9636) scale(0.0040, -0.0040)" d="M214 140c59 0 115 -32 115 -97c0 -72 -54 -121 -101 -149c-35 -21 -74 -34 -114 -34c-59 0 -114 32 -114 97c0 72 54 121 101 149c35 21 73 34 113 34z" fill="currentColor"/>
</a>
<path transform="translate(131.3479, 21.4636) scale(0.0040, -0.0040)" d="M198 -329c-12 0 -21 9 -21 21v138l-79 -30v-154c0 -12 -9 -21 -21 -21s-21 9 -21 21v138l-22 -8c-3 -1 -6 -2 -9 -2c-13 0 -25 11 -25 25v54c0 10 6 20 16 24l40 15v155l-22 -9c-3 -1 -6 -1 -9 -1c-13 0 -25 11 -25 25v54c0 10 6 19 16 23l40 15v154c0 12 9 21 21 21
s21 -9 21 -21v-138l79 30v154c0 12 9 21 21 21s21 -9 21 -21v-138l22 8c3 1 6 2 9 2c13 0 25 -11 25 -25v-54c0 -10 -6 -20 -16 -24l-40 -15v-155l22 9c3 1 6 1 9 1c13 0 25 -11 25 -25v-54c0 -10 -6 -19 -16 -23l-40 -15v-154c0 -12 -9 -21 -21 -21zM98 62v-154l79 30v154z
" fill="currentColor"/>
<a style="color:inherit;" xlink:href="textedit:///Users/tatecarson/Documents/Supercollider%20/_OrgExamples/My%20Comps/Clarinet/notationGen/LY/cricket/cricket.4.ly:68:10:32">
<path transform="translate(99.6994, 21.9636)" stroke-width="0.0931" stroke-linejoin="round" stroke-linecap="round" stroke="currentColor" fill="currentColor" d="M1.17356647763076 -1.225C2.28572087034586 -2.14120208268159 7.82780432502604 -2.14120208268159 8.93995871774113 -1.225C7.82780432502604 -2.00148779696731 2.28572087034586 -2.00148779696731 1.17356647763076 -1.225z"/>
</a>
<a style="color:inherit;" xlink:href="textedit:///Users/tatecarson/Documents/Supercollider%20/_OrgExamples/My%20Comps/Clarinet/notationGen/LY/cricket/cricket.4.ly:71:10:32">
<path transform="translate(107.8658, 21.9636)" stroke-width="0.0931" stroke-linejoin="round" stroke-linecap="round" stroke="currentColor" fill="currentColor" d="M1.17356647763074 -1.18846857076576C2.20638552523967 -2.0793671166355 6.76151273701494 -2.0793671166355 7.79433178462386 -1.18846857076576C6.76151273701494 -1.93965283092121 2.20638552523967 -1.93965283092121 1.17356647763074 -1.18846857076576z"/>
</a>
<a style="color:inherit;" xlink:href="textedit:///Users/tatecarson/Documents/Supercollider%20/_OrgExamples/My%20Comps/Clarinet/notationGen/LY/cricket/cricket.4.ly:75:10:32">
<path transform="translate(119.4575, 21.9636)" stroke-width="0.0931" stroke-linejoin="round" stroke-linecap="round" stroke="currentColor" fill="currentColor" d="M0.857308128544432 -1.225C1.45024167727885 -1.89269964640766 2.87703583603346 -1.89269964640766 3.46996938476788 -1.225C2.87703583603346 -1.75298536069338 1.45024167727885 -1.75298536069338 0.857308128544432 -1.225z"/>
</a>
<polygon transform="translate(123.6334, 17.4636)" stroke-linejoin="round" stroke-linecap="round" stroke-width="0.1000" fill="currentColor" stroke="currentColor" points="6.4433 -0.1900 6.4433 0.1900 0.0500 0.1900 0.0500 -0.1900"/>
<polygon transform="translate(123.6334, 18.2819)" stroke-linejoin="round" stroke-linecap="round" stroke-width="0.1000" fill="currentColor" stroke="currentColor" points="6.4433 -0.1900 6.4433 0.1900 0.0500 0.1900 0.0500 -0.1900"/>
<a style="color:inherit;" xlink:href="textedit:///Users/tatecarson/Documents/Supercollider%20/_OrgExamples/My%20Comps/Clarinet/notationGen/LY/cricket/cricket.4.ly:84:11:33">
<path transform="translate(138.2474, 21.9636)" stroke-width="0.0931" stroke-linejoin="round" stroke-linecap="round" stroke="currentColor" fill="currentColor" d="M0.857308128544418 -1.225C1.23778416923842 -1.70934195800185 1.93340297631921 -1.70934195800185 2.31387901701322 -1.225C1.93340297631921 -1.56962767228756 1.23778416923842 -1.56962767228756 0.857308128544418 -1.225z"/>
</a>
<polygon transform="translate(137.2231, 23.5920)" stroke-linejoin="round" stroke-linecap="round" stroke-width="0.1000" fill="currentColor" stroke="currentColor" points="1.1257 0.1817 1.1257 0.5617 0.0500 0.1900 0.0500 -0.1900"/>
<polygon transform="translate(135.8106, 23.9636)" stroke-linejoin="round" stroke-linecap="round" stroke-width="0.1000" fill="currentColor" stroke="currentColor" points="2.5382 0.6282 2.5382 1.0082 0.0500 0.1900 0.0500 -0.1900"/>
<a style="color:inherit;" xlink:href="textedit:///Users/tatecarson/Documents/Supercollider%20/_OrgExamples/My%20Comps/Clarinet/notationGen/LY/cricket/cricket.4.ly:40:9:31">
<path transform="translate(28.3179, 21.9636)" stroke-width="0.0931" stroke-linejoin="round" stroke-linecap="round" stroke="currentColor" fill="currentColor" d="M1.63893768566028 -3.75C1.9005354536686 -4.10889494770449 2.31032661762495 -4.10889494770449 2.57192438563327 -3.75C2.31032661762495 -3.9691806619902 1.9005354536686 -3.9691806619902 1.63893768566028 -3.75z"/>
</a>
<polygon transform="translate(24.6614, 17.1454)" stroke-linejoin="round" stroke-linecap="round" stroke-width="0.1000" fill="currentColor" stroke="currentColor" points="4.9211 -1.8718 4.9211 -1.4918 0.0500 0.1900 0.0500 -0.1900"/>
<polygon transform="translate(24.6614, 17.9636)" stroke-linejoin="round" stroke-linecap="round" stroke-width="0.1000" fill="currentColor" stroke="currentColor" points="1.8160 -0.8213 1.8160 -0.4413 0.0500 0.1900 0.0500 -0.1900"/>
<polygon transform="translate(30.4326, 22.7819)" stroke-linejoin="round" stroke-linecap="round" stroke-width="0.1000" fill="currentColor" stroke="currentColor" points="3.1641 0.9918 3.1641 1.3718 0.0500 0.1900 0.0500 -0.1900"/>
<a style="color:inherit;" xlink:href="textedit:///Users/tatecarson/Documents/Supercollider%20/_OrgExamples/My%20Comps/Clarinet/notationGen/LY/cricket/cricket.4.ly:43:9:31">
<path transform="translate(38.2580, 21.9636)" stroke-width="0.0931" stroke-linejoin="round" stroke-linecap="round" stroke="currentColor" fill="currentColor" d="M0.857308128544425 4.75C1.76891966557416 5.59529151405079 5.13868762539591 5.59529151405079 6.05029916242564 4.75C5.13868762539591 5.4555772283365 1.76891966557416 5.4555772283365 0.857308128544425 4.75z"/>
</a>
<a style="color:inherit;" xlink:href="textedit:///Users/tatecarson/Documents/Supercollider%20/_OrgExamples/My%20Comps/Clarinet/notationGen/LY/cricket/cricket.4.ly:46:9:31">
<path transform="translate(43.5347, 21.9636)" stroke-width="0.0931" stroke-linejoin="round" stroke-linecap="round" stroke="currentColor" fill="currentColor" d="M1.17356647763075 4.75C2.28572087034584 5.6662020826816 7.82780432502605 5.6662020826816 8.93995871774115 4.75C7.82780432502605 5.52648779696731 2.28572087034584 5.52648779696731 1.17356647763075 4.75z"/>
</a>
<a style="color:inherit;" xlink:href="textedit:///Users/tatecarson/Documents/Supercollider%20/_OrgExamples/My%20Comps/Clarinet/notationGen/LY/cricket/cricket.4.ly:49:9:31">
<path transform="translate(51.7011, 21.9636)" stroke-width="0.0931" stroke-linejoin="round" stroke-linecap="round" stroke="currentColor" fill="currentColor" d="M1.17356647763075 4.75C2.28572087034585 5.6662020826816 7.82780432502604 5.6662020826816 8.93995871774114 4.75C7.82780432502604 5.52648779696731 2.28572087034585 5.52648779696731 1.17356647763075 4.75z"/>
</a>
<a style="color:inherit;" xlink:href="textedit:///Users/tatecarson/Documents/Supercollider%20/_OrgExamples/My%20Comps/Clarinet/notationGen/LY/cricket/cricket.4.ly:52:9:31">
<path transform="translate(59.8675, 21.9636)" stroke-width="0.0931" stroke-linejoin="round" stroke-linecap="round" stroke="currentColor" fill="currentColor" d="M1.17356647763075 4.75C2.19333969846611 5.63641906894695 6.60392714781946 5.63641906894695 7.62370036865482 4.75C6.60392714781946 5.49670478323266 2.19333969846611 5.49670478323266 1.17356647763075 4.75z"/>
</a>
<a style="color:inherit;" xlink:href="textedit:///Users/tatecarson/Documents/Supercollider%20/_OrgExamples/My%20Comps/Clarinet/notationGen/LY/cricket/cricket.4.ly:56:9:31">
<path transform="translate(70.0966, 21.9636)" stroke-width="0.0931" stroke-linejoin="round" stroke-linecap="round" stroke="currentColor" fill="currentColor" d="M0.857308128544432 4.75C1.36595848394381 5.35190228659797 2.4632740302339 5.35190228659797 2.97192438563327 4.75C2.4632740302339 5.21218800088368 1.36595848394381 5.21218800088368 0.857308128544432 4.75z"/>
</a>
<polygon transform="translate(68.1971, 21.9636)" stroke-linejoin="round" stroke-linecap="round" stroke-width="0.1000" fill="currentColor" stroke="currentColor" points="3.1641 -0.1900 3.1641 0.1900 0.0500 0.1900 0.0500 -0.1900"/>
<polygon transform="translate(68.1971, 22.7819)" stroke-linejoin="round" stroke-linecap="round" stroke-width="0.1000" fill="currentColor" stroke="currentColor" points="1.1257 -0.1900 1.1257 0.1900 0.0500 0.1900 0.0500 -0.1900"/>
<a style="color:inherit;" xlink:href="textedit:///Users/tatecarson/Documents/Supercollider%20/_OrgExamples/My%20Comps/Clarinet/notationGen/LY/cricket/cricket.4.ly:59:10:32">
<path transform="translate(78.9386, 21.9636)" stroke-width="0.0931" stroke-linejoin="round" stroke-linecap="round" stroke="currentColor" fill="currentColor" d="M0.857308128544432 0.225C1.22886099721904 0.700408409310151 1.90037151695864 0.700408409310151 2.27192438563326 0.225C1.90037151695864 0.560694123595865 1.22886099721904 0.560694123595865 0.857308128544432 0.225z"/>
</a>
<polygon transform="translate(73.7745, 18.4636)" stroke-linejoin="round" stroke-linecap="round" stroke-width="0.1000" fill="currentColor" stroke="currentColor" points="6.4287 -0.1900 6.4287 0.1900 0.0500 0.1900 0.0500 -0.1900"/>
<polygon transform="translate(76.8372, 19.2819)" stroke-linejoin="round" stroke-linecap="round" stroke-width="0.1000" fill="currentColor" stroke="currentColor" points="3.3660 -0.1900 3.3660 0.1900 0.0500 0.1900 0.0500 -0.1900"/>
<a style="color:inherit;" xlink:href="textedit:///Users/tatecarson/Documents/Supercollider%20/_OrgExamples/My%20Comps/Clarinet/notationGen/LY/cricket/cricket.4.ly:61:9:31">
<path transform="translate(82.2178, 21.9636)" stroke-width="0.0931" stroke-linejoin="round" stroke-linecap="round" stroke="currentColor" fill="currentColor" d="M0.857308128544432 4.75C1.36595848394381 5.35190228659797 2.46327403023389 5.35190228659797 2.97192438563327 4.75C2.46327403023389 5.21218800088368 1.36595848394381 5.21218800088368 0.857308128544432 4.75z"/>
</a>
<polygon transform="translate(81.9165, 18.9636)" stroke-linejoin="round" stroke-linecap="round" stroke-width="0.1000" fill="currentColor" stroke="currentColor" points="1.5660 0.8100 1.5660 1.1900 0.0500 0.1900 0.0500 -0.1900"/>
<polygon transform="translate(81.9165, 19.7819)" stroke-linejoin="round" stroke-linecap="round" stroke-width="0.1000" fill="currentColor" stroke="currentColor" points="1.1241 0.5366 1.1241 0.9166 0.0500 0.1900 0.0500 -0.1900"/>
<polygon transform="translate(85.8957, 21.9636)" stroke-linejoin="round" stroke-linecap="round" stroke-width="0.1000" fill="currentColor" stroke="currentColor" points="2.0733 -0.0082 2.0733 0.3718 0.0500 0.1900 0.0500 -0.1900"/>
<polygon transform="translate(85.8957, 22.7819)" stroke-linejoin="round" stroke-linecap="round" stroke-width="0.1000" fill="currentColor" stroke="currentColor" points="1.1257 -0.0893 1.1257 0.2907 0.0500 0.1900 0.0500 -0.1900"/>
<a style="color:inherit;" xlink:href="textedit:///Users/tatecarson/Documents/Supercollider%20/_OrgExamples/My%20Comps/Clarinet/notationGen/LY/cricket/cricket.4.ly:65:10:32">
<path transform="translate(91.5331, 21.9636)" stroke-width="0.0931" stroke-linejoin="round" stroke-linecap="round" stroke="currentColor" fill="currentColor" d="M1.17356647763074 -1.225C2.28572087034584 -2.1412020826816 7.82780432502605 -2.1412020826816 8.93995871774115 -1.225C7.82780432502605 -2.00148779696731 2.28572087034584 -2.00148779696731 1.17356647763074 -1.225z"/>
</a>
<a style="color:inherit;" xlink:href="textedit:///Users/tatecarson/Documents/Supercollider%20/_OrgExamples/My%20Comps/Clarinet/notationGen/LY/cricket/cricket.4.ly:46:3:25">
<path transform="translate(43.5347, 25.9636) scale(0.0040, -0.0040)" d="M212 110c-49 0 -67 -43 -67 -88c0 -74 56 -132 129 -132c49 0 67 43 67 88c0 74 -56 132 -129 132zM487 0c0 -43 -34 -77 -72 -99c-52 -30 -112 -41 -172 -41s-120 11 -172 41c-38 22 -71 56 -71 99s33 77 71 99c52 30 112 41 172 41s120 -11 172 -41
c38 -22 72 -56 72 -99z" fill="currentColor"/>
</a>
<rect transform="translate(39.4969, 21.9636)" x="-0.0757" y="-0.0000" width="0.1514" height="3.8269" ry="0.0500" fill="currentColor"/>
<a style="color:inherit;" xlink:href="textedit:///Users/tatecarson/Documents/Supercollider%20/_OrgExamples/My%20Comps/Clarinet/notationGen/LY/cricket/cricket.4.ly:43:3:25">
<path transform="translate(38.2580, 25.9636) scale(0.0040, -0.0040)" d="M214 140c59 0 115 -32 115 -97c0 -72 -54 -121 -101 -149c-35 -21 -74 -34 -114 -34c-59 0 -114 32 -114 97c0 72 54 121 101 149c35 21 73 34 113 34z" fill="currentColor"/>
</a>
<a style="color:inherit;" xlink:href="textedit:///Users/tatecarson/Documents/Supercollider%20/_OrgExamples/My%20Comps/Clarinet/notationGen/LY/cricket/cricket.4.ly:42:3:25">
<path transform="translate(35.6099, 21.9636) scale(0.0040, -0.0040)" d="M-24 -119c0 31 14 43 46 43c30 0 69 -9 106 -23l-126 151c-7 9 -11 17 -11 26c0 34 51 66 88 101c23 22 36 51 36 81c0 25 -9 50 -26 70l-31 37c-3 4 -4 8 -4 12c0 10 9 18 19 18c5 0 9 -1 13 -6l149 -178c7 -9 11 -17 11 -26c0 -34 -52 -66 -89 -101
c-23 -22 -35 -51 -35 -81c0 -25 9 -51 26 -71l79 -94c3 -4 4 -8 4 -12c0 -10 -9 -18 -19 -18c-5 0 -9 2 -13 7c-16 19 -57 33 -89 33c-41 0 -55 -23 -55 -65c0 -33 11 -73 27 -92c6 -7 0 -15 -7 -15c-2 0 -5 2 -7 4c-44 53 -92 145 -92 199z" fill="currentColor"/>
</a>
<path transform="translate(32.3877, 20.9636) scale(0.0040, -0.0040)" d="M134 37c-1 33 -19 65 -50 65c-28 0 -42 -33 -42 -65c0 -57 46 -99 89 -137c3 21 5 42 5 64v11zM181 -140c0 -16 -11 -29 -26 -29c-24 0 -32 29 -49 44c-58 52 -141 91 -141 169c0 54 34 104 84 104c35 0 69 -14 94 -38l-8 340c9 5 20 8 30 8s21 -3 30 -8z" fill="currentColor"/>
<a style="color:inherit;" xlink:href="textedit:///Users/tatecarson/Documents/Supercollider%20/_OrgExamples/My%20Comps/Clarinet/notationGen/LY/cricket/cricket.4.ly:52:3:25">
<path transform="translate(59.8675, 25.9636) scale(0.0040, -0.0040)" d="M212 110c-49 0 -67 -43 -67 -88c0 -74 56 -132 129 -132c49 0 67 43 67 88c0 74 -56 132 -129 132zM487 0c0 -43 -34 -77 -72 -99c-52 -30 -112 -41 -172 -41s-120 11 -172 41c-38 22 -71 56 -71 99s33 77 71 99c52 30 112 41 172 41s120 -11 172 -41
c38 -22 72 -56 72 -99z" fill="currentColor"/>
</a>
<a style="color:inherit;" xlink:href="textedit:///Users/tatecarson/Documents/Supercollider%20/_OrgExamples/My%20Comps/Clarinet/notationGen/LY/cricket/cricket.4.ly:49:3:25">
<path transform="translate(51.7011, 25.9636) scale(0.0040, -0.0040)" d="M212 110c-49 0 -67 -43 -67 -88c0 -74 56 -132 129 -132c49 0 67 43 67 88c0 74 -56 132 -129 132zM487 0c0 -43 -34 -77 -72 -99c-52 -30 -112 -41 -172 -41s-120 11 -172 41c-38 22 -71 56 -71 99s33 77 71 99c52 30 112 41 172 41s120 -11 172 -41
c38 -22 72 -56 72 -99z" fill="currentColor"/>
</a>
<rect transform="translate(81.9921, 21.9636)" x="-0.0757" y="-2.9532" width="0.1514" height="2.2800" ry="0.0500" fill="currentColor"/>
<a style="color:inherit;" xlink:href="textedit:///Users/tatecarson/Documents/Supercollider%20/_OrgExamples/My%20Comps/Clarinet/notationGen/LY/cricket/cricket.4.ly:60:3:25">
<path transform="translate(80.7532, 21.4636) scale(0.0040, -0.0040)" d="M214 140c59 0 115 -32 115 -97c0 -72 -54 -121 -101 -149c-35 -21 -74 -34 -114 -34c-59 0 -114 32 -114 97c0 72 54 121 101 149c35 21 73 34 113 34z" fill="currentColor"/>
</a>
<path transform="translate(77.4886, 21.4636) scale(0.0040, -0.0040)" d="M198 -329c-12 0 -21 9 -21 21v138l-79 -30v-154c0 -12 -9 -21 -21 -21s-21 9 -21 21v138l-22 -8c-3 -1 -6 -2 -9 -2c-13 0 -25 11 -25 25v54c0 10 6 20 16 24l40 15v155l-22 -9c-3 -1 -6 -1 -9 -1c-13 0 -25 11 -25 25v54c0 10 6 19 16 23l40 15v154c0 12 9 21 21 21
s21 -9 21 -21v-138l79 30v154c0 12 9 21 21 21s21 -9 21 -21v-138l22 8c3 1 6 2 9 2c13 0 25 -11 25 -25v-54c0 -10 -6 -20 -16 -24l-40 -15v-155l22 9c3 1 6 1 9 1c13 0 25 -11 25 -25v-54c0 -10 -6 -19 -16 -23l-40 -15v-154c0 -12 -9 -21 -21 -21zM98 62v-154l79 30v154z
" fill="currentColor"/>
<rect transform="translate(80.1775, 21.9636)" x="-0.0757" y="-3.5000" width="0.1514" height="2.8269" ry="0.0500" fill="currentColor"/>
<a style="color:inherit;" xlink:href="textedit:///Users/tatecarson/Documents/Supercollider%20/_OrgExamples/My%20Comps/Clarinet/notationGen/LY/cricket/cricket.4.ly:59:3:25">
<path transform="translate(78.9386, 21.4636) scale(0.0040, -0.0040)" d="M214 140c59 0 115 -32 115 -97c0 -72 -54 -121 -101 -149c-35 -21 -74 -34 -114 -34c-59 0 -114 32 -114 97c0 72 54 121 101 149c35 21 73 34 113 34z" fill="currentColor"/>
</a>
<path transform="translate(74.5664, 20.9636) scale(0.0040, -0.0040)" d="M134 37c-1 33 -19 65 -50 65c-28 0 -42 -33 -42 -65c0 -57 46 -99 89 -137c3 21 5 42 5 64v11zM181 -140c0 -16 -11 -29 -26 -29c-24 0 -32 29 -49 44c-58 52 -141 91 -141 169c0 54 34 104 84 104c35 0 69 -14 94 -38l-8 340c9 5 20 8 30 8s21 -3 30 -8z" fill="currentColor"/>
<rect transform="translate(76.9129, 21.9636)" x="-0.0757" y="-3.5000" width="0.1514" height="2.3269" ry="0.0500" fill="currentColor"/>
<a style="color:inherit;" xlink:href="textedit:///Users/tatecarson/Documents/Supercollider%20/_OrgExamples/My%20Comps/Clarinet/notationGen/LY/cricket/cricket.4.ly:58:3:25">
<path transform="translate(75.6740, 20.9636) scale(0.0040, -0.0040)" d="M214 140c59 0 115 -32 115 -97c0 -72 -54 -121 -101 -149c-35 -21 -74 -34 -114 -34c-59 0 -114 32 -114 97c0 72 54 121 101 149c35 21 73 34 113 34z" fill="currentColor"/>
</a>
<rect transform="translate(73.8502, 21.9636)" x="-0.0757" y="-3.5000" width="0.1514" height="7.3269" ry="0.0500" fill="currentColor"/>
<rect transform="translate(87.9433, 21.9636)" x="-0.0757" y="0.1753" width="0.1514" height="5.1515" ry="0.0500" fill="currentColor"/>
<path transform="translate(88.4604, 27.4636) scale(0.0040, -0.0040)" d="M0 0c0 30 25 55 55 55s55 -25 55 -55s-25 -55 -55 -55s-55 25 -55 55z" fill="currentColor"/>
<a style="color:inherit;" xlink:href="textedit:///Users/tatecarson/Documents/Supercollider%20/_OrgExamples/My%20Comps/Clarinet/notationGen/LY/cricket/cricket.4.ly:62:3:25">
<path transform="translate(86.7044, 27.4636) scale(0.0040, -0.0040)" d="M214 140c59 0 115 -32 115 -97c0 -72 -54 -121 -101 -149c-35 -21 -74 -34 -114 -34c-59 0 -114 32 -114 97c0 72 54 121 101 149c35 21 73 34 113 34z" fill="currentColor"/>
</a>
<rect transform="translate(85.9714, 21.9636)" x="-0.0757" y="0.0065" width="0.1514" height="3.8204" ry="0.0500" fill="currentColor"/>
<a style="color:inherit;" xlink:href="textedit:///Users/tatecarson/Documents/Supercollider%20/_OrgExamples/My%20Comps/Clarinet/notationGen/LY/cricket/cricket.4.ly:61:11:33">
<path transform="translate(84.7324, 25.9636) scale(0.0040, -0.0040)" d="M214 140c59 0 115 -32 115 -97c0 -72 -54 -121 -101 -149c-35 -21 -74 -34 -114 -34c-59 0 -114 32 -114 97c0 72 54 121 101 149c35 21 73 34 113 34z" fill="currentColor"/>
</a>
<rect transform="translate(83.4568, 21.9636)" x="-0.0757" y="-2.0468" width="0.1514" height="5.8737" ry="0.0500" fill="currentColor"/>
<path transform="translate(83.9739, 25.4636) scale(0.0040, -0.0040)" d="M0 0c0 30 25 55 55 55s55 -25 55 -55s-25 -55 -55 -55s-55 25 -55 55z" fill="currentColor"/>
<a style="color:inherit;" xlink:href="textedit:///Users/tatecarson/Documents/Supercollider%20/_OrgExamples/My%20Comps/Clarinet/notationGen/LY/cricket/cricket.4.ly:61:3:25">
<path transform="translate(82.2178, 25.9636) scale(0.0040, -0.0040)" d="M214 140c59 0 115 -32 115 -97c0 -72 -54 -121 -101 -149c-35 -21 -74 -34 -114 -34c-59 0 -114 32 -114 97c0 72 54 121 101 149c35 21 73 34 113 34z" fill="currentColor"/>
</a>
<rect transform="translate(68.2728, 21.9636)" x="-0.0757" y="0.0000" width="0.1514" height="3.8269" ry="0.0500" fill="currentColor"/>
<a style="color:inherit;" xlink:href="textedit:///Users/tatecarson/Documents/Supercollider%20/_OrgExamples/My%20Comps/Clarinet/notationGen/LY/cricket/cricket.4.ly:55:3:25">
<path transform="translate(67.0339, 25.9636) scale(0.0040, -0.0040)" d="M214 140c59 0 115 -32 115 -97c0 -72 -54 -121 -101 -149c-35 -21 -74 -34 -114 -34c-59 0 -114 32 -114 97c0 72 54 121 101 149c35 21 73 34 113 34z" fill="currentColor"/>
</a>
<path transform="translate(22.0482, 21.4636) scale(0.0040, -0.0040)" d="M198 -329c-12 0 -21 9 -21 21v138l-79 -30v-154c0 -12 -9 -21 -21 -21s-21 9 -21 21v138l-22 -8c-3 -1 -6 -2 -9 -2c-13 0 -25 11 -25 25v54c0 10 6 20 16 24l40 15v155l-22 -9c-3 -1 -6 -1 -9 -1c-13 0 -25 11 -25 25v54c0 10 6 19 16 23l40 15v154c0 12 9 21 21 21
s21 -9 21 -21v-138l79 30v154c0 12 9 21 21 21s21 -9 21 -21v-138l22 8c3 1 6 2 9 2c13 0 25 -11 25 -25v-54c0 -10 -6 -20 -16 -24l-40 -15v-155l22 9c3 1 6 1 9 1c13 0 25 -11 25 -25v-54c0 -10 -6 -19 -16 -23l-40 -15v-154c0 -12 -9 -21 -21 -21zM98 62v-154l79 30v154z
" fill="currentColor"/>
<rect transform="translate(24.7371, 21.9636)" x="-0.0757" y="-4.8438" width="0.1514" height="4.1707" ry="0.0500" fill="currentColor"/>
<path transform="translate(19.2264, 23.9696) scale(0.0040, -0.0040)" d="M201 296c23 15 46 29 62 51c12 16 20 35 28 52c2 4 6 6 10 6c7 0 14 -5 14 -15v-233h76c11 0 16 -8 16 -16s-5 -16 -16 -16h-76v-2c0 -50 30 -97 77 -97c9 0 12 -7 12 -13s-3 -13 -12 -13c-46 0 -92 13 -138 13s-93 -13 -139 -13c-9 0 -12 7 -12 13s3 13 12 13
c47 0 77 47 77 97v2h-160c-26 0 -34 15 -34 25c0 3 1 6 2 7c79 91 131 205 131 325c0 10 7 18 15 18h3c24 -7 49 -13 74 -13s50 6 74 13c2 1 3 1 5 1c9 0 15 -7 15 -13c0 -2 0 -4 -2 -6l-283 -325h160v115c0 9 1 19 9 24z" fill="currentColor"/>
<path transform="translate(19.2264, 21.9636) scale(0.0040, -0.0040)" d="M201 296c23 15 46 29 62 51c12 16 20 35 28 52c2 4 6 6 10 6c7 0 14 -5 14 -15v-233h76c11 0 16 -8 16 -16s-5 -16 -16 -16h-76v-2c0 -50 30 -97 77 -97c9 0 12 -7 12 -13s-3 -13 -12 -13c-46 0 -92 13 -138 13s-93 -13 -139 -13c-9 0 -12 7 -12 13s3 13 12 13
c47 0 77 47 77 97v2h-160c-26 0 -34 15 -34 25c0 3 1 6 2 7c79 91 131 205 131 325c0 10 7 18 15 18h3c24 -7 49 -13 74 -13s50 6 74 13c2 1 3 1 5 1c9 0 15 -7 15 -13c0 -2 0 -4 -2 -6l-283 -325h160v115c0 9 1 19 9 24z" fill="currentColor"/>
<path transform="translate(15.0264, 22.9636) scale(0.0040, -0.0040)" d="M379 264c3 0 7 1 10 1c157 0 258 -129 258 -263c0 -77 -33 -155 -108 -211c-22 -16 -46 -29 -72 -37c3 -33 4 -66 4 -99c0 -21 0 -41 -1 -62c-7 -121 -91 -229 -211 -229c-108 0 -196 88 -196 197c0 58 54 103 113 103c54 0 95 -47 95 -103c0 -52 -43 -95 -95 -95
c-9 0 -18 1 -27 4c25 -37 66 -61 113 -61c95 0 156 93 162 191c1 19 2 38 2 57c0 29 -1 58 -3 87c-29 -5 -58 -8 -88 -8c-189 0 -333 173 -333 376c0 177 129 308 244 443c-20 62 -40 124 -48 189c-7 52 -7 105 -7 158c0 114 54 221 147 288c4 3 8 4 12 4c5 0 9 -2 13 -5
c72 -83 135 -243 135 -356c0 -142 -84 -255 -176 -364c21 -68 40 -136 57 -205zM463 -201c65 24 110 94 110 161c0 88 -64 175 -167 188c24 -114 44 -227 57 -349zM77 25c0 -133 128 -243 261 -243c27 0 55 1 81 5c-13 126 -35 244 -60 362c-79 -8 -124 -60 -124 -118
c0 -43 25 -88 80 -120c5 -5 7 -11 7 -17c0 -12 -10 -23 -23 -23c-3 0 -7 1 -10 2c-81 43 -118 115 -118 186c0 89 60 177 163 200c-14 57 -30 113 -47 169c-105 -122 -210 -243 -210 -403zM403 1038c-99 -46 -161 -145 -161 -254c0 -71 21 -130 39 -188
c78 97 142 199 142 324c0 51 -4 72 -20 118z" fill="currentColor"/>
<a style="color:inherit;" xlink:href="textedit:///Users/tatecarson/Documents/Supercollider%20/_OrgExamples/My%20Comps/Clarinet/notationGen/LY/cricket/cricket.4.ly:38:3:25">
<path transform="translate(23.4982, 21.4636) scale(0.0040, -0.0040)" d="M214 140c59 0 115 -32 115 -97c0 -72 -54 -121 -101 -149c-35 -21 -74 -34 -114 -34c-59 0 -114 32 -114 97c0 72 54 121 101 149c35 21 73 34 113 34z" fill="currentColor"/>
</a>
<a style="color:inherit;" xlink:href="textedit:///Users/tatecarson/Documents/Supercollider%20/_OrgExamples/My%20Comps/Clarinet/notationGen/LY/cricket/cricket.4.ly:57:3:25">
<path transform="translate(72.6112, 25.9636) scale(0.0040, -0.0040)" d="M214 140c59 0 115 -32 115 -97c0 -72 -54 -121 -101 -149c-35 -21 -74 -34 -114 -34c-59 0 -114 32 -114 97c0 72 54 121 101 149c35 21 73 34 113 34z" fill="currentColor"/>
</a>
<path transform="translate(68.9890, 25.9636) scale(0.0040, -0.0040)" d="M134 37c-1 33 -19 65 -50 65c-28 0 -42 -33 -42 -65c0 -57 46 -99 89 -137c3 21 5 42 5 64v11zM181 -140c0 -16 -11 -29 -26 -29c-24 0 -32 29 -49 44c-58 52 -141 91 -141 169c0 54 34 104 84 104c35 0 69 -14 94 -38l-8 340c9 5 20 8 30 8s21 -3 30 -8z" fill="currentColor"/>
<rect transform="translate(71.3356, 21.9636)" x="-0.0757" y="0.0000" width="0.1514" height="3.8269" ry="0.0500" fill="currentColor"/>
<path transform="translate(71.8527, 25.4636) scale(0.0040, -0.0040)" d="M0 0c0 30 25 55 55 55s55 -25 55 -55s-25 -55 -55 -55s-55 25 -55 55z" fill="currentColor"/>
<a style="color:inherit;" xlink:href="textedit:///Users/tatecarson/Documents/Supercollider%20/_OrgExamples/My%20Comps/Clarinet/notationGen/LY/cricket/cricket.4.ly:56:3:25">
<path transform="translate(70.0966, 25.9636) scale(0.0040, -0.0040)" d="M214 140c59 0 115 -32 115 -97c0 -72 -54 -121 -101 -149c-35 -21 -74 -34 -114 -34c-59 0 -114 32 -114 97c0 72 54 121 101 149c35 21 73 34 113 34z" fill="currentColor"/>
</a>
<rect transform="translate(115.2366, 21.9636)" x="-0.0757" y="-0.2518" width="0.1514" height="3.2518" ry="0.0500" fill="currentColor"/>
<a style="color:inherit;" xlink:href="textedit:///Users/tatecarson/Documents/Supercollider%20/_OrgExamples/My%20Comps/Clarinet/notationGen/LY/cricket/cricket.4.ly:74:3:25">
<path transform="translate(115.1609, 21.4636) scale(0.0040, -0.0040)" d="M312 63c0 23 -20 40 -41 40c-4 0 -7 -1 -11 -2c-30 -8 -75 -38 -111 -61s-81 -52 -101 -76c-7 -8 -10 -17 -10 -27c0 -23 19 -40 40 -40c4 0 8 1 12 2c30 8 75 38 111 61s81 52 101 76c7 8 10 17 10 27zM258 140c51 0 92 -23 92 -78c0 -19 -4 -38 -10 -56
c-11 -38 -31 -75 -64 -97c-53 -36 -112 -49 -185 -49c-51 0 -91 23 -91 78c0 19 4 38 10 56c11 38 30 75 63 97c53 36 112 49 185 49z" fill="currentColor"/>
</a>
<a style="color:inherit;" xlink:href="textedit:///Users/tatecarson/Documents/Supercollider%20/_OrgExamples/My%20Comps/Clarinet/notationGen/LY/cricket/cricket.4.ly:71:3:25">
<path transform="translate(107.8658, 21.4636) scale(0.0040, -0.0040)" d="M212 110c-49 0 -67 -43 -67 -88c0 -74 56 -132 129 -132c49 0 67 43 67 88c0 74 -56 132 -129 132zM487 0c0 -43 -34 -77 -72 -99c-52 -30 -112 -41 -172 -41s-120 11 -172 41c-38 22 -71 56 -71 99s33 77 71 99c52 30 112 41 172 41s120 -11 172 -41
c38 -22 72 -56 72 -99z" fill="currentColor"/>
</a>
<rect transform="translate(123.7091, 21.9636)" x="-0.0757" y="-4.5000" width="0.1514" height="3.8269" ry="0.0500" fill="currentColor"/>
<a style="color:inherit;" xlink:href="textedit:///Users/tatecarson/Documents/Supercollider%20/_OrgExamples/My%20Comps/Clarinet/notationGen/LY/cricket/cricket.4.ly:76:3:25">
<path transform="translate(122.4701, 21.4636) scale(0.0040, -0.0040)" d="M214 140c59 0 115 -32 115 -97c0 -72 -54 -121 -101 -149c-35 -21 -74 -34 -114 -34c-59 0 -114 32 -114 97c0 72 54 121 101 149c35 21 73 34 113 34z" fill="currentColor"/>
</a>
<path transform="translate(118.0075, 21.4636) scale(0.0040, -0.0040)" d="M198 -329c-12 0 -21 9 -21 21v138l-79 -30v-154c0 -12 -9 -21 -21 -21s-21 9 -21 21v138l-22 -8c-3 -1 -6 -2 -9 -2c-13 0 -25 11 -25 25v54c0 10 6 20 16 24l40 15v155l-22 -9c-3 -1 -6 -1 -9 -1c-13 0 -25 11 -25 25v54c0 10 6 19 16 23l40 15v154c0 12 9 21 21 21
s21 -9 21 -21v-138l79 30v154c0 12 9 21 21 21s21 -9 21 -21v-138l22 8c3 1 6 2 9 2c13 0 25 -11 25 -25v-54c0 -10 -6 -20 -16 -24l-40 -15v-155l22 9c3 1 6 1 9 1c13 0 25 -11 25 -25v-54c0 -10 -6 -19 -16 -23l-40 -15v-154c0 -12 -9 -21 -21 -21zM98 62v-154l79 30v154z
" fill="currentColor"/>
<rect transform="translate(119.5332, 21.9636)" x="-0.0757" y="-0.3269" width="0.1514" height="3.3269" ry="0.0500" fill="currentColor"/>
<a style="color:inherit;" xlink:href="textedit:///Users/tatecarson/Documents/Supercollider%20/_OrgExamples/My%20Comps/Clarinet/notationGen/LY/cricket/cricket.4.ly:75:3:25">
<path transform="translate(119.4575, 21.4636) scale(0.0040, -0.0040)" d="M214 140c59 0 115 -32 115 -97c0 -72 -54 -121 -101 -149c-35 -21 -74 -34 -114 -34c-59 0 -114 32 -114 97c0 72 54 121 101 149c35 21 73 34 113 34z" fill="currentColor"/>
</a>
<a style="color:inherit;" xlink:href="textedit:///Users/tatecarson/Documents/Supercollider%20/_OrgExamples/My%20Comps/Clarinet/notationGen/LY/cricket/cricket.4.ly:68:3:25">
<path transform="translate(99.6994, 21.4636) scale(0.0040, -0.0040)" d="M212 110c-49 0 -67 -43 -67 -88c0 -74 56 -132 129 -132c49 0 67 43 67 88c0 74 -56 132 -129 132zM487 0c0 -43 -34 -77 -72 -99c-52 -30 -112 -41 -172 -41s-120 11 -172 41c-38 22 -71 56 -71 99s33 77 71 99c52 30 112 41 172 41s120 -11 172 -41
c38 -22 72 -56 72 -99z" fill="currentColor"/>
</a>
<path transform="translate(90.0831, 21.4636) scale(0.0040, -0.0040)" d="M198 -329c-12 0 -21 9 -21 21v138l-79 -30v-154c0 -12 -9 -21 -21 -21s-21 9 -21 21v138l-22 -8c-3 -1 -6 -2 -9 -2c-13 0 -25 11 -25 25v54c0 10 6 20 16 24l40 15v155l-22 -9c-3 -1 -6 -1 -9 -1c-13 0 -25 11 -25 25v54c0 10 6 19 16 23l40 15v154c0 12 9 21 21 21
s21 -9 21 -21v-138l79 30v154c0 12 9 21 21 21s21 -9 21 -21v-138l22 8c3 1 6 2 9 2c13 0 25 -11 25 -25v-54c0 -10 -6 -20 -16 -24l-40 -15v-155l22 9c3 1 6 1 9 1c13 0 25 -11 25 -25v-54c0 -10 -6 -19 -16 -23l-40 -15v-154c0 -12 -9 -21 -21 -21zM98 62v-154l79 30v154z
" fill="currentColor"/>
<a style="color:inherit;" xlink:href="textedit:///Users/tatecarson/Documents/Supercollider%20/_OrgExamples/My%20Comps/Clarinet/notationGen/LY/cricket/cricket.4.ly:65:3:25">
<path transform="translate(91.5331, 21.4636) scale(0.0040, -0.0040)" d="M212 110c-49 0 -67 -43 -67 -88c0 -74 56 -132 129 -132c49 0 67 43 67 88c0 74 -56 132 -129 132zM487 0c0 -43 -34 -77 -72 -99c-52 -30 -112 -41 -172 -41s-120 11 -172 41c-38 22 -71 56 -71 99s33 77 71 99c52 30 112 41 172 41s120 -11 172 -41
c38 -22 72 -56 72 -99z" fill="currentColor"/>
</a>
</svg>
