<svg xmlns="http://www.w3.org/2000/svg" xmlns:xlink="http://www.w3.org/1999/xlink" version="1.2" width="297.00mm" height="210.00mm" viewBox="0 0 211.2617 149.3770">
<!-- Page: 1/1 -->
<text transform="translate(14.2264, 14.2264)" font-family="Century Schoolbook L" font-size="2.1999" text-anchor="start" fill="currentColor">
<tspan>
 </tspan>
</text>
<rect transform="translate(14.2264, 17.5584)" x="71.6171" y="-0.1082" width="1.8183" height="0.2164" ry="0.1082" fill="currentColor"/>
<rect transform="translate(14.2264, 17.5584)" x="79.5266" y="-0.1082" width="1.9719" height="0.2164" ry="0.1082" fill="currentColor"/>
<rect transform="translate(14.2264, 23.5584)" x="99.6640" y="-0.1082" width="2.0978" height="0.2164" ry="0.1082" fill="currentColor"/>
<rect transform="translate(14.2264, 24.5584)" x="99.6640" y="-0.1082" width="2.0978" height="0.2164" ry="0.1082" fill="currentColor"/>
<rect transform="translate(14.2264, 25.5584)" x="99.6640" y="-0.1082" width="2.0978" height="0.2164" ry="0.1082" fill="currentColor"/>
<rect transform="translate(14.2264, 23.5584)" x="111.0808" y="-0.1082" width="1.9719" height="0.2164" ry="0.1082" fill="currentColor"/>
<rect transform="translate(14.2264, 24.5584)" x="111.0808" y="-0.1082" width="1.9719" height="0.2164" ry="0.1082" fill="currentColor"/>
<rect transform="translate(14.2264, 25.5584)" x="111.0808" y="-0.1082" width="1.9719" height="0.2164" ry="0.1082" fill="currentColor"/>
<line transform="translate(14.2264, 22.5584)" stroke-linejoin="round" stroke-linecap="round" stroke-width="0.1164" stroke="currentColor" x1="0.0582" y1="-0.0000" x2="182.7507" y2="-0.0000"/>
<line transform="translate(14.2264, 21.5584)" stroke-linejoin="round" stroke-linecap="round" stroke-width="0.1164" stroke="currentColor" x1="0.0582" y1="-0.0000" x2="182.7507" y2="-0.0000"/>
<line transform="translate(14.2264, 20.5584)" stroke-linejoin="round" stroke-linecap="round" stroke-width="0.1164" stroke="currentColor" x1="0.0582" y1="-0.0000" x2="182.7507" y2="-0.0000"/>
<line transform="translate(14.2264, 19.5584)" stroke-linejoin="round" stroke-linecap="round" stroke-width="0.1164" stroke="currentColor" x1="0.0582" y1="-0.0000" x2="182.7507" y2="-0.0000"/>
<line transform="translate(14.2264, 18.5584)" stroke-linejoin="round" stroke-linecap="round" stroke-width="0.1164" stroke="currentColor" x1="0.0582" y1="-0.0000" x2="182.7507" y2="-0.0000"/>
<rect transform="translate(164.1020, 20.5584)" x="0.0000" y="-2.0000" width="0.2212" height="4.0000" ry="0.0000" fill="currentColor"/>
<rect transform="translate(92.5090, 20.5584)" x="0.0000" y="-2.0000" width="0.2212" height="4.0000" ry="0.0000" fill="currentColor"/>
<rect transform="translate(124.1775, 20.5584)" x="0.0000" y="-2.0000" width="0.2212" height="4.0000" ry="0.0000" fill="currentColor"/>
<rect transform="translate(60.6500, 20.5584)" x="0.0000" y="-2.0000" width="0.2212" height="4.0000" ry="0.0000" fill="currentColor"/>
<rect transform="translate(196.8141, 20.5584)" x="0.0000" y="-2.0000" width="0.2212" height="4.0000" ry="0.0000" fill="currentColor"/>
<a style="color:inherit;" xlink:href="textedit:///Users/tatecarson/Documents/Supercollider%20/_OrgExamples/My%20Comps/Clarinet/notationGen/LY/cricket/cricket.1.ly:40:3:25">
<path transform="translate(34.0115, 20.5584) scale(0.0040, -0.0040)" d="M61 -500l101 326c-33 -12 -67 -22 -102 -22c-46 0 -87 34 -87 79c0 40 34 72 74 72c25 0 49 -14 57 -37c10 -27 3 -59 32 -59c16 0 51 50 56 66l47 151c-33 -12 -66 -22 -101 -22c-46 0 -87 34 -87 79c0 40 34 72 74 72c25 0 49 -14 57 -37c10 -27 3 -59 32 -59
c14 0 46 42 52 55c7 14 28 14 34 0l-175 -664c-9 -8 -21 -12 -32 -12s-23 4 -32 12z" fill="currentColor"/>
</a>
<rect transform="translate(188.1815, 20.5584)" x="-0.0757" y="-3.0000" width="0.1514" height="3.2518" ry="0.0500" fill="currentColor"/>
<a style="color:inherit;" xlink:href="textedit:///Users/tatecarson/Documents/Supercollider%20/_OrgExamples/My%20Comps/Clarinet/notationGen/LY/cricket/cricket.1.ly:73:3:25">
<path transform="translate(186.8587, 21.0584) scale(0.0040, -0.0040)" d="M312 63c0 23 -20 40 -41 40c-4 0 -7 -1 -11 -2c-30 -8 -75 -38 -111 -61s-81 -52 -101 -76c-7 -8 -10 -17 -10 -27c0 -23 19 -40 40 -40c4 0 8 1 12 2c30 8 75 38 111 61s81 52 101 76c7 8 10 17 10 27zM258 140c51 0 92 -23 92 -78c0 -19 -4 -38 -10 -56
c-11 -38 -31 -75 -64 -97c-53 -36 -112 -49 -185 -49c-51 0 -91 23 -91 78c0 19 4 38 10 56c11 38 30 75 63 97c53 36 112 49 185 49z" fill="currentColor"/>
</a>
<path transform="translate(179.0106, 21.0584) scale(0.0040, -0.0040)" d="M134 37c-1 33 -19 65 -50 65c-28 0 -42 -33 -42 -65c0 -57 46 -99 89 -137c3 21 5 42 5 64v11zM181 -140c0 -16 -11 -29 -26 -29c-24 0 -32 29 -49 44c-58 52 -141 91 -141 169c0 54 34 104 84 104c35 0 69 -14 94 -38l-8 340c9 5 20 8 30 8s21 -3 30 -8z" fill="currentColor"/>
<path transform="translate(181.4328, 17.6084) scale(0.0040, -0.0040)" d="M0 0c0 -197 209 -334 209 -531c0 -71 -15 -140 -41 -206c-5 -9 -14 -13 -22 -13c-14 0 -29 12 -26 30c27 60 43 124 43 189c0 102 -93 206 -163 281h-19v250h19z" fill="currentColor"/>
<rect transform="translate(181.3571, 20.5584)" x="-0.0757" y="-3.0000" width="0.1514" height="3.3269" ry="0.0500" fill="currentColor"/>
<path transform="translate(181.8742, 21.0584) scale(0.0040, -0.0040)" d="M0 0c0 30 25 55 55 55s55 -25 55 -55s-25 -55 -55 -55s-55 25 -55 55z" fill="currentColor"/>
<path transform="translate(44.2646, 20.0584) scale(0.0040, -0.0040)" d="M0 0c0 30 25 55 55 55s55 -25 55 -55s-25 -55 -55 -55s-55 25 -55 55z" fill="currentColor"/>
<a style="color:inherit;" xlink:href="textedit:///Users/tatecarson/Documents/Supercollider%20/_OrgExamples/My%20Comps/Clarinet/notationGen/LY/cricket/cricket.1.ly:42:3:25">
<path transform="translate(42.8232, 20.5584) scale(0.0040, -0.0040)" d="M67 -250l118 326c-33 -12 -66 -22 -101 -22c-46 0 -87 34 -87 79c0 40 33 72 73 72c25 0 49 -14 57 -37c10 -27 4 -59 33 -59c14 0 50 42 56 55c7 14 28 14 34 0l-119 -414c-9 -8 -21 -12 -32 -12s-23 4 -32 12z" fill="currentColor"/>
</a>
<path transform="translate(19.2264, 22.5643) scale(0.0040, -0.0040)" d="M201 296c23 15 46 29 62 51c12 16 20 35 28 52c2 4 6 6 10 6c7 0 14 -5 14 -15v-233h76c11 0 16 -8 16 -16s-5 -16 -16 -16h-76v-2c0 -50 30 -97 77 -97c9 0 12 -7 12 -13s-3 -13 -12 -13c-46 0 -92 13 -138 13s-93 -13 -139 -13c-9 0 -12 7 -12 13s3 13 12 13
c47 0 77 47 77 97v2h-160c-26 0 -34 15 -34 25c0 3 1 6 2 7c79 91 131 205 131 325c0 10 7 18 15 18h3c24 -7 49 -13 74 -13s50 6 74 13c2 1 3 1 5 1c9 0 15 -7 15 -13c0 -2 0 -4 -2 -6l-283 -325h160v115c0 9 1 19 9 24z" fill="currentColor"/>
<path transform="translate(19.2264, 20.5584) scale(0.0040, -0.0040)" d="M201 296c23 15 46 29 62 51c12 16 20 35 28 52c2 4 6 6 10 6c7 0 14 -5 14 -15v-233h76c11 0 16 -8 16 -16s-5 -16 -16 -16h-76v-2c0 -50 30 -97 77 -97c9 0 12 -7 12 -13s-3 -13 -12 -13c-46 0 -92 13 -138 13s-93 -13 -139 -13c-9 0 -12 7 -12 13s3 13 12 13
c47 0 77 47 77 97v2h-160c-26 0 -34 15 -34 25c0 3 1 6 2 7c79 91 131 205 131 325c0 10 7 18 15 18h3c24 -7 49 -13 74 -13s50 6 74 13c2 1 3 1 5 1c9 0 15 -7 15 -13c0 -2 0 -4 -2 -6l-283 -325h160v115c0 9 1 19 9 24z" fill="currentColor"/>
<path transform="translate(38.6251, 18.6084) scale(0.0040, -0.0040)" d="M0 0c0 -197 209 -334 209 -531c0 -71 -15 -140 -41 -206c-5 -9 -14 -13 -22 -13c-14 0 -29 12 -26 30c27 60 43 124 43 189c0 102 -93 206 -163 281h-19v250h19z" fill="currentColor"/>
<rect transform="translate(38.5495, 20.5584)" x="-0.0757" y="-2.0000" width="0.1514" height="3.3269" ry="0.0500" fill="currentColor"/>
<a style="color:inherit;" xlink:href="textedit:///Users/tatecarson/Documents/Supercollider%20/_OrgExamples/My%20Comps/Clarinet/notationGen/LY/cricket/cricket.1.ly:41:3:25">
<path transform="translate(37.3105, 22.0584) scale(0.0040, -0.0040)" d="M214 140c59 0 115 -32 115 -97c0 -72 -54 -121 -101 -149c-35 -21 -74 -34 -114 -34c-59 0 -114 32 -114 97c0 72 54 121 101 149c35 21 73 34 113 34z" fill="currentColor"/>
</a>
<path transform="translate(15.0264, 21.5584) scale(0.0040, -0.0040)" d="M379 264c3 0 7 1 10 1c157 0 258 -129 258 -263c0 -77 -33 -155 -108 -211c-22 -16 -46 -29 -72 -37c3 -33 4 -66 4 -99c0 -21 0 -41 -1 -62c-7 -121 -91 -229 -211 -229c-108 0 -196 88 -196 197c0 58 54 103 113 103c54 0 95 -47 95 -103c0 -52 -43 -95 -95 -95
c-9 0 -18 1 -27 4c25 -37 66 -61 113 -61c95 0 156 93 162 191c1 19 2 38 2 57c0 29 -1 58 -3 87c-29 -5 -58 -8 -88 -8c-189 0 -333 173 -333 376c0 177 129 308 244 443c-20 62 -40 124 -48 189c-7 52 -7 105 -7 158c0 114 54 221 147 288c4 3 8 4 12 4c5 0 9 -2 13 -5
c72 -83 135 -243 135 -356c0 -142 -84 -255 -176 -364c21 -68 40 -136 57 -205zM463 -201c65 24 110 94 110 161c0 88 -64 175 -167 188c24 -114 44 -227 57 -349zM77 25c0 -133 128 -243 261 -243c27 0 55 1 81 5c-13 126 -35 244 -60 362c-79 -8 -124 -60 -124 -118
c0 -43 25 -88 80 -120c5 -5 7 -11 7 -17c0 -12 -10 -23 -23 -23c-3 0 -7 1 -10 2c-81 43 -118 115 -118 186c0 89 60 177 163 200c-14 57 -30 113 -47 169c-105 -122 -210 -243 -210 -403zM403 1038c-99 -46 -161 -145 -161 -254c0 -71 21 -130 39 -188
c78 97 142 199 142 324c0 51 -4 72 -20 118z" fill="currentColor"/>
<path transform="translate(166.8749, 18.1084) scale(0.0040, -0.0040)" d="M0 0c0 -197 209 -334 209 -531c0 -71 -15 -140 -41 -206c-5 -9 -14 -13 -22 -13c-14 0 -29 12 -26 30c27 60 43 124 43 189c0 102 -93 206 -163 281h-19v250h19z" fill="currentColor"/>
<rect transform="translate(166.7992, 20.5584)" x="-0.0757" y="-2.5000" width="0.1514" height="3.3269" ry="0.0500" fill="currentColor"/>
<a style="color:inherit;" xlink:href="textedit:///Users/tatecarson/Documents/Supercollider%20/_OrgExamples/My%20Comps/Clarinet/notationGen/LY/cricket/cricket.1.ly:70:3:25">
<path transform="translate(165.5603, 21.5584) scale(0.0040, -0.0040)" d="M214 140c59 0 115 -32 115 -97c0 -72 -54 -121 -101 -149c-35 -21 -74 -34 -114 -34c-59 0 -114 32 -114 97c0 72 54 121 101 149c35 21 73 34 113 34z" fill="currentColor"/>
</a>
<path transform="translate(161.8649, 19.6084) scale(0.0040, -0.0040)" d="M0 0c0 -177 203 -291 203 -468c0 -33 -8 -65 -23 -95c18 -36 29 -75 29 -117c0 -63 -15 -125 -41 -182c-5 -9 -14 -13 -22 -13c-14 0 -29 12 -26 30c26 51 43 107 43 165c0 96 -93 189 -163 255v-75h-19v500h19zM150 -511c4 14 7 28 7 43c0 95 -90 189 -157 256
c0 -116 88 -203 150 -299z" fill="currentColor"/>
<rect transform="translate(161.7893, 20.5584)" x="-0.0757" y="-1.0000" width="0.1514" height="3.3269" ry="0.0500" fill="currentColor"/>
<a style="color:inherit;" xlink:href="textedit:///Users/tatecarson/Documents/Supercollider%20/_OrgExamples/My%20Comps/Clarinet/notationGen/LY/cricket/cricket.1.ly:72:3:25">
<path transform="translate(180.1182, 21.0584) scale(0.0040, -0.0040)" d="M214 140c59 0 115 -32 115 -97c0 -72 -54 -121 -101 -149c-35 -21 -74 -34 -114 -34c-59 0 -114 32 -114 97c0 72 54 121 101 149c35 21 73 34 113 34z" fill="currentColor"/>
</a>
<a style="color:inherit;" xlink:href="textedit:///Users/tatecarson/Documents/Supercollider%20/_OrgExamples/My%20Comps/Clarinet/notationGen/LY/cricket/cricket.1.ly:38:3:25">
<path transform="translate(22.8482, 21.5584) scale(0.0040, -0.0040)" d="M214 140c59 0 115 -32 115 -97c0 -72 -54 -121 -101 -149c-35 -21 -74 -34 -114 -34c-59 0 -114 32 -114 97c0 72 54 121 101 149c35 21 73 34 113 34z" fill="currentColor"/>
</a>
<a style="color:inherit;" xlink:href="textedit:///Users/tatecarson/Documents/Supercollider%20/_OrgExamples/My%20Comps/Clarinet/notationGen/LY/cricket/cricket.1.ly:71:6:28">
<path transform="translate(176.2710, 20.5584) scale(0.0040, -0.0040)" d="M61 -500l101 326c-33 -12 -67 -22 -102 -22c-46 0 -87 34 -87 79c0 40 34 72 74 72c25 0 49 -14 57 -37c10 -27 3 -59 32 -59c16 0 51 50 56 66l47 151c-33 -12 -66 -22 -101 -22c-46 0 -87 34 -87 79c0 40 34 72 74 72c25 0 49 -14 57 -37c10 -27 3 -59 32 -59
c14 0 46 42 52 55c7 14 28 14 34 0l-175 -664c-9 -8 -21 -12 -32 -12s-23 4 -32 12z" fill="currentColor"/>
</a>
<a style="color:inherit;" xlink:href="textedit:///Users/tatecarson/Documents/Supercollider%20/_OrgExamples/My%20Comps/Clarinet/notationGen/LY/cricket/cricket.1.ly:71:3:25">
<path transform="translate(171.0730, 20.5584) scale(0.0040, -0.0040)" d="M67 -250l118 326c-33 -12 -66 -22 -101 -22c-46 0 -87 34 -87 79c0 40 33 72 73 72c25 0 49 -14 57 -37c10 -27 4 -59 33 -59c14 0 50 42 56 55c7 14 28 14 34 0l-119 -414c-9 -8 -21 -12 -32 -12s-23 4 -32 12z" fill="currentColor"/>
</a>
<rect transform="translate(82.6805, 20.5584)" x="-0.0757" y="2.6731" width="0.1514" height="2.7844" ry="0.0500" fill="currentColor"/>
<a style="color:inherit;" xlink:href="textedit:///Users/tatecarson/Documents/Supercollider%20/_OrgExamples/My%20Comps/Clarinet/notationGen/LY/cricket/cricket.1.ly:50:3:25">
<path transform="translate(82.6048, 23.0584) scale(0.0040, -0.0040)" d="M214 140c59 0 115 -32 115 -97c0 -72 -54 -121 -101 -149c-35 -21 -74 -34 -114 -34c-59 0 -114 32 -114 97c0 72 54 121 101 149c35 21 73 34 113 34z" fill="currentColor"/>
</a>
<rect transform="translate(75.0688, 20.5584)" x="-0.0757" y="0.1731" width="0.1514" height="3.1602" ry="0.0500" fill="currentColor"/>
<a style="color:inherit;" xlink:href="textedit:///Users/tatecarson/Documents/Supercollider%20/_OrgExamples/My%20Comps/Clarinet/notationGen/LY/cricket/cricket.1.ly:49:3:25">
<path transform="translate(74.9932, 20.5584) scale(0.0040, -0.0040)" d="M214 140c59 0 115 -32 115 -97c0 -72 -54 -121 -101 -149c-35 -21 -74 -34 -114 -34c-59 0 -114 32 -114 97c0 72 54 121 101 149c35 21 73 34 113 34z" fill="currentColor"/>
</a>
<path transform="translate(70.4719, 20.5584) scale(0.0040, -0.0040)" d="M134 37c-1 33 -19 65 -50 65c-28 0 -42 -33 -42 -65c0 -57 46 -99 89 -137c3 21 5 42 5 64v11zM181 -140c0 -16 -11 -29 -26 -29c-24 0 -32 29 -49 44c-58 52 -141 91 -141 169c0 54 34 104 84 104c35 0 69 -14 94 -38l-8 340c9 5 20 8 30 8s21 -3 30 -8z" fill="currentColor"/>
<path transform="translate(71.7309, 23.8834) scale(0.0040, -0.0040)" d="M0 205c90 51 210 130 210 231c0 23 -6 46 -14 67c-80 -86 -196 -157 -196 -278v-20zM270 661c0 -44 -16 -82 -39 -116c16 -35 25 -71 25 -109c0 -181 -256 -255 -256 -436h-19v500h19v-70c96 49 223 127 223 231c0 21 -5 40 -14 59c-3 18 11 30 25 30c31 0 36 -62 36 -89
z" fill="currentColor"/>
<rect transform="translate(71.6552, 20.5584)" x="-0.0757" y="0.1731" width="0.1514" height="3.2019" ry="0.0500" fill="currentColor"/>
<a style="color:inherit;" xlink:href="textedit:///Users/tatecarson/Documents/Supercollider%20/_OrgExamples/My%20Comps/Clarinet/notationGen/LY/cricket/cricket.1.ly:48:3:25">
<path transform="translate(71.5795, 20.5584) scale(0.0040, -0.0040)" d="M214 140c59 0 115 -32 115 -97c0 -72 -54 -121 -101 -149c-35 -21 -74 -34 -114 -34c-59 0 -114 32 -114 97c0 72 54 121 101 149c35 21 73 34 113 34z" fill="currentColor"/>
</a>
<a style="color:inherit;" xlink:href="textedit:///Users/tatecarson/Documents/Supercollider%20/_OrgExamples/My%20Comps/Clarinet/notationGen/LY/cricket/cricket.1.ly:38:8:30">
<path transform="translate(22.8482, 20.5584)" stroke-width="0.0931" stroke-linejoin="round" stroke-linecap="round" stroke="currentColor" fill="currentColor" d="M0.857308128544423 1.75C1.93274097196258 2.65488778772922 6.99355653697083 2.65488778772922 8.06898938038898 1.75C6.99355653697083 2.51517350201493 1.93274097196258 2.51517350201493 0.857308128544423 1.75z"/>
</a>
<a style="color:inherit;" xlink:href="textedit:///Users/tatecarson/Documents/Supercollider%20/_OrgExamples/My%20Comps/Clarinet/notationGen/LY/cricket/cricket.1.ly:43:11:33">
<path transform="translate(49.2491, 20.5584)" stroke-width="0.0931" stroke-linejoin="round" stroke-linecap="round" stroke="currentColor" fill="currentColor" d="M1.51461625708885 2.0C1.97175617622545 2.55716489364933 2.89449807038364 2.55716489364933 3.35163798952024 2.0C2.89449807038364 2.41745060793504 1.97175617622545 2.41745060793504 1.51461625708885 2.0z"/>
</a>
<a style="color:inherit;" xlink:href="textedit:///Users/tatecarson/Documents/Supercollider%20/_OrgExamples/My%20Comps/Clarinet/notationGen/LY/cricket/cricket.1.ly:44:12:34">
<path transform="translate(52.8007, 20.5584)" stroke-width="0.0931" stroke-linejoin="round" stroke-linecap="round" stroke="currentColor" fill="currentColor" d="M1.51461625708885 2.0C2.61561242115857 2.91283325206746 8.0066646879497 2.91283325206746 9.10766085201942 2.0C8.0066646879497 2.77311896635318 2.61561242115857 2.77311896635318 1.51461625708885 2.0z"/>
</a>
<a style="color:inherit;" xlink:href="textedit:///Users/tatecarson/Documents/Supercollider%20/_OrgExamples/My%20Comps/Clarinet/notationGen/LY/cricket/cricket.1.ly:48:11:33">
<path transform="translate(71.5795, 20.5584)" stroke-width="0.0931" stroke-linejoin="round" stroke-linecap="round" stroke="currentColor" fill="currentColor" d="M1.51461625708885 -0.246877235770911C1.94480159825947 -0.779267791128257 2.78345258083679 -0.779267791128257 3.21363792200741 -0.246877235770911C2.78345258083679 -0.639553505413971 1.94480159825947 -0.639553505413971 1.51461625708885 -0.246877235770911z"/>
</a>
<a style="color:inherit;" xlink:href="textedit:///Users/tatecarson/Documents/Supercollider%20/_OrgExamples/My%20Comps/Clarinet/notationGen/LY/cricket/cricket.1.ly:51:13:35">
<path transform="translate(86.0185, 20.5584)" stroke-width="0.0931" stroke-linejoin="round" stroke-linecap="round" stroke="currentColor" fill="currentColor" d="M1.51461625708885 -4.0C2.52645234232055 -4.88364656458515 6.85130558821739 -4.88364656458515 7.86314167344909 -4.0C6.85130558821739 -4.74393227887087 2.52645234232055 -4.74393227887087 1.51461625708885 -4.0z"/>
</a>
<polygon transform="translate(82.6048, 25.2402)" stroke-linejoin="round" stroke-linecap="round" stroke-width="0.1000" fill="currentColor" stroke="currentColor" points="1.1257 -0.8496 1.1257 -0.4696 0.0500 0.1900 0.0500 -0.1900"/>
<polygon transform="translate(82.6048, 26.0584)" stroke-linejoin="round" stroke-linecap="round" stroke-width="0.1000" fill="currentColor" stroke="currentColor" points="3.5150 -2.1900 3.5150 -1.8100 0.0500 0.1900 0.0500 -0.1900"/>
<a style="color:inherit;" xlink:href="textedit:///Users/tatecarson/Documents/Supercollider%20/_OrgExamples/My%20Comps/Clarinet/notationGen/LY/cricket/cricket.1.ly:58:7:29">
<path transform="translate(114.2401, 20.5584)" stroke-width="0.0931" stroke-linejoin="round" stroke-linecap="round" stroke="currentColor" fill="currentColor" d="M0.899262759924397 5.75C2.17639347678876 6.70985623409224 10.575994144119 6.70985623409224 11.8531248609833 5.75C10.575994144119 6.57014194837796 2.17639347678876 6.57014194837796 0.899262759924397 5.75z"/>
</a>
<polygon transform="translate(141.5845, 21.7402)" stroke-linejoin="round" stroke-linecap="round" stroke-width="0.1000" fill="currentColor" stroke="currentColor" points="1.1257 0.3047 1.1257 0.6847 0.0500 0.1900 0.0500 -0.1900"/>
<polygon transform="translate(141.5845, 22.5584)" stroke-linejoin="round" stroke-linecap="round" stroke-width="0.1000" fill="currentColor" stroke="currentColor" points="3.5150 1.3100 3.5150 1.6900 0.0500 0.1900 0.0500 -0.1900"/>
<rect transform="translate(54.0397, 20.5584)" x="-0.0757" y="-2.0000" width="0.1514" height="3.3269" ry="0.0500" fill="currentColor"/>
<a style="color:inherit;" xlink:href="textedit:///Users/tatecarson/Documents/Supercollider%20/_OrgExamples/My%20Comps/Clarinet/notationGen/LY/cricket/cricket.1.ly:44:3:25">
<path transform="translate(52.8007, 22.0584) scale(0.0040, -0.0040)" d="M214 140c59 0 115 -32 115 -97c0 -72 -54 -121 -101 -149c-35 -21 -74 -34 -114 -34c-59 0 -114 32 -114 97c0 72 54 121 101 149c35 21 73 34 113 34z" fill="currentColor"/>
</a>
<path transform="translate(48.1991, 22.0584) scale(0.0040, -0.0040)" d="M87 -337c-12 0 -20 9 -20 21v116l-29 -17c-4 -2 -9 -4 -13 -4c-13 0 -25 11 -25 26v54c0 9 4 16 12 21l55 33v150l-29 -17c-4 -2 -9 -4 -13 -4c-13 0 -25 10 -25 25v54c0 9 4 17 12 22l55 32v141c0 12 8 21 20 21s21 -9 21 -21v-116l29 17c4 2 9 4 13 4
c13 0 25 -11 25 -26v-54c0 -9 -4 -16 -12 -21l-55 -33v-150l29 17c4 2 9 4 13 4c13 0 25 -10 25 -25v-54c0 -9 -4 -17 -12 -22l-55 -32v-141c0 -12 -9 -21 -21 -21z" fill="currentColor"/>
<path transform="translate(50.5637, 18.6084) scale(0.0040, -0.0040)" d="M0 0c0 -177 203 -291 203 -468c0 -33 -8 -65 -23 -95c18 -36 29 -75 29 -117c0 -63 -15 -125 -41 -182c-5 -9 -14 -13 -22 -13c-14 0 -29 12 -26 30c26 51 43 107 43 165c0 96 -93 189 -163 255v-75h-19v500h19zM150 -511c4 14 7 28 7 43c0 95 -90 189 -157 256
c0 -116 88 -203 150 -299z" fill="currentColor"/>
<rect transform="translate(50.4880, 20.5584)" x="-0.0757" y="-2.0000" width="0.1514" height="3.3269" ry="0.0500" fill="currentColor"/>
<a style="color:inherit;" xlink:href="textedit:///Users/tatecarson/Documents/Supercollider%20/_OrgExamples/My%20Comps/Clarinet/notationGen/LY/cricket/cricket.1.ly:43:3:25">
<path transform="translate(49.2491, 22.0584) scale(0.0040, -0.0040)" d="M214 140c59 0 115 -32 115 -97c0 -72 -54 -121 -101 -149c-35 -21 -74 -34 -114 -34c-59 0 -114 32 -114 97c0 72 54 121 101 149c35 21 73 34 113 34z" fill="currentColor"/>
</a>
<rect transform="translate(24.0871, 20.5584)" x="-0.0757" y="-2.5000" width="0.1514" height="3.3269" ry="0.0500" fill="currentColor"/>
<rect transform="translate(63.3473, 20.5584)" x="-0.0757" y="-2.0000" width="0.1514" height="3.3269" ry="0.0500" fill="currentColor"/>
<path transform="translate(64.7473, 22.0584) scale(0.0040, -0.0040)" d="M0 0c0 30 25 55 55 55s55 -25 55 -55s-25 -55 -55 -55s-55 25 -55 55z" fill="currentColor"/>
<path transform="translate(63.8644, 22.0584) scale(0.0040, -0.0040)" d="M0 0c0 30 25 55 55 55s55 -25 55 -55s-25 -55 -55 -55s-55 25 -55 55z" fill="currentColor"/>
<a style="color:inherit;" xlink:href="textedit:///Users/tatecarson/Documents/Supercollider%20/_OrgExamples/My%20Comps/Clarinet/notationGen/LY/cricket/cricket.1.ly:47:3:25">
<path transform="translate(62.1084, 22.0584) scale(0.0040, -0.0040)" d="M214 140c59 0 115 -32 115 -97c0 -72 -54 -121 -101 -149c-35 -21 -74 -34 -114 -34c-59 0 -114 32 -114 97c0 72 54 121 101 149c35 21 73 34 113 34z" fill="currentColor"/>
</a>
<path transform="translate(102.1933, 20.0584) scale(0.0040, -0.0040)" d="M198 -329c-12 0 -21 9 -21 21v138l-79 -30v-154c0 -12 -9 -21 -21 -21s-21 9 -21 21v138l-22 -8c-3 -1 -6 -2 -9 -2c-13 0 -25 11 -25 25v54c0 10 6 20 16 24l40 15v155l-22 -9c-3 -1 -6 -1 -9 -1c-13 0 -25 11 -25 25v54c0 10 6 19 16 23l40 15v154c0 12 9 21 21 21
s21 -9 21 -21v-138l79 30v154c0 12 9 21 21 21s21 -9 21 -21v-138l22 8c3 1 6 2 9 2c13 0 25 -11 25 -25v-54c0 -10 -6 -20 -16 -24l-40 -15v-155l22 9c3 1 6 1 9 1c13 0 25 -11 25 -25v-54c0 -10 -6 -19 -16 -23l-40 -15v-154c0 -12 -9 -21 -21 -21zM98 62v-154l79 30v154z
" fill="currentColor"/>
<path transform="translate(103.7947, 23.5084) scale(0.0040, -0.0040)" d="M0 205c90 51 210 130 210 231c0 23 -6 46 -14 67c-80 -86 -196 -157 -196 -278v-20zM270 661c0 -44 -16 -82 -39 -116c16 -35 25 -71 25 -109c0 -181 -256 -255 -256 -436h-19v500h19v-70c96 49 223 127 223 231c0 21 -5 40 -14 59c-3 18 11 30 25 30c31 0 36 -62 36 -89
z" fill="currentColor"/>
<rect transform="translate(103.7190, 20.5584)" x="-0.0757" y="-0.3269" width="0.1514" height="3.3269" ry="0.0500" fill="currentColor"/>
<a style="color:inherit;" xlink:href="textedit:///Users/tatecarson/Documents/Supercollider%20/_OrgExamples/My%20Comps/Clarinet/notationGen/LY/cricket/cricket.1.ly:56:3:25">
<path transform="translate(103.6433, 20.0584) scale(0.0040, -0.0040)" d="M214 140c59 0 115 -32 115 -97c0 -72 -54 -121 -101 -149c-35 -21 -74 -34 -114 -34c-59 0 -114 32 -114 97c0 72 54 121 101 149c35 21 73 34 113 34z" fill="currentColor"/>
</a>
<a style="color:inherit;" xlink:href="textedit:///Users/tatecarson/Documents/Supercollider%20/_OrgExamples/My%20Comps/Clarinet/notationGen/LY/cricket/cricket.1.ly:55:3:25">
<path transform="translate(99.5943, 20.5584) scale(0.0040, -0.0040)" d="M61 -500l101 326c-33 -12 -67 -22 -102 -22c-46 0 -87 34 -87 79c0 40 34 72 74 72c25 0 49 -14 57 -37c10 -27 3 -59 32 -59c16 0 51 50 56 66l47 151c-33 -12 -66 -22 -101 -22c-46 0 -87 34 -87 79c0 40 34 72 74 72c25 0 49 -14 57 -37c10 -27 3 -59 32 -59
c14 0 46 42 52 55c7 14 28 14 34 0l-175 -664c-9 -8 -21 -12 -32 -12s-23 4 -32 12z" fill="currentColor"/>
</a>
<rect transform="translate(126.8748, 20.5584)" x="-0.0757" y="-0.0000" width="0.1514" height="4.8269" ry="0.0500" fill="currentColor"/>
<a style="color:inherit;" xlink:href="textedit:///Users/tatecarson/Documents/Supercollider%20/_OrgExamples/My%20Comps/Clarinet/notationGen/LY/cricket/cricket.1.ly:61:3:25">
<path transform="translate(125.6359, 25.5584) scale(0.0040, -0.0040)" d="M214 140c59 0 115 -32 115 -97c0 -72 -54 -121 -101 -149c-35 -21 -74 -34 -114 -34c-59 0 -114 32 -114 97c0 72 54 121 101 149c35 21 73 34 113 34z" fill="currentColor"/>
</a>
<rect transform="translate(115.5629, 20.5584)" x="-0.0757" y="-0.0000" width="0.1514" height="4.7518" ry="0.0500" fill="currentColor"/>
<a style="color:inherit;" xlink:href="textedit:///Users/tatecarson/Documents/Supercollider%20/_OrgExamples/My%20Comps/Clarinet/notationGen/LY/cricket/cricket.1.ly:58:3:25">
<path transform="translate(114.2401, 25.5584) scale(0.0040, -0.0040)" d="M312 63c0 23 -20 40 -41 40c-4 0 -7 -1 -11 -2c-30 -8 -75 -38 -111 -61s-81 -52 -101 -76c-7 -8 -10 -17 -10 -27c0 -23 19 -40 40 -40c4 0 8 1 12 2c30 8 75 38 111 61s81 52 101 76c7 8 10 17 10 27zM258 140c51 0 92 -23 92 -78c0 -19 -4 -38 -10 -56
c-11 -38 -31 -75 -64 -97c-53 -36 -112 -49 -185 -49c-51 0 -91 23 -91 78c0 19 4 38 10 56c11 38 30 75 63 97c53 36 112 49 185 49z" fill="currentColor"/>
</a>
<rect transform="translate(107.1326, 20.5584)" x="-0.0757" y="-0.3269" width="0.1514" height="3.3269" ry="0.0500" fill="currentColor"/>
<a style="color:inherit;" xlink:href="textedit:///Users/tatecarson/Documents/Supercollider%20/_OrgExamples/My%20Comps/Clarinet/notationGen/LY/cricket/cricket.1.ly:57:3:25">
<path transform="translate(107.0569, 20.0584) scale(0.0040, -0.0040)" d="M214 140c59 0 115 -32 115 -97c0 -72 -54 -121 -101 -149c-35 -21 -74 -34 -114 -34c-59 0 -114 32 -114 97c0 72 54 121 101 149c35 21 73 34 113 34z" fill="currentColor"/>
</a>
<rect transform="translate(86.0942, 20.5584)" x="-0.0757" y="-3.3269" width="0.1514" height="6.8693" ry="0.0500" fill="currentColor"/>
<path transform="translate(87.7745, 17.0584) scale(0.0040, -0.0040)" d="M0 0c0 30 25 55 55 55s55 -25 55 -55s-25 -55 -55 -55s-55 25 -55 55z" fill="currentColor"/>
<a style="color:inherit;" xlink:href="textedit:///Users/tatecarson/Documents/Supercollider%20/_OrgExamples/My%20Comps/Clarinet/notationGen/LY/cricket/cricket.1.ly:51:3:25">
<path transform="translate(86.0185, 17.0584) scale(0.0040, -0.0040)" d="M214 140c59 0 115 -32 115 -97c0 -72 -54 -121 -101 -149c-35 -21 -74 -34 -114 -34c-59 0 -114 32 -114 97c0 72 54 121 101 149c35 21 73 34 113 34z" fill="currentColor"/>
</a>
<path transform="translate(81.4972, 23.0584) scale(0.0040, -0.0040)" d="M134 37c-1 33 -19 65 -50 65c-28 0 -42 -33 -42 -65c0 -57 46 -99 89 -137c3 21 5 42 5 64v11zM181 -140c0 -16 -11 -29 -26 -29c-24 0 -32 29 -49 44c-58 52 -141 91 -141 169c0 54 34 104 84 104c35 0 69 -14 94 -38l-8 340c9 5 20 8 30 8s21 -3 30 -8z" fill="currentColor"/>
<a style="color:inherit;" xlink:href="textedit:///Users/tatecarson/Documents/Supercollider%20/_OrgExamples/My%20Comps/Clarinet/notationGen/LY/cricket/cricket.1.ly:73:12:34">
<path transform="translate(186.8587, 20.5584)" stroke-width="0.0931" stroke-linejoin="round" stroke-linecap="round" stroke="currentColor" fill="currentColor" d="M1.7228469484202 -0.654646546126244C2.85160836714812 -1.57575481582671 8.62669674153148 -1.57575481582671 9.75545816025939 -0.654646546126244C8.62669674153148 -1.43604053011242 2.85160836714812 -1.43604053011242 1.7228469484202 -0.654646546126244z"/>
</a>
<path transform="translate(94.2330, 20.5084) scale(0.0040, -0.0040)" d="M0 0h-19v250h19c96 59 223 149 223 259c0 56 -15 111 -41 161c-3 18 11 30 25 30c8 0 17 -4 22 -13c25 -56 41 -116 41 -178c0 -204 -270 -305 -270 -509z" fill="currentColor"/>
<rect transform="translate(94.1573, 20.5584)" x="-0.0757" y="-3.3269" width="0.1514" height="3.3269" ry="0.0500" fill="currentColor"/>
<a style="color:inherit;" xlink:href="textedit:///Users/tatecarson/Documents/Supercollider%20/_OrgExamples/My%20Comps/Clarinet/notationGen/LY/cricket/cricket.1.ly:54:3:25">
<path transform="translate(94.0816, 17.0584) scale(0.0040, -0.0040)" d="M214 140c59 0 115 -32 115 -97c0 -72 -54 -121 -101 -149c-35 -21 -74 -34 -114 -34c-59 0 -114 32 -114 97c0 72 54 121 101 149c35 21 73 34 113 34z" fill="currentColor"/>
</a>
<path transform="translate(84.0685, 17.0584) scale(0.0040, -0.0040)" d="M210 -169h-20c-24 0 -32 29 -49 44c-58 52 -141 91 -141 169c0 54 34 104 84 104c35 0 69 -14 94 -38l-8 340c9 5 20 8 30 8s21 -3 30 -8l-8 -340c25 24 59 38 94 38c50 0 84 -50 84 -104c0 -78 -83 -117 -141 -169c-17 -15 -25 -44 -49 -44zM169 37c-1 33 -19 65 -50 65
c-28 0 -42 -33 -42 -65c0 -57 46 -99 89 -137c3 21 5 42 5 64v11zM231 37l-2 -62v-11c0 -22 2 -43 5 -64c43 38 89 80 89 137c0 32 -14 65 -42 65c-31 0 -49 -32 -50 -65z" fill="currentColor"/>
<rect transform="translate(152.9776, 20.5584)" x="-0.0757" y="-3.0000" width="0.1514" height="3.3269" ry="0.0500" fill="currentColor"/>
<a style="color:inherit;" xlink:href="textedit:///Users/tatecarson/Documents/Supercollider%20/_OrgExamples/My%20Comps/Clarinet/notationGen/LY/cricket/cricket.1.ly:65:3:25">
<path transform="translate(151.7386, 21.0584) scale(0.0040, -0.0040)" d="M214 140c59 0 115 -32 115 -97c0 -72 -54 -121 -101 -149c-35 -21 -74 -34 -114 -34c-59 0 -114 32 -114 97c0 72 54 121 101 149c35 21 73 34 113 34z" fill="currentColor"/>
</a>
<rect transform="translate(31.6988, 20.5584)" x="-0.0757" y="-2.5000" width="0.1514" height="3.3269" ry="0.0500" fill="currentColor"/>
<path transform="translate(143.8481, 21.0584) scale(0.0040, -0.0040)" d="M31 37l-2 -62v-11c0 -22 2 -43 5 -64c43 38 89 80 89 137c0 32 -14 65 -42 65c-31 0 -49 -32 -50 -65zM-16 -140l-14 590c9 5 20 8 30 8s21 -3 30 -8l-8 -340c25 24 59 38 94 38c50 0 84 -50 84 -104c0 -78 -83 -117 -141 -169c-17 -15 -25 -44 -49 -44
c-15 0 -26 13 -26 29z" fill="currentColor"/>
<rect transform="translate(145.0738, 20.5584)" x="-0.0757" y="0.6731" width="0.1514" height="2.7950" ry="0.0500" fill="currentColor"/>
<path transform="translate(146.7542, 21.0584) scale(0.0040, -0.0040)" d="M0 0c0 30 25 55 55 55s55 -25 55 -55s-25 -55 -55 -55s-55 25 -55 55z" fill="currentColor"/>
<a style="color:inherit;" xlink:href="textedit:///Users/tatecarson/Documents/Supercollider%20/_OrgExamples/My%20Comps/Clarinet/notationGen/LY/cricket/cricket.1.ly:64:3:25">
<path transform="translate(144.9981, 21.0584) scale(0.0040, -0.0040)" d="M214 140c59 0 115 -32 115 -97c0 -72 -54 -121 -101 -149c-35 -21 -74 -34 -114 -34c-59 0 -114 32 -114 97c0 72 54 121 101 149c35 21 73 34 113 34z" fill="currentColor"/>
</a>
<a style="color:inherit;" xlink:href="textedit:///Users/tatecarson/Documents/Supercollider%20/_OrgExamples/My%20Comps/Clarinet/notationGen/LY/cricket/cricket.1.ly:39:3:25">
<path transform="translate(30.4599, 21.5584) scale(0.0040, -0.0040)" d="M214 140c59 0 115 -32 115 -97c0 -72 -54 -121 -101 -149c-35 -21 -74 -34 -114 -34c-59 0 -114 32 -114 97c0 72 54 121 101 149c35 21 73 34 113 34z" fill="currentColor"/>
</a>
<path transform="translate(140.4769, 18.0584) scale(0.0040, -0.0040)" d="M134 37c-1 33 -19 65 -50 65c-28 0 -42 -33 -42 -65c0 -57 46 -99 89 -137c3 21 5 42 5 64v11zM181 -140c0 -16 -11 -29 -26 -29c-24 0 -32 29 -49 44c-58 52 -141 91 -141 169c0 54 34 104 84 104c35 0 69 -14 94 -38l-8 340c9 5 20 8 30 8s21 -3 30 -8z" fill="currentColor"/>
<a style="color:inherit;" xlink:href="textedit:///Users/tatecarson/Documents/Supercollider%20/_OrgExamples/My%20Comps/Clarinet/notationGen/LY/cricket/cricket.1.ly:67:3:25">
<path transform="translate(160.5503, 23.0584) scale(0.0040, -0.0040)" d="M214 140c59 0 115 -32 115 -97c0 -72 -54 -121 -101 -149c-35 -21 -74 -34 -114 -34c-59 0 -114 32 -114 97c0 72 54 121 101 149c35 21 73 34 113 34z" fill="currentColor"/>
</a>
<path transform="translate(31.7745, 18.1084) scale(0.0040, -0.0040)" d="M0 0c0 -177 203 -291 203 -468c0 -33 -8 -65 -23 -95c18 -36 29 -75 29 -117c0 -63 -15 -125 -41 -182c-5 -9 -14 -13 -22 -13c-14 0 -29 12 -26 30c26 51 43 107 43 165c0 96 -93 189 -163 255v-75h-19v500h19zM150 -511c4 14 7 28 7 43c0 95 -90 189 -157 256
c0 -116 88 -203 150 -299z" fill="currentColor"/>
<a style="color:inherit;" xlink:href="textedit:///Users/tatecarson/Documents/Supercollider%20/_OrgExamples/My%20Comps/Clarinet/notationGen/LY/cricket/cricket.1.ly:66:3:25">
<path transform="translate(157.2513, 20.5584) scale(0.0040, -0.0040)" d="M61 -500l101 326c-33 -12 -67 -22 -102 -22c-46 0 -87 34 -87 79c0 40 34 72 74 72c25 0 49 -14 57 -37c10 -27 3 -59 32 -59c16 0 51 50 56 66l47 151c-33 -12 -66 -22 -101 -22c-46 0 -87 34 -87 79c0 40 34 72 74 72c25 0 49 -14 57 -37c10 -27 3 -59 32 -59
c14 0 46 42 52 55c7 14 28 14 34 0l-175 -664c-9 -8 -21 -12 -32 -12s-23 4 -32 12z" fill="currentColor"/>
</a>
<path transform="translate(153.0533, 17.6084) scale(0.0040, -0.0040)" d="M0 0c0 -197 209 -334 209 -531c0 -71 -15 -140 -41 -206c-5 -9 -14 -13 -22 -13c-14 0 -29 12 -26 30c27 60 43 124 43 189c0 102 -93 206 -163 281h-19v250h19z" fill="currentColor"/>
<a style="color:inherit;" xlink:href="textedit:///Users/tatecarson/Documents/Supercollider%20/_OrgExamples/My%20Comps/Clarinet/notationGen/LY/cricket/cricket.1.ly:62:3:25">
<path transform="translate(133.4975, 23.0584) scale(0.0040, -0.0040)" d="M214 140c59 0 115 -32 115 -97c0 -72 -54 -121 -101 -149c-35 -21 -74 -34 -114 -34c-59 0 -114 32 -114 97c0 72 54 121 101 149c35 21 73 34 113 34z" fill="currentColor"/>
</a>
<rect transform="translate(134.7365, 20.5584)" x="-0.0757" y="-1.0000" width="0.1514" height="3.3269" ry="0.0500" fill="currentColor"/>
<rect transform="translate(141.6602, 20.5584)" x="-0.0757" y="-2.3269" width="0.1514" height="4.3587" ry="0.0500" fill="currentColor"/>
<a style="color:inherit;" xlink:href="textedit:///Users/tatecarson/Documents/Supercollider%20/_OrgExamples/My%20Comps/Clarinet/notationGen/LY/cricket/cricket.1.ly:63:3:25">
<path transform="translate(141.5845, 18.0584) scale(0.0040, -0.0040)" d="M214 140c59 0 115 -32 115 -97c0 -72 -54 -121 -101 -149c-35 -21 -74 -34 -114 -34c-59 0 -114 32 -114 97c0 72 54 121 101 149c35 21 73 34 113 34z" fill="currentColor"/>
</a>
<rect transform="translate(14.2264, 37.4489)" x="8.7501" y="-0.1082" width="1.9719" height="0.2164" ry="0.1082" fill="currentColor"/>
<rect transform="translate(14.2264, 36.4489)" x="8.7501" y="-0.1082" width="1.9719" height="0.2164" ry="0.1082" fill="currentColor"/>
<rect transform="translate(14.2264, 35.4489)" x="8.9038" y="-0.1082" width="1.8183" height="0.2164" ry="0.1082" fill="currentColor"/>
<rect transform="translate(14.2264, 37.4489)" x="15.1420" y="-0.1082" width="1.9719" height="0.2164" ry="0.1082" fill="currentColor"/>
<rect transform="translate(14.2264, 36.4489)" x="15.1420" y="-0.1082" width="1.9719" height="0.2164" ry="0.1082" fill="currentColor"/>
<rect transform="translate(14.2264, 35.4489)" x="15.1420" y="-0.1082" width="1.9719" height="0.2164" ry="0.1082" fill="currentColor"/>
<rect transform="translate(14.2264, 37.4489)" x="37.6153" y="-0.1082" width="1.8183" height="0.2164" ry="0.1082" fill="currentColor"/>
<rect transform="translate(14.2264, 43.4489)" x="52.2048" y="-0.1082" width="1.9719" height="0.2164" ry="0.1082" fill="currentColor"/>
<rect transform="translate(14.2264, 44.4489)" x="52.2048" y="-0.1082" width="1.9719" height="0.2164" ry="0.1082" fill="currentColor"/>
<rect transform="translate(14.2264, 45.4489)" x="52.2048" y="-0.1082" width="1.9719" height="0.2164" ry="0.1082" fill="currentColor"/>
<rect transform="translate(14.2264, 43.4489)" x="60.5608" y="-0.1082" width="1.9719" height="0.2164" ry="0.1082" fill="currentColor"/>
<rect transform="translate(14.2264, 44.4489)" x="60.5608" y="-0.1082" width="1.9719" height="0.2164" ry="0.1082" fill="currentColor"/>
<rect transform="translate(14.2264, 45.4489)" x="60.5608" y="-0.1082" width="1.9719" height="0.2164" ry="0.1082" fill="currentColor"/>
<rect transform="translate(14.2264, 37.4489)" x="146.8560" y="-0.1082" width="1.9719" height="0.2164" ry="0.1082" fill="currentColor"/>
<rect transform="translate(14.2264, 36.4489)" x="146.8560" y="-0.1082" width="1.9719" height="0.2164" ry="0.1082" fill="currentColor"/>
<rect transform="translate(14.2264, 35.4489)" x="147.0096" y="-0.1082" width="1.8183" height="0.2164" ry="0.1082" fill="currentColor"/>
<rect transform="translate(14.2264, 37.4489)" x="153.2478" y="-0.1082" width="1.9719" height="0.2164" ry="0.1082" fill="currentColor"/>
<rect transform="translate(14.2264, 36.4489)" x="153.2478" y="-0.1082" width="1.9719" height="0.2164" ry="0.1082" fill="currentColor"/>
<rect transform="translate(14.2264, 35.4489)" x="153.2478" y="-0.1082" width="1.9719" height="0.2164" ry="0.1082" fill="currentColor"/>
<line transform="translate(14.2264, 42.4489)" stroke-linejoin="round" stroke-linecap="round" stroke-width="0.1164" stroke="currentColor" x1="0.0582" y1="-0.0000" x2="182.7507" y2="-0.0000"/>
<line transform="translate(14.2264, 41.4489)" stroke-linejoin="round" stroke-linecap="round" stroke-width="0.1164" stroke="currentColor" x1="0.0582" y1="-0.0000" x2="182.7507" y2="-0.0000"/>
<line transform="translate(14.2264, 40.4489)" stroke-linejoin="round" stroke-linecap="round" stroke-width="0.1164" stroke="currentColor" x1="0.0582" y1="-0.0000" x2="182.7507" y2="-0.0000"/>
<line transform="translate(14.2264, 39.4489)" stroke-linejoin="round" stroke-linecap="round" stroke-width="0.1164" stroke="currentColor" x1="0.0582" y1="-0.0000" x2="182.7507" y2="-0.0000"/>
<line transform="translate(14.2264, 38.4489)" stroke-linejoin="round" stroke-linecap="round" stroke-width="0.1164" stroke="currentColor" x1="0.0582" y1="-0.0000" x2="182.7507" y2="-0.0000"/>
<rect transform="translate(88.7147, 40.4489)" x="0.0000" y="-2.0000" width="0.2212" height="4.0000" ry="0.0000" fill="currentColor"/>
<rect transform="translate(60.4238, 40.4489)" x="0.0000" y="-2.0000" width="0.2212" height="4.0000" ry="0.0000" fill="currentColor"/>
<rect transform="translate(196.8141, 40.4489)" x="0.0000" y="-2.0000" width="0.2212" height="4.0000" ry="0.0000" fill="currentColor"/>
<rect transform="translate(128.7704, 40.4489)" x="0.0000" y="-2.0000" width="0.2212" height="4.0000" ry="0.0000" fill="currentColor"/>
<rect transform="translate(156.6772, 40.4489)" x="0.0000" y="-2.0000" width="0.2212" height="4.0000" ry="0.0000" fill="currentColor"/>
<path transform="translate(108.3147, 39.4989) scale(0.0040, -0.0040)" d="M0 0c0 -177 203 -291 203 -468c0 -33 -8 -65 -23 -95c18 -36 29 -75 29 -117c0 -63 -15 -125 -41 -182c-5 -9 -14 -13 -22 -13c-14 0 -29 12 -26 30c26 51 43 107 43 165c0 96 -93 189 -163 255v-75h-19v500h19zM150 -511c4 14 7 28 7 43c0 95 -90 189 -157 256
c0 -116 88 -203 150 -299z" fill="currentColor"/>
<rect transform="translate(108.2390, 40.4489)" x="-0.0757" y="-1.0000" width="0.1514" height="3.3269" ry="0.0500" fill="currentColor"/>
<a style="color:inherit;" xlink:href="textedit:///Users/tatecarson/Documents/Supercollider%20/_OrgExamples/My%20Comps/Clarinet/notationGen/LY/cricket/cricket.1.ly:94:3:25">
<path transform="translate(107.0001, 42.9489) scale(0.0040, -0.0040)" d="M214 140c59 0 115 -32 115 -97c0 -72 -54 -121 -101 -149c-35 -21 -74 -34 -114 -34c-59 0 -114 32 -114 97c0 72 54 121 101 149c35 21 73 34 113 34z" fill="currentColor"/>
</a>
<path transform="translate(98.7495, 42.9489) scale(0.0040, -0.0040)" d="M-9 375c8 5 19 7 28 7s19 -2 27 -7l-3 -192l101 23h4c10 0 19 -8 19 -18l8 -563c-8 -5 -18 -7 -27 -7s-19 2 -27 7l3 192l-101 -23h-4c-10 0 -19 8 -19 18zM128 110l-87 -19l-3 -201l87 19z" fill="currentColor"/>
<rect transform="translate(101.0320, 40.4489)" x="-0.0757" y="-1.0000" width="0.1514" height="3.3269" ry="0.0500" fill="currentColor"/>
<a style="color:inherit;" xlink:href="textedit:///Users/tatecarson/Documents/Supercollider%20/_OrgExamples/My%20Comps/Clarinet/notationGen/LY/cricket/cricket.1.ly:93:3:25">
<path transform="translate(99.7931, 42.9489) scale(0.0040, -0.0040)" d="M214 140c59 0 115 -32 115 -97c0 -72 -54 -121 -101 -149c-35 -21 -74 -34 -114 -34c-59 0 -114 32 -114 97c0 72 54 121 101 149c35 21 73 34 113 34z" fill="currentColor"/>
</a>
<path transform="translate(95.0643, 39.9489) scale(0.0040, -0.0040)" d="M198 -329c-12 0 -21 9 -21 21v138l-79 -30v-154c0 -12 -9 -21 -21 -21s-21 9 -21 21v138l-22 -8c-3 -1 -6 -2 -9 -2c-13 0 -25 11 -25 25v54c0 10 6 20 16 24l40 15v155l-22 -9c-3 -1 -6 -1 -9 -1c-13 0 -25 11 -25 25v54c0 10 6 19 16 23l40 15v154c0 12 9 21 21 21
s21 -9 21 -21v-138l79 30v154c0 12 9 21 21 21s21 -9 21 -21v-138l22 8c3 1 6 2 9 2c13 0 25 -11 25 -25v-54c0 -10 -6 -20 -16 -24l-40 -15v-155l22 9c3 1 6 1 9 1c13 0 25 -11 25 -25v-54c0 -10 -6 -19 -16 -23l-40 -15v-154c0 -12 -9 -21 -21 -21zM98 62v-154l79 30v154z
" fill="currentColor"/>
<a style="color:inherit;" xlink:href="textedit:///Users/tatecarson/Documents/Supercollider%20/_OrgExamples/My%20Comps/Clarinet/notationGen/LY/cricket/cricket.1.ly:98:3:25">
<path transform="translate(125.4917, 39.9489) scale(0.0040, -0.0040)" d="M214 140c59 0 115 -32 115 -97c0 -72 -54 -121 -101 -149c-35 -21 -74 -34 -114 -34c-59 0 -114 32 -114 97c0 72 54 121 101 149c35 21 73 34 113 34z" fill="currentColor"/>
</a>
<path transform="translate(120.8559, 39.9489) scale(0.0040, -0.0040)" d="M0 0c0 30 25 55 55 55s55 -25 55 -55s-25 -55 -55 -55s-55 25 -55 55z" fill="currentColor"/>
<a style="color:inherit;" xlink:href="textedit:///Users/tatecarson/Documents/Supercollider%20/_OrgExamples/My%20Comps/Clarinet/notationGen/LY/cricket/cricket.1.ly:97:3:25">
<path transform="translate(119.4144, 40.4489) scale(0.0040, -0.0040)" d="M67 -250l118 326c-33 -12 -66 -22 -101 -22c-46 0 -87 34 -87 79c0 40 33 72 73 72c25 0 49 -14 57 -37c10 -27 4 -59 33 -59c14 0 50 42 56 55c7 14 28 14 34 0l-119 -414c-9 -8 -21 -12 -32 -12s-23 4 -32 12z" fill="currentColor"/>
</a>
<path transform="translate(113.0215, 40.9489) scale(0.0040, -0.0040)" d="M31 37l-2 -62v-11c0 -22 2 -43 5 -64c43 38 89 80 89 137c0 32 -14 65 -42 65c-31 0 -49 -32 -50 -65zM-16 -140l-14 590c9 5 20 8 30 8s21 -3 30 -8l-8 -340c25 24 59 38 94 38c50 0 84 -50 84 -104c0 -78 -83 -117 -141 -169c-17 -15 -25 -44 -49 -44
c-15 0 -26 13 -26 29z" fill="currentColor"/>
<path transform="translate(115.4862, 37.4989) scale(0.0040, -0.0040)" d="M0 0c0 -197 209 -334 209 -531c0 -71 -15 -140 -41 -206c-5 -9 -14 -13 -22 -13c-14 0 -29 12 -26 30c27 60 43 124 43 189c0 102 -93 206 -163 281h-19v250h19z" fill="currentColor"/>
<rect transform="translate(115.4105, 40.4489)" x="-0.0757" y="-3.0000" width="0.1514" height="3.3269" ry="0.0500" fill="currentColor"/>
<a style="color:inherit;" xlink:href="textedit:///Users/tatecarson/Documents/Supercollider%20/_OrgExamples/My%20Comps/Clarinet/notationGen/LY/cricket/cricket.1.ly:96:3:25">
<path transform="translate(114.1715, 40.9489) scale(0.0040, -0.0040)" d="M214 140c59 0 115 -32 115 -97c0 -72 -54 -121 -101 -149c-35 -21 -74 -34 -114 -34c-59 0 -114 32 -114 97c0 72 54 121 101 149c35 21 73 34 113 34z" fill="currentColor"/>
</a>
<a style="color:inherit;" xlink:href="textedit:///Users/tatecarson/Documents/Supercollider%20/_OrgExamples/My%20Comps/Clarinet/notationGen/LY/cricket/cricket.1.ly:95:3:25">
<path transform="translate(110.4169, 40.4489) scale(0.0040, -0.0040)" d="M61 -500l101 326c-33 -12 -67 -22 -102 -22c-46 0 -87 34 -87 79c0 40 34 72 74 72c25 0 49 -14 57 -37c10 -27 3 -59 32 -59c16 0 51 50 56 66l47 151c-33 -12 -66 -22 -101 -22c-46 0 -87 34 -87 79c0 40 34 72 74 72c25 0 49 -14 57 -37c10 -27 3 -59 32 -59
c14 0 46 42 52 55c7 14 28 14 34 0l-175 -664c-9 -8 -21 -12 -32 -12s-23 4 -32 12z" fill="currentColor"/>
</a>
<path transform="translate(82.3642, 42.9489) scale(0.0040, -0.0040)" d="M134 37c-1 33 -19 65 -50 65c-28 0 -42 -33 -42 -65c0 -57 46 -99 89 -137c3 21 5 42 5 64v11zM181 -140c0 -16 -11 -29 -26 -29c-24 0 -32 29 -49 44c-58 52 -141 91 -141 169c0 54 34 104 84 104c35 0 69 -14 94 -38l-8 340c9 5 20 8 30 8s21 -3 30 -8z" fill="currentColor"/>
<path transform="translate(84.7864, 39.4989) scale(0.0040, -0.0040)" d="M0 0c0 -197 209 -334 209 -531c0 -71 -15 -140 -41 -206c-5 -9 -14 -13 -22 -13c-14 0 -29 12 -26 30c27 60 43 124 43 189c0 102 -93 206 -163 281h-19v250h19z" fill="currentColor"/>
<rect transform="translate(84.7107, 40.4489)" x="-0.0757" y="-1.0000" width="0.1514" height="3.3269" ry="0.0500" fill="currentColor"/>
<a style="color:inherit;" xlink:href="textedit:///Users/tatecarson/Documents/Supercollider%20/_OrgExamples/My%20Comps/Clarinet/notationGen/LY/cricket/cricket.1.ly:88:3:25">
<path transform="translate(83.4718, 42.9489) scale(0.0040, -0.0040)" d="M214 140c59 0 115 -32 115 -97c0 -72 -54 -121 -101 -149c-35 -21 -74 -34 -114 -34c-59 0 -114 32 -114 97c0 72 54 121 101 149c35 21 73 34 113 34z" fill="currentColor"/>
</a>
<rect transform="translate(76.3547, 40.4489)" x="-0.0757" y="-0.0000" width="0.1514" height="4.8269" ry="0.0500" fill="currentColor"/>
<path transform="translate(76.8719, 44.9489) scale(0.0040, -0.0040)" d="M0 0c0 30 25 55 55 55s55 -25 55 -55s-25 -55 -55 -55s-55 25 -55 55z" fill="currentColor"/>
<a style="color:inherit;" xlink:href="textedit:///Users/tatecarson/Documents/Supercollider%20/_OrgExamples/My%20Comps/Clarinet/notationGen/LY/cricket/cricket.1.ly:87:9:31">
<path transform="translate(75.1158, 45.4489) scale(0.0040, -0.0040)" d="M214 140c59 0 115 -32 115 -97c0 -72 -54 -121 -101 -149c-35 -21 -74 -34 -114 -34c-59 0 -114 32 -114 97c0 72 54 121 101 149c35 21 73 34 113 34z" fill="currentColor"/>
</a>
<rect transform="translate(67.9987, 40.4489)" x="-0.0757" y="-0.0000" width="0.1514" height="4.8269" ry="0.0500" fill="currentColor"/>
<rect transform="translate(97.7532, 40.4489)" x="-0.0757" y="-3.4805" width="0.1514" height="2.8074" ry="0.0500" fill="currentColor"/>
<a style="color:inherit;" xlink:href="textedit:///Users/tatecarson/Documents/Supercollider%20/_OrgExamples/My%20Comps/Clarinet/notationGen/LY/cricket/cricket.1.ly:92:3:25">
<path transform="translate(96.5143, 39.9489) scale(0.0040, -0.0040)" d="M214 140c59 0 115 -32 115 -97c0 -72 -54 -121 -101 -149c-35 -21 -74 -34 -114 -34c-59 0 -114 32 -114 97c0 72 54 121 101 149c35 21 73 34 113 34z" fill="currentColor"/>
</a>
<rect transform="translate(91.3614, 40.4489)" x="-0.0757" y="-1.8377" width="0.1514" height="4.1645" ry="0.0500" fill="currentColor"/>
<path transform="translate(91.8785, 42.9489) scale(0.0040, -0.0040)" d="M0 0c0 30 25 55 55 55s55 -25 55 -55s-25 -55 -55 -55s-55 25 -55 55z" fill="currentColor"/>
<a style="color:inherit;" xlink:href="textedit:///Users/tatecarson/Documents/Supercollider%20/_OrgExamples/My%20Comps/Clarinet/notationGen/LY/cricket/cricket.1.ly:91:3:25">
<path transform="translate(90.1225, 42.9489) scale(0.0040, -0.0040)" d="M214 140c59 0 115 -32 115 -97c0 -72 -54 -121 -101 -149c-35 -21 -74 -34 -114 -34c-59 0 -114 32 -114 97c0 72 54 121 101 149c35 21 73 34 113 34z" fill="currentColor"/>
</a>
<polygon transform="translate(158.1323, 43.6307)" stroke-linejoin="round" stroke-linecap="round" stroke-width="0.1000" fill="currentColor" stroke="currentColor" points="1.1257 -0.8132 1.1257 -0.4332 0.0500 0.1900 0.0500 -0.1900"/>
<polygon transform="translate(158.1323, 44.4489)" stroke-linejoin="round" stroke-linecap="round" stroke-width="0.1000" fill="currentColor" stroke="currentColor" points="3.3801 -2.0082 3.3801 -1.6282 0.0500 0.1900 0.0500 -0.1900"/>
<a style="color:inherit;" xlink:href="textedit:///Users/tatecarson/Documents/Supercollider%20/_OrgExamples/My%20Comps/Clarinet/notationGen/LY/cricket/cricket.1.ly:110:10:32">
<path transform="translate(176.7580, 40.4489)" stroke-width="0.0931" stroke-linejoin="round" stroke-linecap="round" stroke="currentColor" fill="currentColor" d="M1.51461625708885 -0.251022958245922C1.91753061314432 -0.757422249651394 2.6758440727545 -0.757422249651394 3.07875842880998 -0.251022958245922C2.6758440727545 -0.617707963937108 1.91753061314432 -0.617707963937108 1.51461625708885 -0.251022958245922z"/>
</a>
<a style="color:inherit;" xlink:href="textedit:///Users/tatecarson/Documents/Supercollider%20/_OrgExamples/My%20Comps/Clarinet/notationGen/LY/cricket/cricket.1.ly:108:3:25">
<path transform="translate(161.4110, 35.4489) scale(0.0040, -0.0040)" d="M214 140c59 0 115 -32 115 -97c0 -72 -54 -121 -101 -149c-35 -21 -74 -34 -114 -34c-59 0 -114 32 -114 97c0 72 54 121 101 149c35 21 73 34 113 34z" fill="currentColor"/>
</a>
<rect transform="translate(158.2079, 40.4489)" x="-0.0757" y="1.1731" width="0.1514" height="2.7867" ry="0.0500" fill="currentColor"/>
<a style="color:inherit;" xlink:href="textedit:///Users/tatecarson/Documents/Supercollider%20/_OrgExamples/My%20Comps/Clarinet/notationGen/LY/cricket/cricket.1.ly:107:3:25">
<path transform="translate(158.1323, 41.4489) scale(0.0040, -0.0040)" d="M214 140c59 0 115 -32 115 -97c0 -72 -54 -121 -101 -149c-35 -21 -74 -34 -114 -34c-59 0 -114 32 -114 97c0 72 54 121 101 149c35 21 73 34 113 34z" fill="currentColor"/>
</a>
<a style="color:inherit;" xlink:href="textedit:///Users/tatecarson/Documents/Supercollider%20/_OrgExamples/My%20Comps/Clarinet/notationGen/LY/cricket/cricket.1.ly:77:13:35">
<path transform="translate(23.3051, 40.4489)" stroke-width="0.0931" stroke-linejoin="round" stroke-linecap="round" stroke="currentColor" fill="currentColor" d="M0.857308128544423 -6.0C1.84023525765704 -6.87323601065761 5.86623111650474 -6.87323601065761 6.84915824561736 -6.0C5.86623111650474 -6.73352172494332 1.84023525765704 -6.73352172494332 0.857308128544423 -6.0z"/>
</a>
<polygon transform="translate(20.0264, 43.1307)" stroke-linejoin="round" stroke-linecap="round" stroke-width="0.1000" fill="currentColor" stroke="currentColor" points="1.1257 -0.7664 1.1257 -0.3864 0.0500 0.1900 0.0500 -0.1900"/>
<polygon transform="translate(20.0264, 43.9489)" stroke-linejoin="round" stroke-linecap="round" stroke-width="0.1000" fill="currentColor" stroke="currentColor" points="3.3801 -1.8718 3.3801 -1.4918 0.0500 0.1900 0.0500 -0.1900"/>
<a style="color:inherit;" xlink:href="textedit:///Users/tatecarson/Documents/Supercollider%20/_OrgExamples/My%20Comps/Clarinet/notationGen/LY/cricket/cricket.1.ly:79:11:33">
<path transform="translate(38.3668, 40.4489)" stroke-width="0.0931" stroke-linejoin="round" stroke-linecap="round" stroke="currentColor" fill="currentColor" d="M1.51461625708885 -0.251022958245922C1.91753061314433 -0.757422249651391 2.67584407275448 -0.757422249651391 3.07875842880996 -0.251022958245922C2.67584407275448 -0.617707963937105 1.91753061314433 -0.617707963937105 1.51461625708885 -0.251022958245922z"/>
</a>
<polygon transform="translate(34.6899, 43.4489)" stroke-linejoin="round" stroke-linecap="round" stroke-width="0.1000" fill="currentColor" stroke="currentColor" points="3.7782 -0.1900 3.7782 0.1900 0.0500 0.1900 0.0500 -0.1900"/>
<polygon transform="translate(29.6970, 44.2671)" stroke-linejoin="round" stroke-linecap="round" stroke-width="0.1000" fill="currentColor" stroke="currentColor" points="8.7711 -0.1900 8.7711 0.1900 0.0500 0.1900 0.0500 -0.1900"/>
<a style="color:inherit;" xlink:href="textedit:///Users/tatecarson/Documents/Supercollider%20/_OrgExamples/My%20Comps/Clarinet/notationGen/LY/cricket/cricket.1.ly:87:7:29">
<path transform="translate(66.7598, 40.4489)" stroke-width="0.0931" stroke-linejoin="round" stroke-linecap="round" stroke="currentColor" fill="currentColor" d="M0.857308128544432 5.75C1.98135399215967 6.6697280532585 7.68925455372325 6.6697280532585 8.81330041733848 5.75C7.68925455372325 6.53001376754421 1.98135399215967 6.53001376754421 0.857308128544432 5.75z"/>
</a>
<a style="color:inherit;" xlink:href="textedit:///Users/tatecarson/Documents/Supercollider%20/_OrgExamples/My%20Comps/Clarinet/notationGen/LY/cricket/cricket.1.ly:88:10:32">
<path transform="translate(83.4718, 40.4489)" stroke-width="0.0931" stroke-linejoin="round" stroke-linecap="round" stroke="currentColor" fill="currentColor" d="M1.51461625708885 3.0C2.40111570385373 3.83461524314354 5.56416875387589 3.83461524314354 6.45066820064078 3.0C5.56416875387589 3.69490095742925 2.40111570385373 3.69490095742925 1.51461625708885 3.0z"/>
</a>
<polygon transform="translate(91.2857, 38.6307)" stroke-linejoin="round" stroke-linecap="round" stroke-width="0.1000" fill="currentColor" stroke="currentColor" points="6.4932 -1.8718 6.4932 -1.4918 0.0500 0.1900 0.0500 -0.1900"/>
<polygon transform="translate(96.6532, 38.0693)" stroke-linejoin="round" stroke-linecap="round" stroke-width="0.1000" fill="currentColor" stroke="currentColor" points="1.1257 -0.4922 1.1257 -0.1122 0.0500 0.1900 0.0500 -0.1900"/>
<a style="color:inherit;" xlink:href="textedit:///Users/tatecarson/Documents/Supercollider%20/_OrgExamples/My%20Comps/Clarinet/notationGen/LY/cricket/cricket.1.ly:93:7:29">
<path transform="translate(99.7931, 40.4489)" stroke-width="0.0931" stroke-linejoin="round" stroke-linecap="round" stroke="currentColor" fill="currentColor" d="M1.51461625708885 3.0C2.45410071876846 3.85661624881865 6.06755831057257 3.85661624881865 7.00704277225218 3.0C6.06755831057257 3.71690196310436 2.45410071876846 3.71690196310436 1.51461625708885 3.0z"/>
</a>
<a style="color:inherit;" xlink:href="textedit:///Users/tatecarson/Documents/Supercollider%20/_OrgExamples/My%20Comps/Clarinet/notationGen/LY/cricket/cricket.1.ly:98:11:33">
<path transform="translate(125.4917, 40.4489)" stroke-width="0.0931" stroke-linejoin="round" stroke-linecap="round" stroke="currentColor" fill="currentColor" d="M0.857308128544432 -1.21451890321889C1.69377084722677 -2.02642562080924 4.47800285475077 -2.02642562080924 5.31446557343311 -1.21451890321889C4.47800285475077 -1.88671133509495 1.69377084722677 -1.88671133509495 0.857308128544432 -1.21451890321889z"/>
</a>
<a style="color:inherit;" xlink:href="textedit:///Users/tatecarson/Documents/Supercollider%20/_OrgExamples/My%20Comps/Clarinet/notationGen/LY/cricket/cricket.1.ly:101:10:32">
<path transform="translate(130.3069, 40.4489)" stroke-width="0.0931" stroke-linejoin="round" stroke-linecap="round" stroke="currentColor" fill="currentColor" d="M0.899262759924383 -1.64768989201032C2.07331959608696 -2.58155658663626 8.53834549911507 -2.58155658663626 9.71240233527764 -1.64768989201032C8.53834549911507 -2.44184230092198 2.07331959608696 -2.44184230092198 0.899262759924383 -1.64768989201032z"/>
</a>
<a style="color:inherit;" xlink:href="textedit:///Users/tatecarson/Documents/Supercollider%20/_OrgExamples/My%20Comps/Clarinet/notationGen/LY/cricket/cricket.1.ly:103:11:33">
<path transform="translate(145.9538, 40.4489)" stroke-width="0.0931" stroke-linejoin="round" stroke-linecap="round" stroke="currentColor" fill="currentColor" d="M1.51461625708885 2.0C1.91753061314432 2.50639929140547 2.6758440727545 2.50639929140547 3.07875842880998 2.0C2.6758440727545 2.36668500569119 1.91753061314432 2.36668500569119 1.51461625708885 2.0z"/>
</a>
<polygon transform="translate(140.7252, 37.2671)" stroke-linejoin="round" stroke-linecap="round" stroke-width="0.1000" fill="currentColor" stroke="currentColor" points="6.4932 0.9918 6.4932 1.3718 0.0500 0.1900 0.0500 -0.1900"/>
<polygon transform="translate(146.0928, 39.0548)" stroke-linejoin="round" stroke-linecap="round" stroke-width="0.1000" fill="currentColor" stroke="currentColor" points="1.1257 0.0223 1.1257 0.4023 0.0500 0.1900 0.0500 -0.1900"/>
<a style="color:inherit;" xlink:href="textedit:///Users/tatecarson/Documents/Supercollider%20/_OrgExamples/My%20Comps/Clarinet/notationGen/LY/cricket/cricket.1.ly:108:13:35">
<path transform="translate(161.4110, 40.4489)" stroke-width="0.0931" stroke-linejoin="round" stroke-linecap="round" stroke="currentColor" fill="currentColor" d="M0.857308128544418 -6.0C1.84023525765704 -6.87323601065761 5.86623111650476 -6.87323601065761 6.84915824561739 -6.0C5.86623111650476 -6.73352172494332 1.84023525765704 -6.73352172494332 0.857308128544418 -6.0z"/>
</a>
<a style="color:inherit;" xlink:href="textedit:///Users/tatecarson/Documents/Supercollider%20/_OrgExamples/My%20Comps/Clarinet/notationGen/LY/cricket/cricket.1.ly:102:3:25">
<path transform="translate(139.5620, 39.9489) scale(0.0040, -0.0040)" d="M214 140c59 0 115 -32 115 -97c0 -72 -54 -121 -101 -149c-35 -21 -74 -34 -114 -34c-59 0 -114 32 -114 97c0 72 54 121 101 149c35 21 73 34 113 34z" fill="currentColor"/>
</a>
<rect transform="translate(130.3826, 40.4489)" x="-0.0757" y="-0.2518" width="0.1514" height="3.2518" ry="0.0500" fill="currentColor"/>
<a style="color:inherit;" xlink:href="textedit:///Users/tatecarson/Documents/Supercollider%20/_OrgExamples/My%20Comps/Clarinet/notationGen/LY/cricket/cricket.1.ly:101:3:25">
<path transform="translate(130.3069, 39.9489) scale(0.0040, -0.0040)" d="M312 63c0 23 -20 40 -41 40c-4 0 -7 -1 -11 -2c-30 -8 -75 -38 -111 -61s-81 -52 -101 -76c-7 -8 -10 -17 -10 -27c0 -23 19 -40 40 -40c4 0 8 1 12 2c30 8 75 38 111 61s81 52 101 76c7 8 10 17 10 27zM258 140c51 0 92 -23 92 -78c0 -19 -4 -38 -10 -56
c-11 -38 -31 -75 -64 -97c-53 -36 -112 -49 -185 -49c-51 0 -91 23 -91 78c0 19 4 38 10 56c11 38 30 75 63 97c53 36 112 49 185 49z" fill="currentColor"/>
</a>
<path transform="translate(125.6430, 43.3989) scale(0.0040, -0.0040)" d="M0 205c90 51 210 130 210 231c0 23 -6 46 -14 67c-80 -86 -196 -157 -196 -278v-20zM270 661c0 -44 -16 -82 -39 -116c16 -35 25 -71 25 -109c0 -181 -256 -255 -256 -436h-19v500h19v-70c96 49 223 127 223 231c0 21 -5 40 -14 59c-3 18 11 30 25 30c31 0 36 -62 36 -89
z" fill="currentColor"/>
<rect transform="translate(125.5673, 40.4489)" x="-0.0757" y="-0.3269" width="0.1514" height="3.3269" ry="0.0500" fill="currentColor"/>
<rect transform="translate(150.4715, 40.4489)" x="-0.0757" y="-2.0000" width="0.1514" height="3.3269" ry="0.0500" fill="currentColor"/>
<a style="color:inherit;" xlink:href="textedit:///Users/tatecarson/Documents/Supercollider%20/_OrgExamples/My%20Comps/Clarinet/notationGen/LY/cricket/cricket.1.ly:104:3:25">
<path transform="translate(149.2326, 41.9489) scale(0.0040, -0.0040)" d="M214 140c59 0 115 -32 115 -97c0 -72 -54 -121 -101 -149c-35 -21 -74 -34 -114 -34c-59 0 -114 32 -114 97c0 72 54 121 101 149c35 21 73 34 113 34z" fill="currentColor"/>
</a>
<path transform="translate(144.9038, 41.9489) scale(0.0040, -0.0040)" d="M87 -337c-12 0 -20 9 -20 21v116l-29 -17c-4 -2 -9 -4 -13 -4c-13 0 -25 11 -25 26v54c0 9 4 16 12 21l55 33v150l-29 -17c-4 -2 -9 -4 -13 -4c-13 0 -25 10 -25 25v54c0 9 4 17 12 22l55 32v141c0 12 8 21 20 21s21 -9 21 -21v-116l29 17c4 2 9 4 13 4
c13 0 25 -11 25 -26v-54c0 -9 -4 -16 -12 -21l-55 -33v-150l29 17c4 2 9 4 13 4c13 0 25 -10 25 -25v-54c0 -9 -4 -17 -12 -22l-55 -32v-141c0 -12 -9 -21 -21 -21z" fill="currentColor"/>
<rect transform="translate(147.1928, 40.4489)" x="-0.0757" y="-2.0137" width="0.1514" height="3.3405" ry="0.0500" fill="currentColor"/>
<a style="color:inherit;" xlink:href="textedit:///Users/tatecarson/Documents/Supercollider%20/_OrgExamples/My%20Comps/Clarinet/notationGen/LY/cricket/cricket.1.ly:103:3:25">
<path transform="translate(145.9538, 41.9489) scale(0.0040, -0.0040)" d="M214 140c59 0 115 -32 115 -97c0 -72 -54 -121 -101 -149c-35 -21 -74 -34 -114 -34c-59 0 -114 32 -114 97c0 72 54 121 101 149c35 21 73 34 113 34z" fill="currentColor"/>
</a>
<rect transform="translate(140.8009, 40.4489)" x="-0.0757" y="-3.1681" width="0.1514" height="2.4950" ry="0.0500" fill="currentColor"/>
<path transform="translate(141.3180, 39.9489) scale(0.0040, -0.0040)" d="M0 0c0 30 25 55 55 55s55 -25 55 -55s-25 -55 -55 -55s-55 25 -55 55z" fill="currentColor"/>
<path transform="translate(188.2852, 42.9489) scale(0.0040, -0.0040)" d="M134 37c-1 33 -19 65 -50 65c-28 0 -42 -33 -42 -65c0 -57 46 -99 89 -137c3 21 5 42 5 64v11zM181 -140c0 -16 -11 -29 -26 -29c-24 0 -32 29 -49 44c-58 52 -141 91 -141 169c0 54 34 104 84 104c35 0 69 -14 94 -38l-8 340c9 5 20 8 30 8s21 -3 30 -8z" fill="currentColor"/>
<rect transform="translate(190.6317, 40.4489)" x="-0.0757" y="-1.0000" width="0.1514" height="3.3269" ry="0.0500" fill="currentColor"/>
<a style="color:inherit;" xlink:href="textedit:///Users/tatecarson/Documents/Supercollider%20/_OrgExamples/My%20Comps/Clarinet/notationGen/LY/cricket/cricket.1.ly:112:3:25">
<path transform="translate(189.3928, 42.9489) scale(0.0040, -0.0040)" d="M214 140c59 0 115 -32 115 -97c0 -72 -54 -121 -101 -149c-35 -21 -74 -34 -114 -34c-59 0 -114 32 -114 97c0 72 54 121 101 149c35 21 73 34 113 34z" fill="currentColor"/>
</a>
<path transform="translate(184.7570, 39.9489) scale(0.0040, -0.0040)" d="M0 0c0 30 25 55 55 55s55 -25 55 -55s-25 -55 -55 -55s-55 25 -55 55z" fill="currentColor"/>
<a style="color:inherit;" xlink:href="textedit:///Users/tatecarson/Documents/Supercollider%20/_OrgExamples/My%20Comps/Clarinet/notationGen/LY/cricket/cricket.1.ly:111:3:25">
<path transform="translate(183.3156, 40.4489) scale(0.0040, -0.0040)" d="M67 -250l118 326c-33 -12 -66 -22 -101 -22c-46 0 -87 34 -87 79c0 40 33 72 73 72c25 0 49 -14 57 -37c10 -27 4 -59 33 -59c14 0 50 42 56 55c7 14 28 14 34 0l-119 -414c-9 -8 -21 -12 -32 -12s-23 4 -32 12z" fill="currentColor"/>
</a>
<path transform="translate(180.1882, 43.7739) scale(0.0040, -0.0040)" d="M0 205c90 51 210 130 210 231c0 23 -6 46 -14 67c-80 -86 -196 -157 -196 -278v-20zM270 661c0 -44 -16 -82 -39 -116c16 -35 25 -71 25 -109c0 -181 -256 -255 -256 -436h-19v500h19v-70c96 49 223 127 223 231c0 21 -5 40 -14 59c-3 18 11 30 25 30c31 0 36 -62 36 -89
z" fill="currentColor"/>
<rect transform="translate(180.1125, 40.4489)" x="-0.0757" y="0.1731" width="0.1514" height="3.2019" ry="0.0500" fill="currentColor"/>
<a style="color:inherit;" xlink:href="textedit:///Users/tatecarson/Documents/Supercollider%20/_OrgExamples/My%20Comps/Clarinet/notationGen/LY/cricket/cricket.1.ly:110:12:34">
<path transform="translate(180.0368, 40.4489) scale(0.0040, -0.0040)" d="M214 140c59 0 115 -32 115 -97c0 -72 -54 -121 -101 -149c-35 -21 -74 -34 -114 -34c-59 0 -114 32 -114 97c0 72 54 121 101 149c35 21 73 34 113 34z" fill="currentColor"/>
</a>
<rect transform="translate(23.3808, 40.4489)" x="-0.0757" y="-4.8269" width="0.1514" height="6.6822" ry="0.0500" fill="currentColor"/>
<path transform="translate(25.0612, 34.9489) scale(0.0040, -0.0040)" d="M0 0c0 30 25 55 55 55s55 -25 55 -55s-25 -55 -55 -55s-55 25 -55 55z" fill="currentColor"/>
<a style="color:inherit;" xlink:href="textedit:///Users/tatecarson/Documents/Supercollider%20/_OrgExamples/My%20Comps/Clarinet/notationGen/LY/cricket/cricket.1.ly:77:3:25">
<path transform="translate(23.3051, 35.4489) scale(0.0040, -0.0040)" d="M214 140c59 0 115 -32 115 -97c0 -72 -54 -121 -101 -149c-35 -21 -74 -34 -114 -34c-59 0 -114 32 -114 97c0 72 54 121 101 149c35 21 73 34 113 34z" fill="currentColor"/>
</a>
<path transform="translate(18.9188, 40.9489) scale(0.0040, -0.0040)" d="M134 37c-1 33 -19 65 -50 65c-28 0 -42 -33 -42 -65c0 -57 46 -99 89 -137c3 21 5 42 5 64v11zM181 -140c0 -16 -11 -29 -26 -29c-24 0 -32 29 -49 44c-58 52 -141 91 -141 169c0 54 34 104 84 104c35 0 69 -14 94 -38l-8 340c9 5 20 8 30 8s21 -3 30 -8z" fill="currentColor"/>
<rect transform="translate(20.1021, 40.4489)" x="-0.0757" y="0.6731" width="0.1514" height="2.7897" ry="0.0500" fill="currentColor"/>
<a style="color:inherit;" xlink:href="textedit:///Users/tatecarson/Documents/Supercollider%20/_OrgExamples/My%20Comps/Clarinet/notationGen/LY/cricket/cricket.1.ly:76:3:25">
<path transform="translate(20.0264, 40.9489) scale(0.0040, -0.0040)" d="M214 140c59 0 115 -32 115 -97c0 -72 -54 -121 -101 -149c-35 -21 -74 -34 -114 -34c-59 0 -114 32 -114 97c0 72 54 121 101 149c35 21 73 34 113 34z" fill="currentColor"/>
</a>
<rect transform="translate(161.4867, 40.4489)" x="-0.0757" y="-4.8269" width="0.1514" height="7.0488" ry="0.0500" fill="currentColor"/>
<path transform="translate(163.1671, 34.9489) scale(0.0040, -0.0040)" d="M0 0c0 30 25 55 55 55s55 -25 55 -55s-25 -55 -55 -55s-55 25 -55 55z" fill="currentColor"/>
<path transform="translate(15.0264, 41.4489) scale(0.0040, -0.0040)" d="M379 264c3 0 7 1 10 1c157 0 258 -129 258 -263c0 -77 -33 -155 -108 -211c-22 -16 -46 -29 -72 -37c3 -33 4 -66 4 -99c0 -21 0 -41 -1 -62c-7 -121 -91 -229 -211 -229c-108 0 -196 88 -196 197c0 58 54 103 113 103c54 0 95 -47 95 -103c0 -52 -43 -95 -95 -95
c-9 0 -18 1 -27 4c25 -37 66 -61 113 -61c95 0 156 93 162 191c1 19 2 38 2 57c0 29 -1 58 -3 87c-29 -5 -58 -8 -88 -8c-189 0 -333 173 -333 376c0 177 129 308 244 443c-20 62 -40 124 -48 189c-7 52 -7 105 -7 158c0 114 54 221 147 288c4 3 8 4 12 4c5 0 9 -2 13 -5
c72 -83 135 -243 135 -356c0 -142 -84 -255 -176 -364c21 -68 40 -136 57 -205zM463 -201c65 24 110 94 110 161c0 88 -64 175 -167 188c24 -114 44 -227 57 -349zM77 25c0 -133 128 -243 261 -243c27 0 55 1 81 5c-13 126 -35 244 -60 362c-79 -8 -124 -60 -124 -118
c0 -43 25 -88 80 -120c5 -5 7 -11 7 -17c0 -12 -10 -23 -23 -23c-3 0 -7 1 -10 2c-81 43 -118 115 -118 186c0 89 60 177 163 200c-14 57 -30 113 -47 169c-105 -122 -210 -243 -210 -403zM403 1038c-99 -46 -161 -145 -161 -254c0 -71 21 -130 39 -188
c78 97 142 199 142 324c0 51 -4 72 -20 118z" fill="currentColor"/>
<text transform="translate(13.2448, 37.3563)" font-family="Century Schoolbook L" font-size="1.7463" text-anchor="start" fill="currentColor">
<tspan>
6</tspan>
</text>
<a style="color:inherit;" xlink:href="textedit:///Users/tatecarson/Documents/Supercollider%20/_OrgExamples/My%20Comps/Clarinet/notationGen/LY/cricket/cricket.1.ly:73:12:34">
<path transform="translate(14.2264, 40.4489)" stroke-width="0.0931" stroke-linejoin="round" stroke-linecap="round" stroke="currentColor" fill="currentColor" d="M3.56501827347196 -0.225C3.79025694021737 -0.54342709844581 4.12663455316638 -0.54342709844581 4.35187321991178 -0.225C4.12663455316638 -0.403712812731524 3.79025694021737 -0.403712812731524 3.56501827347196 -0.225z"/>
</a>
<path transform="translate(175.6504, 40.4489) scale(0.0040, -0.0040)" d="M134 37c-1 33 -19 65 -50 65c-28 0 -42 -33 -42 -65c0 -57 46 -99 89 -137c3 21 5 42 5 64v11zM181 -140c0 -16 -11 -29 -26 -29c-24 0 -32 29 -49 44c-58 52 -141 91 -141 169c0 54 34 104 84 104c35 0 69 -14 94 -38l-8 340c9 5 20 8 30 8s21 -3 30 -8z" fill="currentColor"/>
<path transform="translate(176.9094, 43.7739) scale(0.0040, -0.0040)" d="M0 205c90 51 210 130 210 231c0 23 -6 46 -14 67c-80 -86 -196 -157 -196 -278v-20zM270 661c0 -44 -16 -82 -39 -116c16 -35 25 -71 25 -109c0 -181 -256 -255 -256 -436h-19v500h19v-70c96 49 223 127 223 231c0 21 -5 40 -14 59c-3 18 11 30 25 30c31 0 36 -62 36 -89
z" fill="currentColor"/>
<rect transform="translate(176.8337, 40.4489)" x="-0.0757" y="0.1731" width="0.1514" height="3.2019" ry="0.0500" fill="currentColor"/>
<a style="color:inherit;" xlink:href="textedit:///Users/tatecarson/Documents/Supercollider%20/_OrgExamples/My%20Comps/Clarinet/notationGen/LY/cricket/cricket.1.ly:110:3:25">
<path transform="translate(176.7580, 40.4489) scale(0.0040, -0.0040)" d="M214 140c59 0 115 -32 115 -97c0 -72 -54 -121 -101 -149c-35 -21 -74 -34 -114 -34c-59 0 -114 32 -114 97c0 72 54 121 101 149c35 21 73 34 113 34z" fill="currentColor"/>
</a>
<a style="color:inherit;" xlink:href="textedit:///Users/tatecarson/Documents/Supercollider%20/_OrgExamples/My%20Comps/Clarinet/notationGen/LY/cricket/cricket.1.ly:109:3:25">
<path transform="translate(173.0458, 40.4489) scale(0.0040, -0.0040)" d="M61 -500l101 326c-33 -12 -67 -22 -102 -22c-46 0 -87 34 -87 79c0 40 34 72 74 72c25 0 49 -14 57 -37c10 -27 3 -59 32 -59c16 0 51 50 56 66l47 151c-33 -12 -66 -22 -101 -22c-46 0 -87 34 -87 79c0 40 34 72 74 72c25 0 49 -14 57 -37c10 -27 3 -59 32 -59
c14 0 46 42 52 55c7 14 28 14 34 0l-175 -664c-9 -8 -21 -12 -32 -12s-23 4 -32 12z" fill="currentColor"/>
</a>
<path transform="translate(167.9542, 40.3989) scale(0.0040, -0.0040)" d="M0 0h-19v250h19c96 59 223 149 223 259c0 56 -15 111 -41 161c-3 18 11 30 25 30c8 0 17 -4 22 -13c25 -56 41 -116 41 -178c0 -204 -270 -305 -270 -509z" fill="currentColor"/>
<rect transform="translate(167.8786, 40.4489)" x="-0.0757" y="-4.8269" width="0.1514" height="4.8269" ry="0.0500" fill="currentColor"/>
<a style="color:inherit;" xlink:href="textedit:///Users/tatecarson/Documents/Supercollider%20/_OrgExamples/My%20Comps/Clarinet/notationGen/LY/cricket/cricket.1.ly:108:15:37">
<path transform="translate(167.8029, 35.4489) scale(0.0040, -0.0040)" d="M214 140c59 0 115 -32 115 -97c0 -72 -54 -121 -101 -149c-35 -21 -74 -34 -114 -34c-59 0 -114 32 -114 97c0 72 54 121 101 149c35 21 73 34 113 34z" fill="currentColor"/>
</a>
<path transform="translate(159.4610, 35.4489) scale(0.0040, -0.0040)" d="M210 -169h-20c-24 0 -32 29 -49 44c-58 52 -141 91 -141 169c0 54 34 104 84 104c35 0 69 -14 94 -38l-8 340c9 5 20 8 30 8s21 -3 30 -8l-8 -340c25 24 59 38 94 38c50 0 84 -50 84 -104c0 -78 -83 -117 -141 -169c-17 -15 -25 -44 -49 -44zM169 37c-1 33 -19 65 -50 65
c-28 0 -42 -33 -42 -65c0 -57 46 -99 89 -137c3 21 5 42 5 64v11zM231 37l-2 -62v-11c0 -22 2 -43 5 -64c43 38 89 80 89 137c0 32 -14 65 -42 65c-31 0 -49 -32 -50 -65z" fill="currentColor"/>
<path transform="translate(37.2592, 40.4489) scale(0.0040, -0.0040)" d="M134 37c-1 33 -19 65 -50 65c-28 0 -42 -33 -42 -65c0 -57 46 -99 89 -137c3 21 5 42 5 64v11zM181 -140c0 -16 -11 -29 -26 -29c-24 0 -32 29 -49 44c-58 52 -141 91 -141 169c0 54 34 104 84 104c35 0 69 -14 94 -38l-8 340c9 5 20 8 30 8s21 -3 30 -8z" fill="currentColor"/>
<a style="color:inherit;" xlink:href="textedit:///Users/tatecarson/Documents/Supercollider%20/_OrgExamples/My%20Comps/Clarinet/notationGen/LY/cricket/cricket.1.ly:86:3:25">
<path transform="translate(61.8315, 40.4489) scale(0.0040, -0.0040)" d="M67 -250l118 326c-33 -12 -66 -22 -101 -22c-46 0 -87 34 -87 79c0 40 33 72 73 72c25 0 49 -14 57 -37c10 -27 4 -59 33 -59c14 0 50 42 56 55c7 14 28 14 34 0l-119 -414c-9 -8 -21 -12 -32 -12s-23 4 -32 12z" fill="currentColor"/>
</a>
<a style="color:inherit;" xlink:href="textedit:///Users/tatecarson/Documents/Supercollider%20/_OrgExamples/My%20Comps/Clarinet/notationGen/LY/cricket/cricket.1.ly:80:3:25">
<path transform="translate(41.6455, 40.4489) scale(0.0040, -0.0040)" d="M214 140c59 0 115 -32 115 -97c0 -72 -54 -121 -101 -149c-35 -21 -74 -34 -114 -34c-59 0 -114 32 -114 97c0 72 54 121 101 149c35 21 73 34 113 34z" fill="currentColor"/>
</a>
<rect transform="translate(41.7212, 40.4489)" x="-0.0757" y="0.1731" width="0.1514" height="3.1602" ry="0.0500" fill="currentColor"/>
<a style="color:inherit;" xlink:href="textedit:///Users/tatecarson/Documents/Supercollider%20/_OrgExamples/My%20Comps/Clarinet/notationGen/LY/cricket/cricket.1.ly:83:3:25">
<path transform="translate(57.2596, 40.4489) scale(0.0040, -0.0040)" d="M61 -500l101 326c-33 -12 -67 -22 -102 -22c-46 0 -87 34 -87 79c0 40 34 72 74 72c25 0 49 -14 57 -37c10 -27 3 -59 32 -59c16 0 51 50 56 66l47 151c-33 -12 -66 -22 -101 -22c-46 0 -87 34 -87 79c0 40 34 72 74 72c25 0 49 -14 57 -37c10 -27 3 -59 32 -59
c14 0 46 42 52 55c7 14 28 14 34 0l-175 -664c-9 -8 -21 -12 -32 -12s-23 4 -32 12z" fill="currentColor"/>
</a>
<path transform="translate(50.0667, 36.9489) scale(0.0040, -0.0040)" d="M210 -169h-20c-24 0 -32 29 -49 44c-58 52 -141 91 -141 169c0 54 34 104 84 104c35 0 69 -14 94 -38l-8 340c9 5 20 8 30 8s21 -3 30 -8l-8 -340c25 24 59 38 94 38c50 0 84 -50 84 -104c0 -78 -83 -117 -141 -169c-17 -15 -25 -44 -49 -44zM169 37c-1 33 -19 65 -50 65
c-28 0 -42 -33 -42 -65c0 -57 46 -99 89 -137c3 21 5 42 5 64v11zM231 37l-2 -62v-11c0 -22 2 -43 5 -64c43 38 89 80 89 137c0 32 -14 65 -42 65c-31 0 -49 -32 -50 -65z" fill="currentColor"/>
<path transform="translate(52.1681, 40.3989) scale(0.0040, -0.0040)" d="M0 0h-19v250h19c96 59 223 149 223 259c0 56 -15 111 -41 161c-3 18 11 30 25 30c8 0 17 -4 22 -13c25 -56 41 -116 41 -178c0 -204 -270 -305 -270 -509z" fill="currentColor"/>
<rect transform="translate(52.0924, 40.4489)" x="-0.0757" y="-3.3269" width="0.1514" height="3.3269" ry="0.0500" fill="currentColor"/>
<a style="color:inherit;" xlink:href="textedit:///Users/tatecarson/Documents/Supercollider%20/_OrgExamples/My%20Comps/Clarinet/notationGen/LY/cricket/cricket.1.ly:82:3:25">
<path transform="translate(52.0167, 36.9489) scale(0.0040, -0.0040)" d="M214 140c59 0 115 -32 115 -97c0 -72 -54 -121 -101 -149c-35 -21 -74 -34 -114 -34c-59 0 -114 32 -114 97c0 72 54 121 101 149c35 21 73 34 113 34z" fill="currentColor"/>
</a>
<a style="color:inherit;" xlink:href="textedit:///Users/tatecarson/Documents/Supercollider%20/_OrgExamples/My%20Comps/Clarinet/notationGen/LY/cricket/cricket.1.ly:81:3:25">
<path transform="translate(48.8526, 40.4489) scale(0.0040, -0.0040)" d="M61 -500l101 326c-33 -12 -67 -22 -102 -22c-46 0 -87 34 -87 79c0 40 34 72 74 72c25 0 49 -14 57 -37c10 -27 3 -59 32 -59c16 0 51 50 56 66l47 151c-33 -12 -66 -22 -101 -22c-46 0 -87 34 -87 79c0 40 34 72 74 72c25 0 49 -14 57 -37c10 -27 3 -59 32 -59
c14 0 46 42 52 55c7 14 28 14 34 0l-175 -664c-9 -8 -21 -12 -32 -12s-23 4 -32 12z" fill="currentColor"/>
</a>
<path transform="translate(68.5159, 44.9489) scale(0.0040, -0.0040)" d="M0 0c0 30 25 55 55 55s55 -25 55 -55s-25 -55 -55 -55s-55 25 -55 55z" fill="currentColor"/>
<a style="color:inherit;" xlink:href="textedit:///Users/tatecarson/Documents/Supercollider%20/_OrgExamples/My%20Comps/Clarinet/notationGen/LY/cricket/cricket.1.ly:87:3:25">
<path transform="translate(66.7598, 45.4489) scale(0.0040, -0.0040)" d="M214 140c59 0 115 -32 115 -97c0 -72 -54 -121 -101 -149c-35 -21 -74 -34 -114 -34c-59 0 -114 32 -114 97c0 72 54 121 101 149c35 21 73 34 113 34z" fill="currentColor"/>
</a>
<path transform="translate(21.3551, 35.4489) scale(0.0040, -0.0040)" d="M210 -169h-20c-24 0 -32 29 -49 44c-58 52 -141 91 -141 169c0 54 34 104 84 104c35 0 69 -14 94 -38l-8 340c9 5 20 8 30 8s21 -3 30 -8l-8 -340c25 24 59 38 94 38c50 0 84 -50 84 -104c0 -78 -83 -117 -141 -169c-17 -15 -25 -44 -49 -44zM169 37c-1 33 -19 65 -50 65
c-28 0 -42 -33 -42 -65c0 -57 46 -99 89 -137c3 21 5 42 5 64v11zM231 37l-2 -62v-11c0 -22 2 -43 5 -64c43 38 89 80 89 137c0 32 -14 65 -42 65c-31 0 -49 -32 -50 -65z" fill="currentColor"/>
<a style="color:inherit;" xlink:href="textedit:///Users/tatecarson/Documents/Supercollider%20/_OrgExamples/My%20Comps/Clarinet/notationGen/LY/cricket/cricket.1.ly:77:15:37">
<path transform="translate(29.6970, 35.4489) scale(0.0040, -0.0040)" d="M214 140c59 0 115 -32 115 -97c0 -72 -54 -121 -101 -149c-35 -21 -74 -34 -114 -34c-59 0 -114 32 -114 97c0 72 54 121 101 149c35 21 73 34 113 34z" fill="currentColor"/>
</a>
<rect transform="translate(29.7727, 40.4489)" x="-0.0757" y="-4.8269" width="0.1514" height="8.6451" ry="0.0500" fill="currentColor"/>
<rect transform="translate(34.7656, 40.4489)" x="-0.0757" y="1.6731" width="0.1514" height="2.1451" ry="0.0500" fill="currentColor"/>
<a style="color:inherit;" xlink:href="textedit:///Users/tatecarson/Documents/Supercollider%20/_OrgExamples/My%20Comps/Clarinet/notationGen/LY/cricket/cricket.1.ly:78:3:25">
<path transform="translate(34.6899, 41.9489) scale(0.0040, -0.0040)" d="M214 140c59 0 115 -32 115 -97c0 -72 -54 -121 -101 -149c-35 -21 -74 -34 -114 -34c-59 0 -114 32 -114 97c0 72 54 121 101 149c35 21 73 34 113 34z" fill="currentColor"/>
</a>
<a style="color:inherit;" xlink:href="textedit:///Users/tatecarson/Documents/Supercollider%20/_OrgExamples/My%20Comps/Clarinet/notationGen/LY/cricket/cricket.1.ly:79:3:25">
<path transform="translate(38.3668, 40.4489) scale(0.0040, -0.0040)" d="M214 140c59 0 115 -32 115 -97c0 -72 -54 -121 -101 -149c-35 -21 -74 -34 -114 -34c-59 0 -114 32 -114 97c0 72 54 121 101 149c35 21 73 34 113 34z" fill="currentColor"/>
</a>
<rect transform="translate(38.4425, 40.4489)" x="-0.0757" y="0.1731" width="0.1514" height="3.6451" ry="0.0500" fill="currentColor"/>
</svg>
