<svg xmlns="http://www.w3.org/2000/svg" xmlns:xlink="http://www.w3.org/1999/xlink" version="1.2" width="297.00mm" height="210.00mm" viewBox="0 0 211.2617 149.3770">
<!-- Page: 1/1 -->
<text transform="translate(14.2264, 14.2264)" font-family="Century Schoolbook L" font-size="2.1999" text-anchor="start" fill="currentColor">
<tspan>
 </tspan>
</text>
<rect transform="translate(71.1905, 20.6411)" x="0.0000" y="-2.0000" width="0.2212" height="4.0000" ry="0.0000" fill="currentColor"/>
<rect transform="translate(145.3450, 20.6411)" x="0.0000" y="-2.0000" width="0.2212" height="4.0000" ry="0.0000" fill="currentColor"/>
<rect transform="translate(122.5364, 20.6411)" x="0.0000" y="-2.0000" width="0.2212" height="4.0000" ry="0.0000" fill="currentColor"/>
<rect transform="translate(93.6117, 20.6411)" x="0.0000" y="-2.0000" width="0.2212" height="4.0000" ry="0.0000" fill="currentColor"/>
<rect transform="translate(45.6086, 20.6411)" x="0.0000" y="-2.0000" width="0.2212" height="4.0000" ry="0.0000" fill="currentColor"/>
<line transform="translate(14.2264, 22.6411)" stroke-linejoin="round" stroke-linecap="round" stroke-width="0.1164" stroke="currentColor" x1="0.0582" y1="-0.0000" x2="131.2817" y2="-0.0000"/>
<line transform="translate(14.2264, 21.6411)" stroke-linejoin="round" stroke-linecap="round" stroke-width="0.1164" stroke="currentColor" x1="0.0582" y1="-0.0000" x2="131.2817" y2="-0.0000"/>
<line transform="translate(14.2264, 20.6411)" stroke-linejoin="round" stroke-linecap="round" stroke-width="0.1164" stroke="currentColor" x1="0.0582" y1="-0.0000" x2="131.2817" y2="-0.0000"/>
<line transform="translate(14.2264, 19.6411)" stroke-linejoin="round" stroke-linecap="round" stroke-width="0.1164" stroke="currentColor" x1="0.0582" y1="-0.0000" x2="131.2817" y2="-0.0000"/>
<line transform="translate(14.2264, 18.6411)" stroke-linejoin="round" stroke-linecap="round" stroke-width="0.1164" stroke="currentColor" x1="0.0582" y1="-0.0000" x2="131.2817" y2="-0.0000"/>
<rect transform="translate(14.2264, 23.6411)" x="8.2932" y="-0.1082" width="1.9719" height="0.2164" ry="0.1082" fill="currentColor"/>
<rect transform="translate(14.2264, 24.6411)" x="8.2932" y="-0.1082" width="1.9719" height="0.2164" ry="0.1082" fill="currentColor"/>
<rect transform="translate(14.2264, 25.6411)" x="8.2932" y="-0.1082" width="1.9719" height="0.2164" ry="0.1082" fill="currentColor"/>
<rect transform="translate(14.2264, 23.6411)" x="13.2078" y="-0.1082" width="1.9719" height="0.2164" ry="0.1082" fill="currentColor"/>
<rect transform="translate(14.2264, 24.6411)" x="13.3614" y="-0.1082" width="1.8183" height="0.2164" ry="0.1082" fill="currentColor"/>
<rect transform="translate(14.2264, 23.6411)" x="27.3390" y="-0.1082" width="1.9719" height="0.2164" ry="0.1082" fill="currentColor"/>
<rect transform="translate(14.2264, 24.6411)" x="27.3390" y="-0.1082" width="1.9719" height="0.2164" ry="0.1082" fill="currentColor"/>
<rect transform="translate(14.2264, 23.6411)" x="32.1748" y="-0.1082" width="1.9719" height="0.2164" ry="0.1082" fill="currentColor"/>
<rect transform="translate(14.2264, 24.6411)" x="32.1748" y="-0.1082" width="1.9719" height="0.2164" ry="0.1082" fill="currentColor"/>
<rect transform="translate(14.2264, 23.6411)" x="49.0889" y="-0.1082" width="1.8183" height="0.2164" ry="0.1082" fill="currentColor"/>
<rect transform="translate(14.2264, 23.6411)" x="52.0403" y="-0.1082" width="1.9719" height="0.2164" ry="0.1082" fill="currentColor"/>
<rect transform="translate(14.2264, 24.6411)" x="52.1940" y="-0.1082" width="1.8183" height="0.2164" ry="0.1082" fill="currentColor"/>
<rect transform="translate(14.2264, 23.6411)" x="66.4087" y="-0.1082" width="1.9719" height="0.2164" ry="0.1082" fill="currentColor"/>
<rect transform="translate(14.2264, 24.6411)" x="66.5623" y="-0.1082" width="1.8183" height="0.2164" ry="0.1082" fill="currentColor"/>
<rect transform="translate(14.2264, 23.6411)" x="69.0613" y="-0.1082" width="1.9719" height="0.2164" ry="0.1082" fill="currentColor"/>
<rect transform="translate(14.2264, 24.6411)" x="69.0613" y="-0.1082" width="1.9719" height="0.2164" ry="0.1082" fill="currentColor"/>
<rect transform="translate(14.2264, 23.6411)" x="94.1622" y="-0.1082" width="1.9719" height="0.2164" ry="0.1082" fill="currentColor"/>
<rect transform="translate(14.2264, 24.6411)" x="94.3159" y="-0.1082" width="1.8183" height="0.2164" ry="0.1082" fill="currentColor"/>
<rect transform="translate(14.2264, 23.6411)" x="96.6768" y="-0.1082" width="1.9719" height="0.2164" ry="0.1082" fill="currentColor"/>
<rect transform="translate(14.2264, 24.6411)" x="96.6768" y="-0.1082" width="1.9719" height="0.2164" ry="0.1082" fill="currentColor"/>
<rect transform="translate(14.2264, 23.6411)" x="109.1026" y="-0.1082" width="1.9719" height="0.2164" ry="0.1082" fill="currentColor"/>
<rect transform="translate(14.2264, 24.6411)" x="109.1026" y="-0.1082" width="1.9719" height="0.2164" ry="0.1082" fill="currentColor"/>
<rect transform="translate(14.2264, 25.6411)" x="109.1026" y="-0.1082" width="1.9719" height="0.2164" ry="0.1082" fill="currentColor"/>
<rect transform="translate(14.2264, 23.6411)" x="114.0172" y="-0.1082" width="1.9719" height="0.2164" ry="0.1082" fill="currentColor"/>
<rect transform="translate(14.2264, 24.6411)" x="114.0172" y="-0.1082" width="1.9719" height="0.2164" ry="0.1082" fill="currentColor"/>
<rect transform="translate(14.2264, 25.6411)" x="114.0172" y="-0.1082" width="1.9719" height="0.2164" ry="0.1082" fill="currentColor"/>
<rect transform="translate(43.1329, 20.6411)" x="-0.0757" y="-0.0000" width="0.1514" height="3.8269" ry="0.0500" fill="currentColor"/>
<a style="color:inherit;" xlink:href="textedit:///Users/tatecarson/Documents/Supercollider%20/_OrgExamples/My%20Comps/Clarinet/notationGen/LY/riverDrone/160720.13.ly:43:3:25">
<path transform="translate(41.8940, 24.6411) scale(0.0040, -0.0040)" d="M214 140c59 0 115 -32 115 -97c0 -72 -54 -121 -101 -149c-35 -21 -74 -34 -114 -34c-59 0 -114 32 -114 97c0 72 54 121 101 149c35 21 73 34 113 34z" fill="currentColor"/>
</a>
<path transform="translate(38.0335, 20.1411) scale(0.0040, -0.0040)" d="M0 0c0 30 25 55 55 55s55 -25 55 -55s-25 -55 -55 -55s-55 25 -55 55z" fill="currentColor"/>
<a style="color:inherit;" xlink:href="textedit:///Users/tatecarson/Documents/Supercollider%20/_OrgExamples/My%20Comps/Clarinet/notationGen/LY/riverDrone/160720.13.ly:42:3:25">
<path transform="translate(36.6420, 20.6411) scale(0.0040, -0.0040)" d="M-24 -119c0 31 14 43 46 43c30 0 69 -9 106 -23l-126 151c-7 9 -11 17 -11 26c0 34 51 66 88 101c23 22 36 51 36 81c0 25 -9 50 -26 70l-31 37c-3 4 -4 8 -4 12c0 10 9 18 19 18c5 0 9 -1 13 -6l149 -178c7 -9 11 -17 11 -26c0 -34 -52 -66 -89 -101
c-23 -22 -35 -51 -35 -81c0 -25 9 -51 26 -71l79 -94c3 -4 4 -8 4 -12c0 -10 -9 -18 -19 -18c-5 0 -9 2 -13 7c-16 19 -57 33 -89 33c-41 0 -55 -23 -55 -65c0 -33 11 -73 27 -92c6 -7 0 -15 -7 -15c-2 0 -5 2 -7 4c-44 53 -92 145 -92 199z" fill="currentColor"/>
</a>
<a style="color:inherit;" xlink:href="textedit:///Users/tatecarson/Documents/Supercollider%20/_OrgExamples/My%20Comps/Clarinet/notationGen/LY/riverDrone/160720.13.ly:41:3:25">
<path transform="translate(34.2420, 20.6411) scale(0.0040, -0.0040)" d="M61 -500l101 326c-33 -12 -67 -22 -102 -22c-46 0 -87 34 -87 79c0 40 34 72 74 72c25 0 49 -14 57 -37c10 -27 3 -59 32 -59c16 0 51 50 56 66l47 151c-33 -12 -66 -22 -101 -22c-46 0 -87 34 -87 79c0 40 34 72 74 72c25 0 49 -14 57 -37c10 -27 3 -59 32 -59
c14 0 46 42 52 55c7 14 28 14 34 0l-175 -664c-9 -8 -21 -12 -32 -12s-23 4 -32 12z" fill="currentColor"/>
</a>
<rect transform="translate(47.9688, 20.6411)" x="-0.0757" y="-2.0249" width="0.1514" height="5.8517" ry="0.0500" fill="currentColor"/>
<path transform="translate(48.4859, 24.1411) scale(0.0040, -0.0040)" d="M0 0c0 30 25 55 55 55s55 -25 55 -55s-25 -55 -55 -55s-55 25 -55 55z" fill="currentColor"/>
<a style="color:inherit;" xlink:href="textedit:///Users/tatecarson/Documents/Supercollider%20/_OrgExamples/My%20Comps/Clarinet/notationGen/LY/riverDrone/160720.13.ly:46:3:25">
<path transform="translate(46.7298, 24.6411) scale(0.0040, -0.0040)" d="M214 140c59 0 115 -32 115 -97c0 -72 -54 -121 -101 -149c-35 -21 -74 -34 -114 -34c-59 0 -114 32 -114 97c0 72 54 121 101 149c35 21 73 34 113 34z" fill="currentColor"/>
</a>
<path transform="translate(43.2086, 20.6911) scale(0.0040, -0.0040)" d="M0 0c0 -197 209 -334 209 -531c0 -71 -15 -140 -41 -206c-5 -9 -14 -13 -22 -13c-14 0 -29 12 -26 30c27 60 43 124 43 189c0 102 -93 206 -163 281h-19v250h19z" fill="currentColor"/>
<rect transform="translate(140.7437, 20.6411)" x="-0.0757" y="-1.8269" width="0.1514" height="3.3269" ry="0.0500" fill="currentColor"/>
<a style="color:inherit;" xlink:href="textedit:///Users/tatecarson/Documents/Supercollider%20/_OrgExamples/My%20Comps/Clarinet/notationGen/LY/riverDrone/160720.13.ly:72:3:25">
<path transform="translate(140.6681, 18.6411) scale(0.0040, -0.0040)" d="M214 140c59 0 115 -32 115 -97c0 -72 -54 -121 -101 -149c-35 -21 -74 -34 -114 -34c-59 0 -114 32 -114 97c0 72 54 121 101 149c35 21 73 34 113 34z" fill="currentColor"/>
</a>
<rect transform="translate(135.8291, 20.6411)" x="-0.0757" y="-1.8269" width="0.1514" height="3.3269" ry="0.0500" fill="currentColor"/>
<a style="color:inherit;" xlink:href="textedit:///Users/tatecarson/Documents/Supercollider%20/_OrgExamples/My%20Comps/Clarinet/notationGen/LY/riverDrone/160720.13.ly:71:9:31">
<path transform="translate(135.7534, 18.6411) scale(0.0040, -0.0040)" d="M214 140c59 0 115 -32 115 -97c0 -72 -54 -121 -101 -149c-35 -21 -74 -34 -114 -34c-59 0 -114 32 -114 97c0 72 54 121 101 149c35 21 73 34 113 34z" fill="currentColor"/>
</a>
<rect transform="translate(132.5758, 20.6411)" x="-0.0757" y="-5.1381" width="0.1514" height="2.9650" ry="0.0500" fill="currentColor"/>
<rect transform="translate(31.7664, 20.6411)" x="-0.0757" y="-5.1381" width="0.1514" height="2.9650" ry="0.0500" fill="currentColor"/>
<a style="color:inherit;" xlink:href="textedit:///Users/tatecarson/Documents/Supercollider%20/_OrgExamples/My%20Comps/Clarinet/notationGen/LY/riverDrone/160720.13.ly:40:3:25">
<path transform="translate(30.5274, 18.6411) scale(0.0040, -0.0040)" d="M214 140c59 0 115 -32 115 -97c0 -72 -54 -121 -101 -149c-35 -21 -74 -34 -114 -34c-59 0 -114 32 -114 97c0 72 54 121 101 149c35 21 73 34 113 34z" fill="currentColor"/>
</a>
<path transform="translate(26.6128, 24.6411) scale(0.0040, -0.0040)" d="M31 37l-2 -62v-11c0 -22 2 -43 5 -64c43 38 89 80 89 137c0 32 -14 65 -42 65c-31 0 -49 -32 -50 -65zM-16 -140l-14 590c9 5 20 8 30 8s21 -3 30 -8l-8 -340c25 24 59 38 94 38c50 0 84 -50 84 -104c0 -78 -83 -117 -141 -169c-17 -15 -25 -44 -49 -44
c-15 0 -26 13 -26 29z" fill="currentColor"/>
<rect transform="translate(29.0017, 20.6411)" x="-0.0757" y="-3.5436" width="0.1514" height="7.3705" ry="0.0500" fill="currentColor"/>
<a style="color:inherit;" xlink:href="textedit:///Users/tatecarson/Documents/Supercollider%20/_OrgExamples/My%20Comps/Clarinet/notationGen/LY/riverDrone/160720.13.ly:39:3:25">
<path transform="translate(27.7628, 24.6411) scale(0.0040, -0.0040)" d="M214 140c59 0 115 -32 115 -97c0 -72 -54 -121 -101 -149c-35 -21 -74 -34 -114 -34c-59 0 -114 32 -114 97c0 72 54 121 101 149c35 21 73 34 113 34z" fill="currentColor"/>
</a>
<polygon transform="translate(129.7355, 17.1411)" stroke-linejoin="round" stroke-linecap="round" stroke-width="0.1000" fill="currentColor" stroke="currentColor" points="2.8660 -1.8718 2.8660 -1.4918 0.0500 0.1900 0.0500 -0.1900"/>
<polygon transform="translate(129.7355, 17.9593)" stroke-linejoin="round" stroke-linecap="round" stroke-width="0.1000" fill="currentColor" stroke="currentColor" points="1.1257 -0.8681 1.1257 -0.4881 0.0500 0.1900 0.0500 -0.1900"/>
<a style="color:inherit;" xlink:href="textedit:///Users/tatecarson/Documents/Supercollider%20/_OrgExamples/My%20Comps/Clarinet/notationGen/LY/riverDrone/160720.13.ly:54:3:25">
<path transform="translate(72.3117, 20.6411) scale(0.0040, -0.0040)" d="M-24 -119c0 31 14 43 46 43c30 0 69 -9 106 -23l-126 151c-7 9 -11 17 -11 26c0 34 51 66 88 101c23 22 36 51 36 81c0 25 -9 50 -26 70l-31 37c-3 4 -4 8 -4 12c0 10 9 18 19 18c5 0 9 -1 13 -6l149 -178c7 -9 11 -17 11 -26c0 -34 -52 -66 -89 -101
c-23 -22 -35 -51 -35 -81c0 -25 9 -51 26 -71l79 -94c3 -4 4 -8 4 -12c0 -10 -9 -18 -19 -18c-5 0 -9 2 -13 7c-16 19 -57 33 -89 33c-41 0 -55 -23 -55 -65c0 -33 11 -73 27 -92c6 -7 0 -15 -7 -15c-2 0 -5 2 -7 4c-44 53 -92 145 -92 199z" fill="currentColor"/>
</a>
<path transform="translate(65.4454, 24.6411) scale(0.0040, -0.0040)" d="M31 37l-2 -62v-11c0 -22 2 -43 5 -64c43 38 89 80 89 137c0 32 -14 65 -42 65c-31 0 -49 -32 -50 -65zM-16 -140l-14 590c9 5 20 8 30 8s21 -3 30 -8l-8 -340c25 24 59 38 94 38c50 0 84 -50 84 -104c0 -78 -83 -117 -141 -169c-17 -15 -25 -44 -49 -44
c-15 0 -26 13 -26 29z" fill="currentColor"/>
<polygon transform="translate(28.9261, 17.1411)" stroke-linejoin="round" stroke-linecap="round" stroke-width="0.1000" fill="currentColor" stroke="currentColor" points="2.8660 -1.8718 2.8660 -1.4918 0.0500 0.1900 0.0500 -0.1900"/>
<polygon transform="translate(28.9261, 17.9593)" stroke-linejoin="round" stroke-linecap="round" stroke-width="0.1000" fill="currentColor" stroke="currentColor" points="1.1257 -0.8681 1.1257 -0.4881 0.0500 0.1900 0.0500 -0.1900"/>
<a style="color:inherit;" xlink:href="textedit:///Users/tatecarson/Documents/Supercollider%20/_OrgExamples/My%20Comps/Clarinet/notationGen/LY/riverDrone/160720.13.ly:43:8:30">
<path transform="translate(41.8940, 20.6411)" stroke-width="0.0931" stroke-linejoin="round" stroke-linecap="round" stroke="currentColor" fill="currentColor" d="M0.857308128544421 4.75C1.69143772941601 5.5607987067055 4.45900907047596 5.5607987067055 5.29313867134756 4.75C4.45900907047596 5.42108442099122 1.69143772941601 5.42108442099122 0.857308128544421 4.75z"/>
</a>
<a style="color:inherit;" xlink:href="textedit:///Users/tatecarson/Documents/Supercollider%20/_OrgExamples/My%20Comps/Clarinet/notationGen/LY/riverDrone/160720.13.ly:47:10:32">
<path transform="translate(51.1464, 20.6411)" stroke-width="0.0931" stroke-linejoin="round" stroke-linecap="round" stroke="currentColor" fill="currentColor" d="M0.857308128544432 1.225C1.36595848394381 1.82690228659797 2.4632740302339 1.82690228659797 2.97192438563327 1.225C2.4632740302339 1.68718800088368 1.36595848394381 1.68718800088368 0.857308128544432 1.225z"/>
</a>
<polygon transform="translate(47.8931, 18.6411)" stroke-linejoin="round" stroke-linecap="round" stroke-width="0.1000" fill="currentColor" stroke="currentColor" points="4.5179 -1.6900 4.5179 -1.3100 0.0500 0.1900 0.0500 -0.1900"/>
<polygon transform="translate(51.2853, 18.3454)" stroke-linejoin="round" stroke-linecap="round" stroke-width="0.1000" fill="currentColor" stroke="currentColor" points="1.1257 -0.5761 1.1257 -0.1961 0.0500 0.1900 0.0500 -0.1900"/>
<polygon transform="translate(64.6535, 20.6411)" stroke-linejoin="round" stroke-linecap="round" stroke-width="0.1000" fill="currentColor" stroke="currentColor" points="3.2065 -0.0082 3.2065 0.3718 0.0500 0.1900 0.0500 -0.1900"/>
<polygon transform="translate(64.6535, 21.4593)" stroke-linejoin="round" stroke-linecap="round" stroke-width="0.1000" fill="currentColor" stroke="currentColor" points="1.1257 -0.1244 1.1257 0.2556 0.0500 0.1900 0.0500 -0.1900"/>
<a style="color:inherit;" xlink:href="textedit:///Users/tatecarson/Documents/Supercollider%20/_OrgExamples/My%20Comps/Clarinet/notationGen/LY/riverDrone/160720.13.ly:56:9:31">
<path transform="translate(80.9637, 20.6411)" stroke-width="0.0931" stroke-linejoin="round" stroke-linecap="round" stroke="currentColor" fill="currentColor" d="M0.857308128544418 4.75C1.39030672639757 5.37184707442047 2.57692585529296 5.37184707442047 3.10992445314611 4.75C2.57692585529296 5.23213278870619 1.39030672639757 5.23213278870619 0.857308128544418 4.75z"/>
</a>
<a style="color:inherit;" xlink:href="textedit:///Users/tatecarson/Documents/Supercollider%20/_OrgExamples/My%20Comps/Clarinet/notationGen/LY/riverDrone/160720.13.ly:58:10:32">
<path transform="translate(88.5309, 20.6411)" stroke-width="0.0931" stroke-linejoin="round" stroke-linecap="round" stroke="currentColor" fill="currentColor" d="M0.857308128544432 1.2029405457278C1.75959624755932 2.04432196677895 5.05124465171156 2.04432196677895 5.95353277072644 1.2029405457278C5.05124465171156 1.90460768106467 1.75959624755932 1.90460768106467 0.857308128544432 1.2029405457278z"/>
</a>
<a style="color:inherit;" xlink:href="textedit:///Users/tatecarson/Documents/Supercollider%20/_OrgExamples/My%20Comps/Clarinet/notationGen/LY/riverDrone/160720.13.ly:62:8:30">
<path transform="translate(98.7734, 20.6411)" stroke-width="0.0931" stroke-linejoin="round" stroke-linecap="round" stroke="currentColor" fill="currentColor" d="M0.857308128544432 -2.75C1.55405010268748 -3.48680095606288 3.47518241149021 -3.48680095606288 4.17192438563326 -2.75C3.47518241149021 -3.34708667034859 1.55405010268748 -3.34708667034859 0.857308128544432 -2.75z"/>
</a>
<polygon transform="translate(94.8088, 23.8229)" stroke-linejoin="round" stroke-linecap="round" stroke-width="0.1000" fill="currentColor" stroke="currentColor" points="4.0660 -1.5536 4.0660 -1.1736 0.0500 0.1900 0.0500 -0.1900"/>
<a style="color:inherit;" xlink:href="textedit:///Users/tatecarson/Documents/Supercollider%20/_OrgExamples/My%20Comps/Clarinet/notationGen/LY/riverDrone/160720.13.ly:64:8:30">
<path transform="translate(108.7172, 20.6411)" stroke-width="0.0931" stroke-linejoin="round" stroke-linecap="round" stroke="currentColor" fill="currentColor" d="M0.857308128544432 4.75C1.36595848394381 5.35190228659797 2.46327403023389 5.35190228659797 2.97192438563327 4.75C2.46327403023389 5.21218800088368 1.36595848394381 5.21218800088368 0.857308128544432 4.75z"/>
</a>
<polygon transform="translate(103.6513, 16.1411)" stroke-linejoin="round" stroke-linecap="round" stroke-width="0.1000" fill="currentColor" stroke="currentColor" points="6.3306 2.3100 6.3306 2.6900 0.0500 0.1900 0.0500 -0.1900"/>
<polygon transform="translate(107.3659, 18.4147)" stroke-linejoin="round" stroke-linecap="round" stroke-width="0.1000" fill="currentColor" stroke="currentColor" points="2.6160 0.8546 2.6160 1.2346 0.0500 0.1900 0.0500 -0.1900"/>
<a style="color:inherit;" xlink:href="textedit:///Users/tatecarson/Documents/Supercollider%20/_OrgExamples/My%20Comps/Clarinet/notationGen/LY/riverDrone/160720.13.ly:69:7:29">
<path transform="translate(123.6576, 20.6411)" stroke-width="0.0931" stroke-linejoin="round" stroke-linecap="round" stroke="currentColor" fill="currentColor" d="M0.857308128544432 5.75C1.70001049860868 6.56484780826816 4.52922201556903 6.56484780826816 5.37192438563328 5.75C4.52922201556903 6.42513352255387 1.70001049860868 6.42513352255387 0.857308128544432 5.75z"/>
</a>
<rect transform="translate(54.8999, 20.6411)" x="-0.0757" y="-3.0000" width="0.1514" height="3.3269" ry="0.0500" fill="currentColor"/>
<a style="color:inherit;" xlink:href="textedit:///Users/tatecarson/Documents/Supercollider%20/_OrgExamples/My%20Comps/Clarinet/notationGen/LY/riverDrone/160720.13.ly:48:3:25">
<path transform="translate(53.6610, 21.1411) scale(0.0040, -0.0040)" d="M214 140c59 0 115 -32 115 -97c0 -72 -54 -121 -101 -149c-35 -21 -74 -34 -114 -34c-59 0 -114 32 -114 97c0 72 54 121 101 149c35 21 73 34 113 34z" fill="currentColor"/>
</a>
<path transform="translate(50.0388, 21.1411) scale(0.0040, -0.0040)" d="M134 37c-1 33 -19 65 -50 65c-28 0 -42 -33 -42 -65c0 -57 46 -99 89 -137c3 21 5 42 5 64v11zM181 -140c0 -16 -11 -29 -26 -29c-24 0 -32 29 -49 44c-58 52 -141 91 -141 169c0 54 34 104 84 104c35 0 69 -14 94 -38l-8 340c9 5 20 8 30 8s21 -3 30 -8z" fill="currentColor"/>
<rect transform="translate(52.3853, 20.6411)" x="-0.0757" y="-3.4751" width="0.1514" height="3.8020" ry="0.0500" fill="currentColor"/>
<a style="color:inherit;" xlink:href="textedit:///Users/tatecarson/Documents/Supercollider%20/_OrgExamples/My%20Comps/Clarinet/notationGen/LY/riverDrone/160720.13.ly:47:3:25">
<path transform="translate(51.1464, 21.1411) scale(0.0040, -0.0040)" d="M214 140c59 0 115 -32 115 -97c0 -72 -54 -121 -101 -149c-35 -21 -74 -34 -114 -34c-59 0 -114 32 -114 97c0 72 54 121 101 149c35 21 73 34 113 34z" fill="currentColor"/>
</a>
<rect transform="translate(67.8343, 20.6411)" x="-0.0757" y="0.1776" width="0.1514" height="3.6493" ry="0.0500" fill="currentColor"/>
<path transform="translate(68.3514, 24.1411) scale(0.0040, -0.0040)" d="M0 0c0 30 25 55 55 55s55 -25 55 -55s-25 -55 -55 -55s-55 25 -55 55z" fill="currentColor"/>
<a style="color:inherit;" xlink:href="textedit:///Users/tatecarson/Documents/Supercollider%20/_OrgExamples/My%20Comps/Clarinet/notationGen/LY/riverDrone/160720.13.ly:51:3:25">
<path transform="translate(66.5954, 24.6411) scale(0.0040, -0.0040)" d="M214 140c59 0 115 -32 115 -97c0 -72 -54 -121 -101 -149c-35 -21 -74 -34 -114 -34c-59 0 -114 32 -114 97c0 72 54 121 101 149c35 21 73 34 113 34z" fill="currentColor"/>
</a>
<path transform="translate(62.4402, 23.6411) scale(0.0040, -0.0040)" d="M87 -337c-12 0 -20 9 -20 21v116l-29 -17c-4 -2 -9 -4 -13 -4c-13 0 -25 11 -25 26v54c0 9 4 16 12 21l55 33v150l-29 -17c-4 -2 -9 -4 -13 -4c-13 0 -25 10 -25 25v54c0 9 4 17 12 22l55 32v141c0 12 8 21 20 21s21 -9 21 -21v-116l29 17c4 2 9 4 13 4
c13 0 25 -11 25 -26v-54c0 -9 -4 -16 -12 -21l-55 -33v-150l29 17c4 2 9 4 13 4c13 0 25 -10 25 -25v-54c0 -9 -4 -17 -12 -22l-55 -32v-141c0 -12 -9 -21 -21 -21z" fill="currentColor"/>
<rect transform="translate(64.7292, 20.6411)" x="-0.0757" y="0.0042" width="0.1514" height="2.8226" ry="0.0500" fill="currentColor"/>
<a style="color:inherit;" xlink:href="textedit:///Users/tatecarson/Documents/Supercollider%20/_OrgExamples/My%20Comps/Clarinet/notationGen/LY/riverDrone/160720.13.ly:50:3:25">
<path transform="translate(63.4902, 23.6411) scale(0.0040, -0.0040)" d="M214 140c59 0 115 -32 115 -97c0 -72 -54 -121 -101 -149c-35 -21 -74 -34 -114 -34c-59 0 -114 32 -114 97c0 72 54 121 101 149c35 21 73 34 113 34z" fill="currentColor"/>
</a>
<rect transform="translate(59.8146, 20.6411)" x="-0.0757" y="-3.0000" width="0.1514" height="3.3269" ry="0.0500" fill="currentColor"/>
<a style="color:inherit;" xlink:href="textedit:///Users/tatecarson/Documents/Supercollider%20/_OrgExamples/My%20Comps/Clarinet/notationGen/LY/riverDrone/160720.13.ly:49:3:25">
<path transform="translate(58.5756, 21.1411) scale(0.0040, -0.0040)" d="M214 140c59 0 115 -32 115 -97c0 -72 -54 -121 -101 -149c-35 -21 -74 -34 -114 -34c-59 0 -114 32 -114 97c0 72 54 121 101 149c35 21 73 34 113 34z" fill="currentColor"/>
</a>
<rect transform="translate(94.8845, 20.6411)" x="-0.0757" y="0.6731" width="0.1514" height="2.4836" ry="0.0500" fill="currentColor"/>
<a style="color:inherit;" xlink:href="textedit:///Users/tatecarson/Documents/Supercollider%20/_OrgExamples/My%20Comps/Clarinet/notationGen/LY/riverDrone/160720.13.ly:61:3:25">
<path transform="translate(94.8088, 21.1411) scale(0.0040, -0.0040)" d="M214 140c59 0 115 -32 115 -97c0 -72 -54 -121 -101 -149c-35 -21 -74 -34 -114 -34c-59 0 -114 32 -114 97c0 72 54 121 101 149c35 21 73 34 113 34z" fill="currentColor"/>
</a>
<path transform="translate(87.4233, 21.1411) scale(0.0040, -0.0040)" d="M134 37c-1 33 -19 65 -50 65c-28 0 -42 -33 -42 -65c0 -57 46 -99 89 -137c3 21 5 42 5 64v11zM181 -140c0 -16 -11 -29 -26 -29c-24 0 -32 29 -49 44c-58 52 -141 91 -141 169c0 54 34 104 84 104c35 0 69 -14 94 -38l-8 340c9 5 20 8 30 8s21 -3 30 -8z" fill="currentColor"/>
<rect transform="translate(89.7699, 20.6411)" x="-0.0757" y="-3.0000" width="0.1514" height="3.3269" ry="0.0500" fill="currentColor"/>
<a style="color:inherit;" xlink:href="textedit:///Users/tatecarson/Documents/Supercollider%20/_OrgExamples/My%20Comps/Clarinet/notationGen/LY/riverDrone/160720.13.ly:58:3:25">
<path transform="translate(88.5309, 21.1411) scale(0.0040, -0.0040)" d="M214 140c59 0 115 -32 115 -97c0 -72 -54 -121 -101 -149c-35 -21 -74 -34 -114 -34c-59 0 -114 32 -114 97c0 72 54 121 101 149c35 21 73 34 113 34z" fill="currentColor"/>
</a>
<rect transform="translate(103.7269, 20.6411)" x="-0.0757" y="-4.4703" width="0.1514" height="2.2972" ry="0.0500" fill="currentColor"/>
<a style="color:inherit;" xlink:href="textedit:///Users/tatecarson/Documents/Supercollider%20/_OrgExamples/My%20Comps/Clarinet/notationGen/LY/riverDrone/160720.13.ly:62:10:32">
<path transform="translate(102.4880, 18.6411) scale(0.0040, -0.0040)" d="M214 140c59 0 115 -32 115 -97c0 -72 -54 -121 -101 -149c-35 -21 -74 -34 -114 -34c-59 0 -114 32 -114 97c0 72 54 121 101 149c35 21 73 34 113 34z" fill="currentColor"/>
</a>
<rect transform="translate(98.8491, 20.6411)" x="-0.0757" y="-1.8269" width="0.1514" height="3.6701" ry="0.0500" fill="currentColor"/>
<a style="color:inherit;" xlink:href="textedit:///Users/tatecarson/Documents/Supercollider%20/_OrgExamples/My%20Comps/Clarinet/notationGen/LY/riverDrone/160720.13.ly:62:3:25">
<path transform="translate(98.7734, 18.6411) scale(0.0040, -0.0040)" d="M214 140c59 0 115 -32 115 -97c0 -72 -54 -121 -101 -149c-35 -21 -74 -34 -114 -34c-59 0 -114 32 -114 97c0 72 54 121 101 149c35 21 73 34 113 34z" fill="currentColor"/>
</a>
<rect transform="translate(24.0871, 20.6411)" x="-0.0757" y="-0.0000" width="0.1514" height="4.8269" ry="0.0500" fill="currentColor"/>
<path transform="translate(19.2264, 22.6470) scale(0.0040, -0.0040)" d="M201 296c23 15 46 29 62 51c12 16 20 35 28 52c2 4 6 6 10 6c7 0 14 -5 14 -15v-233h76c11 0 16 -8 16 -16s-5 -16 -16 -16h-76v-2c0 -50 30 -97 77 -97c9 0 12 -7 12 -13s-3 -13 -12 -13c-46 0 -92 13 -138 13s-93 -13 -139 -13c-9 0 -12 7 -12 13s3 13 12 13
c47 0 77 47 77 97v2h-160c-26 0 -34 15 -34 25c0 3 1 6 2 7c79 91 131 205 131 325c0 10 7 18 15 18h3c24 -7 49 -13 74 -13s50 6 74 13c2 1 3 1 5 1c9 0 15 -7 15 -13c0 -2 0 -4 -2 -6l-283 -325h160v115c0 9 1 19 9 24z" fill="currentColor"/>
<path transform="translate(19.2264, 20.6411) scale(0.0040, -0.0040)" d="M201 296c23 15 46 29 62 51c12 16 20 35 28 52c2 4 6 6 10 6c7 0 14 -5 14 -15v-233h76c11 0 16 -8 16 -16s-5 -16 -16 -16h-76v-2c0 -50 30 -97 77 -97c9 0 12 -7 12 -13s-3 -13 -12 -13c-46 0 -92 13 -138 13s-93 -13 -139 -13c-9 0 -12 7 -12 13s3 13 12 13
c47 0 77 47 77 97v2h-160c-26 0 -34 15 -34 25c0 3 1 6 2 7c79 91 131 205 131 325c0 10 7 18 15 18h3c24 -7 49 -13 74 -13s50 6 74 13c2 1 3 1 5 1c9 0 15 -7 15 -13c0 -2 0 -4 -2 -6l-283 -325h160v115c0 9 1 19 9 24z" fill="currentColor"/>
<path transform="translate(15.0264, 21.6411) scale(0.0040, -0.0040)" d="M379 264c3 0 7 1 10 1c157 0 258 -129 258 -263c0 -77 -33 -155 -108 -211c-22 -16 -46 -29 -72 -37c3 -33 4 -66 4 -99c0 -21 0 -41 -1 -62c-7 -121 -91 -229 -211 -229c-108 0 -196 88 -196 197c0 58 54 103 113 103c54 0 95 -47 95 -103c0 -52 -43 -95 -95 -95
c-9 0 -18 1 -27 4c25 -37 66 -61 113 -61c95 0 156 93 162 191c1 19 2 38 2 57c0 29 -1 58 -3 87c-29 -5 -58 -8 -88 -8c-189 0 -333 173 -333 376c0 177 129 308 244 443c-20 62 -40 124 -48 189c-7 52 -7 105 -7 158c0 114 54 221 147 288c4 3 8 4 12 4c5 0 9 -2 13 -5
c72 -83 135 -243 135 -356c0 -142 -84 -255 -176 -364c21 -68 40 -136 57 -205zM463 -201c65 24 110 94 110 161c0 88 -64 175 -167 188c24 -114 44 -227 57 -349zM77 25c0 -133 128 -243 261 -243c27 0 55 1 81 5c-13 126 -35 244 -60 362c-79 -8 -124 -60 -124 -118
c0 -43 25 -88 80 -120c5 -5 7 -11 7 -17c0 -12 -10 -23 -23 -23c-3 0 -7 1 -10 2c-81 43 -118 115 -118 186c0 89 60 177 163 200c-14 57 -30 113 -47 169c-105 -122 -210 -243 -210 -403zM403 1038c-99 -46 -161 -145 -161 -254c0 -71 21 -130 39 -188
c78 97 142 199 142 324c0 51 -4 72 -20 118z" fill="currentColor"/>
<a style="color:inherit;" xlink:href="textedit:///Users/tatecarson/Documents/Supercollider%20/_OrgExamples/My%20Comps/Clarinet/notationGen/LY/riverDrone/160720.13.ly:38:3:25">
<path transform="translate(22.8482, 25.6411) scale(0.0040, -0.0040)" d="M214 140c59 0 115 -32 115 -97c0 -72 -54 -121 -101 -149c-35 -21 -74 -34 -114 -34c-59 0 -114 32 -114 97c0 72 54 121 101 149c35 21 73 34 113 34z" fill="currentColor"/>
</a>
<rect transform="translate(84.8552, 20.6411)" x="-0.0757" y="-0.0000" width="0.1514" height="3.8269" ry="0.0500" fill="currentColor"/>
<a style="color:inherit;" xlink:href="textedit:///Users/tatecarson/Documents/Supercollider%20/_OrgExamples/My%20Comps/Clarinet/notationGen/LY/riverDrone/160720.13.ly:57:3:25">
<path transform="translate(83.6163, 24.6411) scale(0.0040, -0.0040)" d="M214 140c59 0 115 -32 115 -97c0 -72 -54 -121 -101 -149c-35 -21 -74 -34 -114 -34c-59 0 -114 32 -114 97c0 72 54 121 101 149c35 21 73 34 113 34z" fill="currentColor"/>
</a>
<path transform="translate(79.8137, 24.6411) scale(0.0040, -0.0040)" d="M31 37l-2 -62v-11c0 -22 2 -43 5 -64c43 38 89 80 89 137c0 32 -14 65 -42 65c-31 0 -49 -32 -50 -65zM-16 -140l-14 590c9 5 20 8 30 8s21 -3 30 -8l-8 -340c25 24 59 38 94 38c50 0 84 -50 84 -104c0 -78 -83 -117 -141 -169c-17 -15 -25 -44 -49 -44
c-15 0 -26 13 -26 29z" fill="currentColor"/>
<path transform="translate(82.2783, 20.6911) scale(0.0040, -0.0040)" d="M0 0c0 -177 203 -291 203 -468c0 -33 -8 -65 -23 -95c18 -36 29 -75 29 -117c0 -63 -15 -125 -41 -182c-5 -9 -14 -13 -22 -13c-14 0 -29 12 -26 30c26 51 43 107 43 165c0 96 -93 189 -163 255v-75h-19v500h19zM150 -511c4 14 7 28 7 43c0 95 -90 189 -157 256
c0 -116 88 -203 150 -299z" fill="currentColor"/>
<rect transform="translate(82.2026, 20.6411)" x="-0.0757" y="-0.0000" width="0.1514" height="3.8269" ry="0.0500" fill="currentColor"/>
<a style="color:inherit;" xlink:href="textedit:///Users/tatecarson/Documents/Supercollider%20/_OrgExamples/My%20Comps/Clarinet/notationGen/LY/riverDrone/160720.13.ly:56:3:25">
<path transform="translate(80.9637, 24.6411) scale(0.0040, -0.0040)" d="M214 140c59 0 115 -32 115 -97c0 -72 -54 -121 -101 -149c-35 -21 -74 -34 -114 -34c-59 0 -114 32 -114 97c0 72 54 121 101 149c35 21 73 34 113 34z" fill="currentColor"/>
</a>
<path transform="translate(78.3032, 20.1411) scale(0.0040, -0.0040)" d="M0 0c0 30 25 55 55 55s55 -25 55 -55s-25 -55 -55 -55s-55 25 -55 55z" fill="currentColor"/>
<a style="color:inherit;" xlink:href="textedit:///Users/tatecarson/Documents/Supercollider%20/_OrgExamples/My%20Comps/Clarinet/notationGen/LY/riverDrone/160720.13.ly:55:3:25">
<path transform="translate(76.8617, 20.6411) scale(0.0040, -0.0040)" d="M67 -250l118 326c-33 -12 -66 -22 -101 -22c-46 0 -87 34 -87 79c0 40 33 72 73 72c25 0 49 -14 57 -37c10 -27 4 -59 33 -59c14 0 50 42 56 55c7 14 28 14 34 0l-119 -414c-9 -8 -21 -12 -32 -12s-23 4 -32 12z" fill="currentColor"/>
</a>
<a style="color:inherit;" xlink:href="textedit:///Users/tatecarson/Documents/Supercollider%20/_OrgExamples/My%20Comps/Clarinet/notationGen/LY/riverDrone/160720.13.ly:65:3:25">
<path transform="translate(113.8845, 20.6411) scale(0.0040, -0.0040)" d="M67 -250l118 326c-33 -12 -66 -22 -101 -22c-46 0 -87 34 -87 79c0 40 33 72 73 72c25 0 49 -14 57 -37c10 -27 4 -59 33 -59c14 0 50 42 56 55c7 14 28 14 34 0l-119 -414c-9 -8 -21 -12 -32 -12s-23 4 -32 12z" fill="currentColor"/>
</a>
<path transform="translate(115.3259, 20.1411) scale(0.0040, -0.0040)" d="M0 0c0 30 25 55 55 55s55 -25 55 -55s-25 -55 -55 -55s-55 25 -55 55z" fill="currentColor"/>
<a style="color:inherit;" xlink:href="textedit:///Users/tatecarson/Documents/Supercollider%20/_OrgExamples/My%20Comps/Clarinet/notationGen/LY/riverDrone/160720.13.ly:66:3:25">
<path transform="translate(117.9864, 20.6411) scale(0.0040, -0.0040)" d="M-24 -119c0 31 14 43 46 43c30 0 69 -9 106 -23l-126 151c-7 9 -11 17 -11 26c0 34 51 66 88 101c23 22 36 51 36 81c0 25 -9 50 -26 70l-31 37c-3 4 -4 8 -4 12c0 10 9 18 19 18c5 0 9 -1 13 -6l149 -178c7 -9 11 -17 11 -26c0 -34 -52 -66 -89 -101
c-23 -22 -35 -51 -35 -81c0 -25 9 -51 26 -71l79 -94c3 -4 4 -8 4 -12c0 -10 -9 -18 -19 -18c-5 0 -9 2 -13 7c-16 19 -57 33 -89 33c-41 0 -55 -23 -55 -65c0 -33 11 -73 27 -92c6 -7 0 -15 -7 -15c-2 0 -5 2 -7 4c-44 53 -92 145 -92 199z" fill="currentColor"/>
</a>
<a style="color:inherit;" xlink:href="textedit:///Users/tatecarson/Documents/Supercollider%20/_OrgExamples/My%20Comps/Clarinet/notationGen/LY/riverDrone/160720.13.ly:69:3:25">
<path transform="translate(123.6576, 25.6411) scale(0.0040, -0.0040)" d="M214 140c59 0 115 -32 115 -97c0 -72 -54 -121 -101 -149c-35 -21 -74 -34 -114 -34c-59 0 -114 32 -114 97c0 72 54 121 101 149c35 21 73 34 113 34z" fill="currentColor"/>
</a>
<rect transform="translate(124.8966, 20.6411)" x="-0.0757" y="-0.0000" width="0.1514" height="4.8269" ry="0.0500" fill="currentColor"/>
<path transform="translate(133.0929, 18.1411) scale(0.0040, -0.0040)" d="M0 0c0 30 25 55 55 55s55 -25 55 -55s-25 -55 -55 -55s-55 25 -55 55z" fill="currentColor"/>
<a style="color:inherit;" xlink:href="textedit:///Users/tatecarson/Documents/Supercollider%20/_OrgExamples/My%20Comps/Clarinet/notationGen/LY/riverDrone/160720.13.ly:71:3:25">
<path transform="translate(131.3369, 18.6411) scale(0.0040, -0.0040)" d="M214 140c59 0 115 -32 115 -97c0 -72 -54 -121 -101 -149c-35 -21 -74 -34 -114 -34c-59 0 -114 32 -114 97c0 72 54 121 101 149c35 21 73 34 113 34z" fill="currentColor"/>
</a>
<rect transform="translate(129.8112, 20.6411)" x="-0.0757" y="-3.5436" width="0.1514" height="8.3705" ry="0.0500" fill="currentColor"/>
<a style="color:inherit;" xlink:href="textedit:///Users/tatecarson/Documents/Supercollider%20/_OrgExamples/My%20Comps/Clarinet/notationGen/LY/riverDrone/160720.13.ly:70:3:25">
<path transform="translate(128.5723, 25.6411) scale(0.0040, -0.0040)" d="M214 140c59 0 115 -32 115 -97c0 -72 -54 -121 -101 -149c-35 -21 -74 -34 -114 -34c-59 0 -114 32 -114 97c0 72 54 121 101 149c35 21 73 34 113 34z" fill="currentColor"/>
</a>
<a style="color:inherit;" xlink:href="textedit:///Users/tatecarson/Documents/Supercollider%20/_OrgExamples/My%20Comps/Clarinet/notationGen/LY/riverDrone/160720.13.ly:63:3:25">
<path transform="translate(106.2026, 21.1411) scale(0.0040, -0.0040)" d="M214 140c59 0 115 -32 115 -97c0 -72 -54 -121 -101 -149c-35 -21 -74 -34 -114 -34c-59 0 -114 32 -114 97c0 72 54 121 101 149c35 21 73 34 113 34z" fill="currentColor"/>
</a>
<rect transform="translate(107.4416, 20.6411)" x="-0.0757" y="-3.0149" width="0.1514" height="3.3418" ry="0.0500" fill="currentColor"/>
<path transform="translate(105.0950, 21.1411) scale(0.0040, -0.0040)" d="M134 37c-1 33 -19 65 -50 65c-28 0 -42 -33 -42 -65c0 -57 46 -99 89 -137c3 21 5 42 5 64v11zM181 -140c0 -16 -11 -29 -26 -29c-24 0 -32 29 -49 44c-58 52 -141 91 -141 169c0 54 34 104 84 104c35 0 69 -14 94 -38l-8 340c9 5 20 8 30 8s21 -3 30 -8z" fill="currentColor"/>
<a style="color:inherit;" xlink:href="textedit:///Users/tatecarson/Documents/Supercollider%20/_OrgExamples/My%20Comps/Clarinet/notationGen/LY/riverDrone/160720.13.ly:64:3:25">
<path transform="translate(108.7172, 24.6411) scale(0.0040, -0.0040)" d="M214 140c59 0 115 -32 115 -97c0 -72 -54 -121 -101 -149c-35 -21 -74 -34 -114 -34c-59 0 -114 32 -114 97c0 72 54 121 101 149c35 21 73 34 113 34z" fill="currentColor"/>
</a>
<rect transform="translate(109.9562, 20.6411)" x="-0.0757" y="-2.0297" width="0.1514" height="5.8565" ry="0.0500" fill="currentColor"/>
<path transform="translate(107.5672, 24.6411) scale(0.0040, -0.0040)" d="M31 37l-2 -62v-11c0 -22 2 -43 5 -64c43 38 89 80 89 137c0 32 -14 65 -42 65c-31 0 -49 -32 -50 -65zM-16 -140l-14 590c9 5 20 8 30 8s21 -3 30 -8l-8 -340c25 24 59 38 94 38c50 0 84 -50 84 -104c0 -78 -83 -117 -141 -169c-17 -15 -25 -44 -49 -44
c-15 0 -26 13 -26 29z" fill="currentColor"/>
<a style="color:inherit;" xlink:href="textedit:///Users/tatecarson/Documents/Supercollider%20/_OrgExamples/My%20Comps/Clarinet/notationGen/LY/riverDrone/160720.13.ly:64:10:32">
<path transform="translate(111.2319, 24.6411) scale(0.0040, -0.0040)" d="M214 140c59 0 115 -32 115 -97c0 -72 -54 -121 -101 -149c-35 -21 -74 -34 -114 -34c-59 0 -114 32 -114 97c0 72 54 121 101 149c35 21 73 34 113 34z" fill="currentColor"/>
</a>
<path transform="translate(112.5465, 20.6911) scale(0.0040, -0.0040)" d="M0 0c0 -177 203 -291 203 -468c0 -33 -8 -65 -23 -95c18 -36 29 -75 29 -117c0 -63 -15 -125 -41 -182c-5 -9 -14 -13 -22 -13c-14 0 -29 12 -26 30c26 51 43 107 43 165c0 96 -93 189 -163 255v-75h-19v500h19zM150 -511c4 14 7 28 7 43c0 95 -90 189 -157 256
c0 -116 88 -203 150 -299z" fill="currentColor"/>
<rect transform="translate(112.4708, 20.6411)" x="-0.0757" y="-0.0000" width="0.1514" height="3.8269" ry="0.0500" fill="currentColor"/>
</svg>
