<svg xmlns="http://www.w3.org/2000/svg" xmlns:xlink="http://www.w3.org/1999/xlink" version="1.2" width="297.00mm" height="210.00mm" viewBox="0 0 211.2617 149.3770">
<!-- Page: 1/1 -->
<text transform="translate(14.2264, 14.2264)" font-family="Century Schoolbook L" font-size="2.1999" text-anchor="start" fill="currentColor">
<tspan>
 </tspan>
</text>
<rect transform="translate(49.8998, 20.9192)" x="0.0000" y="-2.0000" width="0.2212" height="4.0000" ry="0.0000" fill="currentColor"/>
<rect transform="translate(35.0974, 20.9192)" x="0.0000" y="-2.0000" width="0.2212" height="4.0000" ry="0.0000" fill="currentColor"/>
<rect transform="translate(127.2470, 20.9192)" x="0.0000" y="-2.0000" width="0.2212" height="4.0000" ry="0.0000" fill="currentColor"/>
<rect transform="translate(74.4298, 20.9192)" x="0.0000" y="-2.0000" width="0.2212" height="4.0000" ry="0.0000" fill="currentColor"/>
<rect transform="translate(58.7681, 20.9192)" x="0.0000" y="-2.0000" width="0.2212" height="4.0000" ry="0.0000" fill="currentColor"/>
<rect transform="translate(102.7169, 20.9192)" x="0.0000" y="-2.0000" width="0.2212" height="4.0000" ry="0.0000" fill="currentColor"/>
<rect transform="translate(87.9145, 20.9192)" x="0.0000" y="-2.0000" width="0.2212" height="4.0000" ry="0.0000" fill="currentColor"/>
<rect transform="translate(111.5853, 20.9192)" x="0.0000" y="-2.0000" width="0.2212" height="4.0000" ry="0.0000" fill="currentColor"/>
<rect transform="translate(140.7317, 20.9192)" x="0.0000" y="-2.0000" width="0.2212" height="4.0000" ry="0.0000" fill="currentColor"/>
<rect transform="translate(14.2264, 17.9192)" x="8.2932" y="-0.1082" width="1.9719" height="0.2164" ry="0.1082" fill="currentColor"/>
<rect transform="translate(14.2264, 16.9192)" x="8.2932" y="-0.1082" width="1.9719" height="0.2164" ry="0.1082" fill="currentColor"/>
<rect transform="translate(14.2264, 17.9192)" x="12.0078" y="-0.1082" width="1.9719" height="0.2164" ry="0.1082" fill="currentColor"/>
<rect transform="translate(14.2264, 16.9192)" x="12.1614" y="-0.1082" width="1.8183" height="0.2164" ry="0.1082" fill="currentColor"/>
<rect transform="translate(14.2264, 17.9192)" x="15.8972" y="-0.1082" width="1.9020" height="0.2164" ry="0.1082" fill="currentColor"/>
<rect transform="translate(14.2264, 17.9192)" x="21.8064" y="-0.1082" width="1.9719" height="0.2164" ry="0.1082" fill="currentColor"/>
<rect transform="translate(14.2264, 17.9192)" x="31.0710" y="-0.1082" width="1.9719" height="0.2164" ry="0.1082" fill="currentColor"/>
<rect transform="translate(14.2264, 16.9192)" x="31.0710" y="-0.1082" width="1.9719" height="0.2164" ry="0.1082" fill="currentColor"/>
<rect transform="translate(14.2264, 17.9192)" x="37.3078" y="-0.1082" width="2.9207" height="0.2164" ry="0.1082" fill="currentColor"/>
<rect transform="translate(14.2264, 16.9192)" x="37.3078" y="-0.1082" width="2.9207" height="0.2164" ry="0.1082" fill="currentColor"/>
<rect transform="translate(14.2264, 17.9192)" x="45.4772" y="-0.1082" width="1.9719" height="0.2164" ry="0.1082" fill="currentColor"/>
<rect transform="translate(14.2264, 16.9192)" x="45.4772" y="-0.1082" width="1.9719" height="0.2164" ry="0.1082" fill="currentColor"/>
<rect transform="translate(14.2264, 17.9192)" x="48.7148" y="-0.1082" width="1.7971" height="0.2164" ry="0.1082" fill="currentColor"/>
<rect transform="translate(14.2264, 17.9192)" x="51.0335" y="-0.1082" width="2.0978" height="0.2164" ry="0.1082" fill="currentColor"/>
<rect transform="translate(14.2264, 17.9192)" x="56.3030" y="-0.1082" width="1.9719" height="0.2164" ry="0.1082" fill="currentColor"/>
<rect transform="translate(14.2264, 16.9192)" x="56.3030" y="-0.1082" width="1.9719" height="0.2164" ry="0.1082" fill="currentColor"/>
<rect transform="translate(14.2264, 17.9192)" x="61.1103" y="-0.1082" width="1.9719" height="0.2164" ry="0.1082" fill="currentColor"/>
<rect transform="translate(14.2264, 16.9192)" x="61.1103" y="-0.1082" width="1.9719" height="0.2164" ry="0.1082" fill="currentColor"/>
<rect transform="translate(14.2264, 17.9192)" x="64.8249" y="-0.1082" width="1.9719" height="0.2164" ry="0.1082" fill="currentColor"/>
<rect transform="translate(14.2264, 16.9192)" x="64.9786" y="-0.1082" width="1.8183" height="0.2164" ry="0.1082" fill="currentColor"/>
<rect transform="translate(14.2264, 17.9192)" x="68.7144" y="-0.1082" width="1.9020" height="0.2164" ry="0.1082" fill="currentColor"/>
<rect transform="translate(14.2264, 17.9192)" x="74.6236" y="-0.1082" width="1.9719" height="0.2164" ry="0.1082" fill="currentColor"/>
<rect transform="translate(14.2264, 17.9192)" x="83.8882" y="-0.1082" width="1.9719" height="0.2164" ry="0.1082" fill="currentColor"/>
<rect transform="translate(14.2264, 16.9192)" x="83.8882" y="-0.1082" width="1.9719" height="0.2164" ry="0.1082" fill="currentColor"/>
<rect transform="translate(14.2264, 17.9192)" x="90.1250" y="-0.1082" width="2.9207" height="0.2164" ry="0.1082" fill="currentColor"/>
<rect transform="translate(14.2264, 16.9192)" x="90.1250" y="-0.1082" width="2.9207" height="0.2164" ry="0.1082" fill="currentColor"/>
<rect transform="translate(14.2264, 17.9192)" x="98.2943" y="-0.1082" width="1.9719" height="0.2164" ry="0.1082" fill="currentColor"/>
<rect transform="translate(14.2264, 16.9192)" x="98.2943" y="-0.1082" width="1.9719" height="0.2164" ry="0.1082" fill="currentColor"/>
<rect transform="translate(14.2264, 17.9192)" x="101.5319" y="-0.1082" width="1.7971" height="0.2164" ry="0.1082" fill="currentColor"/>
<rect transform="translate(14.2264, 17.9192)" x="103.8507" y="-0.1082" width="2.0978" height="0.2164" ry="0.1082" fill="currentColor"/>
<rect transform="translate(14.2264, 17.9192)" x="109.1202" y="-0.1082" width="1.9719" height="0.2164" ry="0.1082" fill="currentColor"/>
<rect transform="translate(14.2264, 16.9192)" x="109.1202" y="-0.1082" width="1.9719" height="0.2164" ry="0.1082" fill="currentColor"/>
<rect transform="translate(14.2264, 17.9192)" x="113.9275" y="-0.1082" width="1.9719" height="0.2164" ry="0.1082" fill="currentColor"/>
<rect transform="translate(14.2264, 16.9192)" x="113.9275" y="-0.1082" width="1.9719" height="0.2164" ry="0.1082" fill="currentColor"/>
<rect transform="translate(14.2264, 17.9192)" x="117.6421" y="-0.1082" width="1.9719" height="0.2164" ry="0.1082" fill="currentColor"/>
<rect transform="translate(14.2264, 16.9192)" x="117.7957" y="-0.1082" width="1.8183" height="0.2164" ry="0.1082" fill="currentColor"/>
<rect transform="translate(14.2264, 17.9192)" x="121.5315" y="-0.1082" width="1.9020" height="0.2164" ry="0.1082" fill="currentColor"/>
<rect transform="translate(14.2264, 17.9192)" x="127.4407" y="-0.1082" width="1.9719" height="0.2164" ry="0.1082" fill="currentColor"/>
<rect transform="translate(14.2264, 17.9192)" x="136.7053" y="-0.1082" width="1.9719" height="0.2164" ry="0.1082" fill="currentColor"/>
<rect transform="translate(14.2264, 16.9192)" x="136.7053" y="-0.1082" width="1.9719" height="0.2164" ry="0.1082" fill="currentColor"/>
<line transform="translate(14.2264, 22.9192)" stroke-linejoin="round" stroke-linecap="round" stroke-width="0.1164" stroke="currentColor" x1="0.0582" y1="-0.0000" x2="141.4707" y2="-0.0000"/>
<line transform="translate(14.2264, 21.9192)" stroke-linejoin="round" stroke-linecap="round" stroke-width="0.1164" stroke="currentColor" x1="0.0582" y1="-0.0000" x2="141.4707" y2="-0.0000"/>
<line transform="translate(14.2264, 20.9192)" stroke-linejoin="round" stroke-linecap="round" stroke-width="0.1164" stroke="currentColor" x1="0.0582" y1="-0.0000" x2="141.4707" y2="-0.0000"/>
<line transform="translate(14.2264, 19.9192)" stroke-linejoin="round" stroke-linecap="round" stroke-width="0.1164" stroke="currentColor" x1="0.0582" y1="-0.0000" x2="141.4707" y2="-0.0000"/>
<line transform="translate(14.2264, 18.9192)" stroke-linejoin="round" stroke-linecap="round" stroke-width="0.1164" stroke="currentColor" x1="0.0582" y1="-0.0000" x2="141.4707" y2="-0.0000"/>
<rect transform="translate(155.5341, 20.9192)" x="0.0000" y="-2.0000" width="0.2212" height="4.0000" ry="0.0000" fill="currentColor"/>
<a style="color:inherit;" xlink:href="textedit:///Users/tatecarson/Documents/Supercollider%20/_OrgExamples/My%20Comps/Clarinet/notationGen/LY/rainGutter/160720.6.ly:81:3:25">
<path transform="translate(141.9957, 17.9192) scale(0.0040, -0.0040)" d="M214 140c59 0 115 -32 115 -97c0 -72 -54 -121 -101 -149c-35 -21 -74 -34 -114 -34c-59 0 -114 32 -114 97c0 72 54 121 101 149c35 21 73 34 113 34z" fill="currentColor"/>
</a>
<rect transform="translate(142.0714, 20.9192)" x="-0.0757" y="-2.8269" width="0.1514" height="3.3269" ry="0.0500" fill="currentColor"/>
<rect transform="translate(151.3360, 20.9192)" x="-0.0757" y="-4.3269" width="0.1514" height="4.3269" ry="0.0500" fill="currentColor"/>
<path transform="translate(153.0164, 16.4192) scale(0.0040, -0.0040)" d="M0 0c0 30 25 55 55 55s55 -25 55 -55s-25 -55 -55 -55s-55 25 -55 55z" fill="currentColor"/>
<a style="color:inherit;" xlink:href="textedit:///Users/tatecarson/Documents/Supercollider%20/_OrgExamples/My%20Comps/Clarinet/notationGen/LY/rainGutter/160720.6.ly:83:3:25">
<path transform="translate(151.2604, 16.4192) scale(0.0040, -0.0040)" d="M214 140c59 0 115 -32 115 -97c0 -72 -54 -121 -101 -149c-35 -21 -74 -34 -114 -34c-59 0 -114 32 -114 97c0 72 54 121 101 149c35 21 73 34 113 34z" fill="currentColor"/>
</a>
<a style="color:inherit;" xlink:href="textedit:///Users/tatecarson/Documents/Supercollider%20/_OrgExamples/My%20Comps/Clarinet/notationGen/LY/rainGutter/160720.6.ly:82:6:28">
<path transform="translate(149.0604, 20.9192) scale(0.0040, -0.0040)" d="M67 -250l118 326c-33 -12 -66 -22 -101 -22c-46 0 -87 34 -87 79c0 40 33 72 73 72c25 0 49 -14 57 -37c10 -27 4 -59 33 -59c14 0 50 42 56 55c7 14 28 14 34 0l-119 -414c-9 -8 -21 -12 -32 -12s-23 4 -32 12z" fill="currentColor"/>
</a>
<a style="color:inherit;" xlink:href="textedit:///Users/tatecarson/Documents/Supercollider%20/_OrgExamples/My%20Comps/Clarinet/notationGen/LY/rainGutter/160720.6.ly:82:3:25">
<path transform="translate(145.7104, 20.9192) scale(0.0040, -0.0040)" d="M-24 -119c0 31 14 43 46 43c30 0 69 -9 106 -23l-126 151c-7 9 -11 17 -11 26c0 34 51 66 88 101c23 22 36 51 36 81c0 25 -9 50 -26 70l-31 37c-3 4 -4 8 -4 12c0 10 9 18 19 18c5 0 9 -1 13 -6l149 -178c7 -9 11 -17 11 -26c0 -34 -52 -66 -89 -101
c-23 -22 -35 -51 -35 -81c0 -25 9 -51 26 -71l79 -94c3 -4 4 -8 4 -12c0 -10 -9 -18 -19 -18c-5 0 -9 2 -13 7c-16 19 -57 33 -89 33c-41 0 -55 -23 -55 -65c0 -33 11 -73 27 -92c6 -7 0 -15 -7 -15c-2 0 -5 2 -7 4c-44 53 -92 145 -92 199z" fill="currentColor"/>
</a>
<rect transform="translate(128.5582, 20.9192)" x="-0.0757" y="-3.8269" width="0.1514" height="3.8269" ry="0.0500" fill="currentColor"/>
<a style="color:inherit;" xlink:href="textedit:///Users/tatecarson/Documents/Supercollider%20/_OrgExamples/My%20Comps/Clarinet/notationGen/LY/rainGutter/160720.6.ly:76:3:25">
<path transform="translate(128.4825, 16.9192) scale(0.0040, -0.0040)" d="M214 140c59 0 115 -32 115 -97c0 -72 -54 -121 -101 -149c-35 -21 -74 -34 -114 -34c-59 0 -114 32 -114 97c0 72 54 121 101 149c35 21 73 34 113 34z" fill="currentColor"/>
</a>
<rect transform="translate(123.7509, 20.9192)" x="-0.0757" y="-4.3269" width="0.1514" height="4.3269" ry="0.0500" fill="currentColor"/>
<a style="color:inherit;" xlink:href="textedit:///Users/tatecarson/Documents/Supercollider%20/_OrgExamples/My%20Comps/Clarinet/notationGen/LY/rainGutter/160720.6.ly:73:3:25">
<path transform="translate(123.6752, 16.4192) scale(0.0040, -0.0040)" d="M214 140c59 0 115 -32 115 -97c0 -72 -54 -121 -101 -149c-35 -21 -74 -34 -114 -34c-59 0 -114 32 -114 97c0 72 54 121 101 149c35 21 73 34 113 34z" fill="currentColor"/>
</a>
<rect transform="translate(118.5024, 20.9192)" x="-0.0757" y="-2.7518" width="0.1514" height="3.2518" ry="0.0500" fill="currentColor"/>
<a style="color:inherit;" xlink:href="textedit:///Users/tatecarson/Documents/Supercollider%20/_OrgExamples/My%20Comps/Clarinet/notationGen/LY/rainGutter/160720.6.ly:72:3:25">
<path transform="translate(118.4267, 17.9192) scale(0.0040, -0.0040)" d="M312 63c0 23 -20 40 -41 40c-4 0 -7 -1 -11 -2c-30 -8 -75 -38 -111 -61s-81 -52 -101 -76c-7 -8 -10 -17 -10 -27c0 -23 19 -40 40 -40c4 0 8 1 12 2c30 8 75 38 111 61s81 52 101 76c7 8 10 17 10 27zM258 140c51 0 92 -23 92 -78c0 -19 -4 -38 -10 -56
c-11 -38 -31 -75 -64 -97c-53 -36 -112 -49 -185 -49c-51 0 -91 23 -91 78c0 19 4 38 10 56c11 38 30 75 63 97c53 36 112 49 185 49z" fill="currentColor"/>
</a>
<path transform="translate(114.8045, 17.9192) scale(0.0040, -0.0040)" d="M134 37c-1 33 -19 65 -50 65c-28 0 -42 -33 -42 -65c0 -57 46 -99 89 -137c3 21 5 42 5 64v11zM181 -140c0 -16 -11 -29 -26 -29c-24 0 -32 29 -49 44c-58 52 -141 91 -141 169c0 54 34 104 84 104c35 0 69 -14 94 -38l-8 340c9 5 20 8 30 8s21 -3 30 -8z" fill="currentColor"/>
<path transform="translate(134.8041, 17.9192) scale(0.0040, -0.0040)" d="M134 37c-1 33 -19 65 -50 65c-28 0 -42 -33 -42 -65c0 -57 46 -99 89 -137c3 21 5 42 5 64v11zM181 -140c0 -16 -11 -29 -26 -29c-24 0 -32 29 -49 44c-58 52 -141 91 -141 169c0 54 34 104 84 104c35 0 69 -14 94 -38l-8 340c9 5 20 8 30 8s21 -3 30 -8z" fill="currentColor"/>
<rect transform="translate(135.9874, 20.9192)" x="-0.0757" y="-2.7518" width="0.1514" height="3.2518" ry="0.0500" fill="currentColor"/>
<a style="color:inherit;" xlink:href="textedit:///Users/tatecarson/Documents/Supercollider%20/_OrgExamples/My%20Comps/Clarinet/notationGen/LY/rainGutter/160720.6.ly:78:3:25">
<path transform="translate(135.9117, 17.9192) scale(0.0040, -0.0040)" d="M312 63c0 23 -20 40 -41 40c-4 0 -7 -1 -11 -2c-30 -8 -75 -38 -111 -61s-81 -52 -101 -76c-7 -8 -10 -17 -10 -27c0 -23 19 -40 40 -40c4 0 8 1 12 2c30 8 75 38 111 61s81 52 101 76c7 8 10 17 10 27zM258 140c51 0 92 -23 92 -78c0 -19 -4 -38 -10 -56
c-11 -38 -31 -75 -64 -97c-53 -36 -112 -49 -185 -49c-51 0 -91 23 -91 78c0 19 4 38 10 56c11 38 30 75 63 97c53 36 112 49 185 49z" fill="currentColor"/>
</a>
<path transform="translate(131.1471, 16.9192) scale(0.0040, -0.0040)" d="M87 -337c-12 0 -20 9 -20 21v116l-29 -17c-4 -2 -9 -4 -13 -4c-13 0 -25 11 -25 26v54c0 9 4 16 12 21l55 33v150l-29 -17c-4 -2 -9 -4 -13 -4c-13 0 -25 10 -25 25v54c0 9 4 17 12 22l55 32v141c0 12 8 21 20 21s21 -9 21 -21v-116l29 17c4 2 9 4 13 4
c13 0 25 -11 25 -26v-54c0 -9 -4 -16 -12 -21l-55 -33v-150l29 17c4 2 9 4 13 4c13 0 25 -10 25 -25v-54c0 -9 -4 -17 -12 -22l-55 -32v-141c0 -12 -9 -21 -21 -21z" fill="currentColor"/>
<rect transform="translate(132.2728, 20.9192)" x="-0.0757" y="-3.8269" width="0.1514" height="3.8269" ry="0.0500" fill="currentColor"/>
<a style="color:inherit;" xlink:href="textedit:///Users/tatecarson/Documents/Supercollider%20/_OrgExamples/My%20Comps/Clarinet/notationGen/LY/rainGutter/160720.6.ly:77:3:25">
<path transform="translate(132.1971, 16.9192) scale(0.0040, -0.0040)" d="M214 140c59 0 115 -32 115 -97c0 -72 -54 -121 -101 -149c-35 -21 -74 -34 -114 -34c-59 0 -114 32 -114 97c0 72 54 121 101 149c35 21 73 34 113 34z" fill="currentColor"/>
</a>
<a style="color:inherit;" xlink:href="textedit:///Users/tatecarson/Documents/Supercollider%20/_OrgExamples/My%20Comps/Clarinet/notationGen/LY/rainGutter/160720.6.ly:48:3:25">
<path transform="translate(52.0210, 16.4192) scale(0.0040, -0.0040)" d="M212 110c-49 0 -67 -43 -67 -88c0 -74 56 -132 129 -132c49 0 67 43 67 88c0 74 -56 132 -129 132zM487 0c0 -43 -34 -77 -72 -99c-52 -30 -112 -41 -172 -41s-120 11 -172 41c-38 22 -71 56 -71 99s33 77 71 99c52 30 112 41 172 41s120 -11 172 -41
c38 -22 72 -56 72 -99z" fill="currentColor"/>
</a>
<rect transform="translate(45.7017, 20.9192)" x="-0.0757" y="-4.3269" width="0.1514" height="4.3269" ry="0.0500" fill="currentColor"/>
<path transform="translate(47.3821, 16.4192) scale(0.0040, -0.0040)" d="M0 0c0 30 25 55 55 55s55 -25 55 -55s-25 -55 -55 -55s-55 25 -55 55z" fill="currentColor"/>
<a style="color:inherit;" xlink:href="textedit:///Users/tatecarson/Documents/Supercollider%20/_OrgExamples/My%20Comps/Clarinet/notationGen/LY/rainGutter/160720.6.ly:45:3:25">
<path transform="translate(45.6261, 16.4192) scale(0.0040, -0.0040)" d="M214 140c59 0 115 -32 115 -97c0 -72 -54 -121 -101 -149c-35 -21 -74 -34 -114 -34c-59 0 -114 32 -114 97c0 72 54 121 101 149c35 21 73 34 113 34z" fill="currentColor"/>
</a>
<a style="color:inherit;" xlink:href="textedit:///Users/tatecarson/Documents/Supercollider%20/_OrgExamples/My%20Comps/Clarinet/notationGen/LY/rainGutter/160720.6.ly:40:11:33">
<path transform="translate(30.2774, 20.9192)" stroke-width="0.0931" stroke-linejoin="round" stroke-linecap="round" stroke="currentColor" fill="currentColor" d="M0.899262759924383 -3.75C1.85214860930108 -4.61187332673604 5.5884477990165 -4.61187332673604 6.54133364839319 -3.75C5.5884477990165 -4.47215904102175 1.85214860930108 -4.47215904102175 0.899262759924383 -3.75z"/>
</a>
<a style="color:inherit;" xlink:href="textedit:///Users/tatecarson/Documents/Supercollider%20/_OrgExamples/My%20Comps/Clarinet/notationGen/LY/rainGutter/160720.6.ly:45:11:33">
<path transform="translate(45.6261, 20.9192)" stroke-width="0.0931" stroke-linejoin="round" stroke-linecap="round" stroke="currentColor" fill="currentColor" d="M1.51461625708885 -5.0C2.37494307159534 -5.82298399191454 5.33460158630489 -5.82298399191454 6.19492840081137 -5.0C5.33460158630489 -5.68326970620025 2.37494307159534 -5.68326970620025 1.51461625708885 -5.0z"/>
</a>
<a style="color:inherit;" xlink:href="textedit:///Users/tatecarson/Documents/Supercollider%20/_OrgExamples/My%20Comps/Clarinet/notationGen/LY/rainGutter/160720.6.ly:48:10:32">
<path transform="translate(52.0210, 20.9192)" stroke-width="0.0931" stroke-linejoin="round" stroke-linecap="round" stroke="currentColor" fill="currentColor" d="M2.1471329552615 -5.0C3.10196055600083 -5.86262521492283 6.85637678309359 -5.86262521492283 7.81120438383292 -5.0C6.85637678309359 -5.72291092920854 3.10196055600083 -5.72291092920854 2.1471329552615 -5.0z"/>
</a>
<a style="color:inherit;" xlink:href="textedit:///Users/tatecarson/Documents/Supercollider%20/_OrgExamples/My%20Comps/Clarinet/notationGen/LY/rainGutter/160720.6.ly:52:11:33">
<path transform="translate(63.0949, 20.9192)" stroke-width="0.0931" stroke-linejoin="round" stroke-linecap="round" stroke="currentColor" fill="currentColor" d="M0.857308128544425 -3.75C1.37344588821919 -4.35811762225495 2.49774125733847 -4.35811762225495 3.01387901701323 -3.75C2.49774125733847 -4.21840333654067 1.37344588821919 -4.21840333654067 0.857308128544425 -3.75z"/>
</a>
<polygon transform="translate(60.0322, 20.9192)" stroke-linejoin="round" stroke-linecap="round" stroke-width="0.1000" fill="currentColor" stroke="currentColor" points="3.1641 -0.0082 3.1641 0.3718 0.0500 0.1900 0.0500 -0.1900"/>
<a style="color:inherit;" xlink:href="textedit:///Users/tatecarson/Documents/Supercollider%20/_OrgExamples/My%20Comps/Clarinet/notationGen/LY/rainGutter/160720.6.ly:59:11:33">
<path transform="translate(83.0946, 20.9192)" stroke-width="0.0931" stroke-linejoin="round" stroke-linecap="round" stroke="currentColor" fill="currentColor" d="M0.899262759924383 -3.75C1.85214860930108 -4.61187332673604 5.58844779901648 -4.61187332673604 6.54133364839318 -3.75C5.58844779901648 -4.47215904102175 1.85214860930108 -4.47215904102175 0.899262759924383 -3.75z"/>
</a>
<a style="color:inherit;" xlink:href="textedit:///Users/tatecarson/Documents/Supercollider%20/_OrgExamples/My%20Comps/Clarinet/notationGen/LY/rainGutter/160720.6.ly:64:11:33">
<path transform="translate(98.4432, 20.9192)" stroke-width="0.0931" stroke-linejoin="round" stroke-linecap="round" stroke="currentColor" fill="currentColor" d="M1.51461625708885 -5.0C2.37494307159534 -5.82298399191454 5.33460158630488 -5.82298399191454 6.19492840081138 -5.0C5.33460158630488 -5.68326970620025 2.37494307159534 -5.68326970620025 1.51461625708885 -5.0z"/>
</a>
<a style="color:inherit;" xlink:href="textedit:///Users/tatecarson/Documents/Supercollider%20/_OrgExamples/My%20Comps/Clarinet/notationGen/LY/rainGutter/160720.6.ly:67:10:32">
<path transform="translate(104.8381, 20.9192)" stroke-width="0.0931" stroke-linejoin="round" stroke-linecap="round" stroke="currentColor" fill="currentColor" d="M2.1471329552615 -5.0C3.10196055600082 -5.86262521492283 6.85637678309361 -5.86262521492283 7.81120438383293 -5.0C6.85637678309361 -5.72291092920854 3.10196055600082 -5.72291092920854 2.1471329552615 -5.0z"/>
</a>
<a style="color:inherit;" xlink:href="textedit:///Users/tatecarson/Documents/Supercollider%20/_OrgExamples/My%20Comps/Clarinet/notationGen/LY/rainGutter/160720.6.ly:71:11:33">
<path transform="translate(115.9121, 20.9192)" stroke-width="0.0931" stroke-linejoin="round" stroke-linecap="round" stroke="currentColor" fill="currentColor" d="M0.857308128544418 -3.75C1.37344588821918 -4.35811762225496 2.49774125733848 -4.35811762225496 3.01387901701324 -3.75C2.49774125733848 -4.21840333654067 1.37344588821918 -4.21840333654067 0.857308128544418 -3.75z"/>
</a>
<polygon transform="translate(112.8493, 20.9192)" stroke-linejoin="round" stroke-linecap="round" stroke-width="0.1000" fill="currentColor" stroke="currentColor" points="3.1641 -0.0082 3.1641 0.3718 0.0500 0.1900 0.0500 -0.1900"/>
<a style="color:inherit;" xlink:href="textedit:///Users/tatecarson/Documents/Supercollider%20/_OrgExamples/My%20Comps/Clarinet/notationGen/LY/rainGutter/160720.6.ly:78:11:33">
<path transform="translate(135.9117, 20.9192)" stroke-width="0.0931" stroke-linejoin="round" stroke-linecap="round" stroke="currentColor" fill="currentColor" d="M0.899262759924397 -3.75C1.8521486093011 -4.61187332673604 5.58844779901651 -4.61187332673604 6.54133364839321 -3.75C5.58844779901651 -4.47215904102175 1.8521486093011 -4.47215904102175 0.899262759924397 -3.75z"/>
</a>
<a style="color:inherit;" xlink:href="textedit:///Users/tatecarson/Documents/Supercollider%20/_OrgExamples/My%20Comps/Clarinet/notationGen/LY/rainGutter/160720.6.ly:43:3:25">
<path transform="translate(36.3614, 17.9192) scale(0.0040, -0.0040)" d="M214 140c59 0 115 -32 115 -97c0 -72 -54 -121 -101 -149c-35 -21 -74 -34 -114 -34c-59 0 -114 32 -114 97c0 72 54 121 101 149c35 21 73 34 113 34z" fill="currentColor"/>
</a>
<path transform="translate(29.1698, 17.9192) scale(0.0040, -0.0040)" d="M134 37c-1 33 -19 65 -50 65c-28 0 -42 -33 -42 -65c0 -57 46 -99 89 -137c3 21 5 42 5 64v11zM181 -140c0 -16 -11 -29 -26 -29c-24 0 -32 29 -49 44c-58 52 -141 91 -141 169c0 54 34 104 84 104c35 0 69 -14 94 -38l-8 340c9 5 20 8 30 8s21 -3 30 -8z" fill="currentColor"/>
<rect transform="translate(30.3531, 20.9192)" x="-0.0757" y="-2.7518" width="0.1514" height="3.2518" ry="0.0500" fill="currentColor"/>
<a style="color:inherit;" xlink:href="textedit:///Users/tatecarson/Documents/Supercollider%20/_OrgExamples/My%20Comps/Clarinet/notationGen/LY/rainGutter/160720.6.ly:40:3:25">
<path transform="translate(30.2774, 17.9192) scale(0.0040, -0.0040)" d="M312 63c0 23 -20 40 -41 40c-4 0 -7 -1 -11 -2c-30 -8 -75 -38 -111 -61s-81 -52 -101 -76c-7 -8 -10 -17 -10 -27c0 -23 19 -40 40 -40c4 0 8 1 12 2c30 8 75 38 111 61s81 52 101 76c7 8 10 17 10 27zM258 140c51 0 92 -23 92 -78c0 -19 -4 -38 -10 -56
c-11 -38 -31 -75 -64 -97c-53 -36 -112 -49 -185 -49c-51 0 -91 23 -91 78c0 19 4 38 10 56c11 38 30 75 63 97c53 36 112 49 185 49z" fill="currentColor"/>
</a>
<path transform="translate(25.5128, 16.9192) scale(0.0040, -0.0040)" d="M87 -337c-12 0 -20 9 -20 21v116l-29 -17c-4 -2 -9 -4 -13 -4c-13 0 -25 11 -25 26v54c0 9 4 16 12 21l55 33v150l-29 -17c-4 -2 -9 -4 -13 -4c-13 0 -25 10 -25 25v54c0 9 4 17 12 22l55 32v141c0 12 8 21 20 21s21 -9 21 -21v-116l29 17c4 2 9 4 13 4
c13 0 25 -11 25 -26v-54c0 -9 -4 -16 -12 -21l-55 -33v-150l29 17c4 2 9 4 13 4c13 0 25 -10 25 -25v-54c0 -9 -4 -17 -12 -22l-55 -32v-141c0 -12 -9 -21 -21 -21z" fill="currentColor"/>
<rect transform="translate(26.6385, 20.9192)" x="-0.0757" y="-3.8269" width="0.1514" height="3.8269" ry="0.0500" fill="currentColor"/>
<a style="color:inherit;" xlink:href="textedit:///Users/tatecarson/Documents/Supercollider%20/_OrgExamples/My%20Comps/Clarinet/notationGen/LY/rainGutter/160720.6.ly:39:3:25">
<path transform="translate(26.5628, 16.9192) scale(0.0040, -0.0040)" d="M214 140c59 0 115 -32 115 -97c0 -72 -54 -121 -101 -149c-35 -21 -74 -34 -114 -34c-59 0 -114 32 -114 97c0 72 54 121 101 149c35 21 73 34 113 34z" fill="currentColor"/>
</a>
<a style="color:inherit;" xlink:href="textedit:///Users/tatecarson/Documents/Supercollider%20/_OrgExamples/My%20Comps/Clarinet/notationGen/LY/rainGutter/160720.6.ly:44:6:28">
<path transform="translate(43.4261, 20.9192) scale(0.0040, -0.0040)" d="M67 -250l118 326c-33 -12 -66 -22 -101 -22c-46 0 -87 34 -87 79c0 40 33 72 73 72c25 0 49 -14 57 -37c10 -27 4 -59 33 -59c14 0 50 42 56 55c7 14 28 14 34 0l-119 -414c-9 -8 -21 -12 -32 -12s-23 4 -32 12z" fill="currentColor"/>
</a>
<a style="color:inherit;" xlink:href="textedit:///Users/tatecarson/Documents/Supercollider%20/_OrgExamples/My%20Comps/Clarinet/notationGen/LY/rainGutter/160720.6.ly:44:3:25">
<path transform="translate(40.0761, 20.9192) scale(0.0040, -0.0040)" d="M-24 -119c0 31 14 43 46 43c30 0 69 -9 106 -23l-126 151c-7 9 -11 17 -11 26c0 34 51 66 88 101c23 22 36 51 36 81c0 25 -9 50 -26 70l-31 37c-3 4 -4 8 -4 12c0 10 9 18 19 18c5 0 9 -1 13 -6l149 -178c7 -9 11 -17 11 -26c0 -34 -52 -66 -89 -101
c-23 -22 -35 -51 -35 -81c0 -25 9 -51 26 -71l79 -94c3 -4 4 -8 4 -12c0 -10 -9 -18 -19 -18c-5 0 -9 2 -13 7c-16 19 -57 33 -89 33c-41 0 -55 -23 -55 -65c0 -33 11 -73 27 -92c6 -7 0 -15 -7 -15c-2 0 -5 2 -7 4c-44 53 -92 145 -92 199z" fill="currentColor"/>
</a>
<rect transform="translate(36.4371, 20.9192)" x="-0.0757" y="-2.8269" width="0.1514" height="3.3269" ry="0.0500" fill="currentColor"/>
<rect transform="translate(75.7410, 20.9192)" x="-0.0757" y="-3.8269" width="0.1514" height="3.8269" ry="0.0500" fill="currentColor"/>
<a style="color:inherit;" xlink:href="textedit:///Users/tatecarson/Documents/Supercollider%20/_OrgExamples/My%20Comps/Clarinet/notationGen/LY/rainGutter/160720.6.ly:57:3:25">
<path transform="translate(75.6653, 16.9192) scale(0.0040, -0.0040)" d="M214 140c59 0 115 -32 115 -97c0 -72 -54 -121 -101 -149c-35 -21 -74 -34 -114 -34c-59 0 -114 32 -114 97c0 72 54 121 101 149c35 21 73 34 113 34z" fill="currentColor"/>
</a>
<rect transform="translate(70.9338, 20.9192)" x="-0.0757" y="-4.3269" width="0.1514" height="4.3269" ry="0.0500" fill="currentColor"/>
<a style="color:inherit;" xlink:href="textedit:///Users/tatecarson/Documents/Supercollider%20/_OrgExamples/My%20Comps/Clarinet/notationGen/LY/rainGutter/160720.6.ly:54:3:25">
<path transform="translate(70.8581, 16.4192) scale(0.0040, -0.0040)" d="M214 140c59 0 115 -32 115 -97c0 -72 -54 -121 -101 -149c-35 -21 -74 -34 -114 -34c-59 0 -114 32 -114 97c0 72 54 121 101 149c35 21 73 34 113 34z" fill="currentColor"/>
</a>
<rect transform="translate(65.6852, 20.9192)" x="-0.0757" y="-2.7518" width="0.1514" height="3.2518" ry="0.0500" fill="currentColor"/>
<a style="color:inherit;" xlink:href="textedit:///Users/tatecarson/Documents/Supercollider%20/_OrgExamples/My%20Comps/Clarinet/notationGen/LY/rainGutter/160720.6.ly:53:3:25">
<path transform="translate(65.6096, 17.9192) scale(0.0040, -0.0040)" d="M312 63c0 23 -20 40 -41 40c-4 0 -7 -1 -11 -2c-30 -8 -75 -38 -111 -61s-81 -52 -101 -76c-7 -8 -10 -17 -10 -27c0 -23 19 -40 40 -40c4 0 8 1 12 2c30 8 75 38 111 61s81 52 101 76c7 8 10 17 10 27zM258 140c51 0 92 -23 92 -78c0 -19 -4 -38 -10 -56
c-11 -38 -31 -75 -64 -97c-53 -36 -112 -49 -185 -49c-51 0 -91 23 -91 78c0 19 4 38 10 56c11 38 30 75 63 97c53 36 112 49 185 49z" fill="currentColor"/>
</a>
<path transform="translate(61.9873, 17.9192) scale(0.0040, -0.0040)" d="M134 37c-1 33 -19 65 -50 65c-28 0 -42 -33 -42 -65c0 -57 46 -99 89 -137c3 21 5 42 5 64v11zM181 -140c0 -16 -11 -29 -26 -29c-24 0 -32 29 -49 44c-58 52 -141 91 -141 169c0 54 34 104 84 104c35 0 69 -14 94 -38l-8 340c9 5 20 8 30 8s21 -3 30 -8z" fill="currentColor"/>
<a style="color:inherit;" xlink:href="textedit:///Users/tatecarson/Documents/Supercollider%20/_OrgExamples/My%20Comps/Clarinet/notationGen/LY/rainGutter/160720.6.ly:62:3:25">
<path transform="translate(89.1786, 17.9192) scale(0.0040, -0.0040)" d="M214 140c59 0 115 -32 115 -97c0 -72 -54 -121 -101 -149c-35 -21 -74 -34 -114 -34c-59 0 -114 32 -114 97c0 72 54 121 101 149c35 21 73 34 113 34z" fill="currentColor"/>
</a>
<path transform="translate(81.9870, 17.9192) scale(0.0040, -0.0040)" d="M134 37c-1 33 -19 65 -50 65c-28 0 -42 -33 -42 -65c0 -57 46 -99 89 -137c3 21 5 42 5 64v11zM181 -140c0 -16 -11 -29 -26 -29c-24 0 -32 29 -49 44c-58 52 -141 91 -141 169c0 54 34 104 84 104c35 0 69 -14 94 -38l-8 340c9 5 20 8 30 8s21 -3 30 -8z" fill="currentColor"/>
<rect transform="translate(83.1702, 20.9192)" x="-0.0757" y="-2.7518" width="0.1514" height="3.2518" ry="0.0500" fill="currentColor"/>
<a style="color:inherit;" xlink:href="textedit:///Users/tatecarson/Documents/Supercollider%20/_OrgExamples/My%20Comps/Clarinet/notationGen/LY/rainGutter/160720.6.ly:59:3:25">
<path transform="translate(83.0946, 17.9192) scale(0.0040, -0.0040)" d="M312 63c0 23 -20 40 -41 40c-4 0 -7 -1 -11 -2c-30 -8 -75 -38 -111 -61s-81 -52 -101 -76c-7 -8 -10 -17 -10 -27c0 -23 19 -40 40 -40c4 0 8 1 12 2c30 8 75 38 111 61s81 52 101 76c7 8 10 17 10 27zM258 140c51 0 92 -23 92 -78c0 -19 -4 -38 -10 -56
c-11 -38 -31 -75 -64 -97c-53 -36 -112 -49 -185 -49c-51 0 -91 23 -91 78c0 19 4 38 10 56c11 38 30 75 63 97c53 36 112 49 185 49z" fill="currentColor"/>
</a>
<path transform="translate(78.3300, 16.9192) scale(0.0040, -0.0040)" d="M87 -337c-12 0 -20 9 -20 21v116l-29 -17c-4 -2 -9 -4 -13 -4c-13 0 -25 11 -25 26v54c0 9 4 16 12 21l55 33v150l-29 -17c-4 -2 -9 -4 -13 -4c-13 0 -25 10 -25 25v54c0 9 4 17 12 22l55 32v141c0 12 8 21 20 21s21 -9 21 -21v-116l29 17c4 2 9 4 13 4
c13 0 25 -11 25 -26v-54c0 -9 -4 -16 -12 -21l-55 -33v-150l29 17c4 2 9 4 13 4c13 0 25 -10 25 -25v-54c0 -9 -4 -17 -12 -22l-55 -32v-141c0 -12 -9 -21 -21 -21z" fill="currentColor"/>
<rect transform="translate(79.4556, 20.9192)" x="-0.0757" y="-3.8269" width="0.1514" height="3.8269" ry="0.0500" fill="currentColor"/>
<a style="color:inherit;" xlink:href="textedit:///Users/tatecarson/Documents/Supercollider%20/_OrgExamples/My%20Comps/Clarinet/notationGen/LY/rainGutter/160720.6.ly:58:3:25">
<path transform="translate(79.3800, 16.9192) scale(0.0040, -0.0040)" d="M214 140c59 0 115 -32 115 -97c0 -72 -54 -121 -101 -149c-35 -21 -74 -34 -114 -34c-59 0 -114 32 -114 97c0 72 54 121 101 149c35 21 73 34 113 34z" fill="currentColor"/>
</a>
<rect transform="translate(22.9239, 20.9192)" x="-0.0757" y="-3.8269" width="0.1514" height="3.8269" ry="0.0500" fill="currentColor"/>
<path transform="translate(19.2264, 22.9252) scale(0.0040, -0.0040)" d="M201 296c23 15 46 29 62 51c12 16 20 35 28 52c2 4 6 6 10 6c7 0 14 -5 14 -15v-233h76c11 0 16 -8 16 -16s-5 -16 -16 -16h-76v-2c0 -50 30 -97 77 -97c9 0 12 -7 12 -13s-3 -13 -12 -13c-46 0 -92 13 -138 13s-93 -13 -139 -13c-9 0 -12 7 -12 13s3 13 12 13
c47 0 77 47 77 97v2h-160c-26 0 -34 15 -34 25c0 3 1 6 2 7c79 91 131 205 131 325c0 10 7 18 15 18h3c24 -7 49 -13 74 -13s50 6 74 13c2 1 3 1 5 1c9 0 15 -7 15 -13c0 -2 0 -4 -2 -6l-283 -325h160v115c0 9 1 19 9 24z" fill="currentColor"/>
<path transform="translate(19.2264, 20.9192) scale(0.0040, -0.0040)" d="M201 296c23 15 46 29 62 51c12 16 20 35 28 52c2 4 6 6 10 6c7 0 14 -5 14 -15v-233h76c11 0 16 -8 16 -16s-5 -16 -16 -16h-76v-2c0 -50 30 -97 77 -97c9 0 12 -7 12 -13s-3 -13 -12 -13c-46 0 -92 13 -138 13s-93 -13 -139 -13c-9 0 -12 7 -12 13s3 13 12 13
c47 0 77 47 77 97v2h-160c-26 0 -34 15 -34 25c0 3 1 6 2 7c79 91 131 205 131 325c0 10 7 18 15 18h3c24 -7 49 -13 74 -13s50 6 74 13c2 1 3 1 5 1c9 0 15 -7 15 -13c0 -2 0 -4 -2 -6l-283 -325h160v115c0 9 1 19 9 24z" fill="currentColor"/>
<path transform="translate(15.0264, 21.9192) scale(0.0040, -0.0040)" d="M379 264c3 0 7 1 10 1c157 0 258 -129 258 -263c0 -77 -33 -155 -108 -211c-22 -16 -46 -29 -72 -37c3 -33 4 -66 4 -99c0 -21 0 -41 -1 -62c-7 -121 -91 -229 -211 -229c-108 0 -196 88 -196 197c0 58 54 103 113 103c54 0 95 -47 95 -103c0 -52 -43 -95 -95 -95
c-9 0 -18 1 -27 4c25 -37 66 -61 113 -61c95 0 156 93 162 191c1 19 2 38 2 57c0 29 -1 58 -3 87c-29 -5 -58 -8 -88 -8c-189 0 -333 173 -333 376c0 177 129 308 244 443c-20 62 -40 124 -48 189c-7 52 -7 105 -7 158c0 114 54 221 147 288c4 3 8 4 12 4c5 0 9 -2 13 -5
c72 -83 135 -243 135 -356c0 -142 -84 -255 -176 -364c21 -68 40 -136 57 -205zM463 -201c65 24 110 94 110 161c0 88 -64 175 -167 188c24 -114 44 -227 57 -349zM77 25c0 -133 128 -243 261 -243c27 0 55 1 81 5c-13 126 -35 244 -60 362c-79 -8 -124 -60 -124 -118
c0 -43 25 -88 80 -120c5 -5 7 -11 7 -17c0 -12 -10 -23 -23 -23c-3 0 -7 1 -10 2c-81 43 -118 115 -118 186c0 89 60 177 163 200c-14 57 -30 113 -47 169c-105 -122 -210 -243 -210 -403zM403 1038c-99 -46 -161 -145 -161 -254c0 -71 21 -130 39 -188
c78 97 142 199 142 324c0 51 -4 72 -20 118z" fill="currentColor"/>
<a style="color:inherit;" xlink:href="textedit:///Users/tatecarson/Documents/Supercollider%20/_OrgExamples/My%20Comps/Clarinet/notationGen/LY/rainGutter/160720.6.ly:38:3:25">
<path transform="translate(22.8482, 16.9192) scale(0.0040, -0.0040)" d="M214 140c59 0 115 -32 115 -97c0 -72 -54 -121 -101 -149c-35 -21 -74 -34 -114 -34c-59 0 -114 32 -114 97c0 72 54 121 101 149c35 21 73 34 113 34z" fill="currentColor"/>
</a>
<rect transform="translate(63.1706, 20.9192)" x="-0.0757" y="-2.8269" width="0.1514" height="3.0044" ry="0.0500" fill="currentColor"/>
<a style="color:inherit;" xlink:href="textedit:///Users/tatecarson/Documents/Supercollider%20/_OrgExamples/My%20Comps/Clarinet/notationGen/LY/rainGutter/160720.6.ly:52:3:25">
<path transform="translate(63.0949, 17.9192) scale(0.0040, -0.0040)" d="M214 140c59 0 115 -32 115 -97c0 -72 -54 -121 -101 -149c-35 -21 -74 -34 -114 -34c-59 0 -114 32 -114 97c0 72 54 121 101 149c35 21 73 34 113 34z" fill="currentColor"/>
</a>
<rect transform="translate(60.1079, 20.9192)" x="-0.0757" y="-4.3269" width="0.1514" height="4.3311" ry="0.0500" fill="currentColor"/>
<a style="color:inherit;" xlink:href="textedit:///Users/tatecarson/Documents/Supercollider%20/_OrgExamples/My%20Comps/Clarinet/notationGen/LY/rainGutter/160720.6.ly:51:3:25">
<path transform="translate(60.0322, 16.4192) scale(0.0040, -0.0040)" d="M214 140c59 0 115 -32 115 -97c0 -72 -54 -121 -101 -149c-35 -21 -74 -34 -114 -34c-59 0 -114 32 -114 97c0 72 54 121 101 149c35 21 73 34 113 34z" fill="currentColor"/>
</a>
<a style="color:inherit;" xlink:href="textedit:///Users/tatecarson/Documents/Supercollider%20/_OrgExamples/My%20Comps/Clarinet/notationGen/LY/rainGutter/160720.6.ly:67:3:25">
<path transform="translate(104.8381, 16.4192) scale(0.0040, -0.0040)" d="M212 110c-49 0 -67 -43 -67 -88c0 -74 56 -132 129 -132c49 0 67 43 67 88c0 74 -56 132 -129 132zM487 0c0 -43 -34 -77 -72 -99c-52 -30 -112 -41 -172 -41s-120 11 -172 41c-38 22 -71 56 -71 99s33 77 71 99c52 30 112 41 172 41s120 -11 172 -41
c38 -22 72 -56 72 -99z" fill="currentColor"/>
</a>
<rect transform="translate(98.5189, 20.9192)" x="-0.0757" y="-4.3269" width="0.1514" height="4.3269" ry="0.0500" fill="currentColor"/>
<path transform="translate(100.1993, 16.4192) scale(0.0040, -0.0040)" d="M0 0c0 30 25 55 55 55s55 -25 55 -55s-25 -55 -55 -55s-55 25 -55 55z" fill="currentColor"/>
<a style="color:inherit;" xlink:href="textedit:///Users/tatecarson/Documents/Supercollider%20/_OrgExamples/My%20Comps/Clarinet/notationGen/LY/rainGutter/160720.6.ly:64:3:25">
<path transform="translate(98.4432, 16.4192) scale(0.0040, -0.0040)" d="M214 140c59 0 115 -32 115 -97c0 -72 -54 -121 -101 -149c-35 -21 -74 -34 -114 -34c-59 0 -114 32 -114 97c0 72 54 121 101 149c35 21 73 34 113 34z" fill="currentColor"/>
</a>
<rect transform="translate(115.9878, 20.9192)" x="-0.0757" y="-2.8269" width="0.1514" height="3.0044" ry="0.0500" fill="currentColor"/>
<a style="color:inherit;" xlink:href="textedit:///Users/tatecarson/Documents/Supercollider%20/_OrgExamples/My%20Comps/Clarinet/notationGen/LY/rainGutter/160720.6.ly:71:3:25">
<path transform="translate(115.9121, 17.9192) scale(0.0040, -0.0040)" d="M214 140c59 0 115 -32 115 -97c0 -72 -54 -121 -101 -149c-35 -21 -74 -34 -114 -34c-59 0 -114 32 -114 97c0 72 54 121 101 149c35 21 73 34 113 34z" fill="currentColor"/>
</a>
<rect transform="translate(112.9250, 20.9192)" x="-0.0757" y="-4.3269" width="0.1514" height="4.3311" ry="0.0500" fill="currentColor"/>
<a style="color:inherit;" xlink:href="textedit:///Users/tatecarson/Documents/Supercollider%20/_OrgExamples/My%20Comps/Clarinet/notationGen/LY/rainGutter/160720.6.ly:70:3:25">
<path transform="translate(112.8493, 16.4192) scale(0.0040, -0.0040)" d="M214 140c59 0 115 -32 115 -97c0 -72 -54 -121 -101 -149c-35 -21 -74 -34 -114 -34c-59 0 -114 32 -114 97c0 72 54 121 101 149c35 21 73 34 113 34z" fill="currentColor"/>
</a>
<a style="color:inherit;" xlink:href="textedit:///Users/tatecarson/Documents/Supercollider%20/_OrgExamples/My%20Comps/Clarinet/notationGen/LY/rainGutter/160720.6.ly:63:3:25">
<path transform="translate(92.8932, 20.9192) scale(0.0040, -0.0040)" d="M-24 -119c0 31 14 43 46 43c30 0 69 -9 106 -23l-126 151c-7 9 -11 17 -11 26c0 34 51 66 88 101c23 22 36 51 36 81c0 25 -9 50 -26 70l-31 37c-3 4 -4 8 -4 12c0 10 9 18 19 18c5 0 9 -1 13 -6l149 -178c7 -9 11 -17 11 -26c0 -34 -52 -66 -89 -101
c-23 -22 -35 -51 -35 -81c0 -25 9 -51 26 -71l79 -94c3 -4 4 -8 4 -12c0 -10 -9 -18 -19 -18c-5 0 -9 2 -13 7c-16 19 -57 33 -89 33c-41 0 -55 -23 -55 -65c0 -33 11 -73 27 -92c6 -7 0 -15 -7 -15c-2 0 -5 2 -7 4c-44 53 -92 145 -92 199z" fill="currentColor"/>
</a>
<a style="color:inherit;" xlink:href="textedit:///Users/tatecarson/Documents/Supercollider%20/_OrgExamples/My%20Comps/Clarinet/notationGen/LY/rainGutter/160720.6.ly:63:6:28">
<path transform="translate(96.2432, 20.9192) scale(0.0040, -0.0040)" d="M67 -250l118 326c-33 -12 -66 -22 -101 -22c-46 0 -87 34 -87 79c0 40 33 72 73 72c25 0 49 -14 57 -37c10 -27 4 -59 33 -59c14 0 50 42 56 55c7 14 28 14 34 0l-119 -414c-9 -8 -21 -12 -32 -12s-23 4 -32 12z" fill="currentColor"/>
</a>
<rect transform="translate(89.2543, 20.9192)" x="-0.0757" y="-2.8269" width="0.1514" height="3.3269" ry="0.0500" fill="currentColor"/>
</svg>
