<svg xmlns="http://www.w3.org/2000/svg" xmlns:xlink="http://www.w3.org/1999/xlink" version="1.2" width="297.00mm" height="210.00mm" viewBox="0 0 211.2617 149.3770">
<!-- Page: 1/1 -->
<text transform="translate(14.2264, 14.2264)" font-family="Century Schoolbook L" font-size="2.1999" text-anchor="start" fill="currentColor">
<tspan>
 </tspan>
</text>
<rect transform="translate(72.8115, 20.0584)" x="0.0000" y="-2.0000" width="0.2212" height="4.0000" ry="0.0000" fill="currentColor"/>
<rect transform="translate(129.4923, 20.0584)" x="0.0000" y="-2.0000" width="0.2212" height="4.0000" ry="0.0000" fill="currentColor"/>
<rect transform="translate(121.3260, 20.0584)" x="0.0000" y="-2.0000" width="0.2212" height="4.0000" ry="0.0000" fill="currentColor"/>
<rect transform="translate(63.1329, 20.0584)" x="0.0000" y="-2.0000" width="0.2212" height="4.0000" ry="0.0000" fill="currentColor"/>
<rect transform="translate(113.1596, 20.0584)" x="0.0000" y="-2.0000" width="0.2212" height="4.0000" ry="0.0000" fill="currentColor"/>
<rect transform="translate(54.9665, 20.0584)" x="0.0000" y="-2.0000" width="0.2212" height="4.0000" ry="0.0000" fill="currentColor"/>
<rect transform="translate(38.6337, 20.0584)" x="0.0000" y="-2.0000" width="0.2212" height="4.0000" ry="0.0000" fill="currentColor"/>
<rect transform="translate(104.9932, 20.0584)" x="0.0000" y="-2.0000" width="0.2212" height="4.0000" ry="0.0000" fill="currentColor"/>
<rect transform="translate(46.8001, 20.0584)" x="0.0000" y="-2.0000" width="0.2212" height="4.0000" ry="0.0000" fill="currentColor"/>
<rect transform="translate(90.9707, 20.0584)" x="0.0000" y="-2.0000" width="0.2212" height="4.0000" ry="0.0000" fill="currentColor"/>
<rect transform="translate(14.2264, 17.0584)" x="18.8122" y="-0.1082" width="1.8183" height="0.2164" ry="0.1082" fill="currentColor"/>
<rect transform="translate(14.2264, 23.0584)" x="21.0623" y="-0.1082" width="1.7971" height="0.2164" ry="0.1082" fill="currentColor"/>
<rect transform="translate(14.2264, 23.0584)" x="26.3748" y="-0.1082" width="2.5877" height="0.2164" ry="0.1082" fill="currentColor"/>
<rect transform="translate(14.2264, 23.0584)" x="34.5412" y="-0.1082" width="2.5877" height="0.2164" ry="0.1082" fill="currentColor"/>
<rect transform="translate(14.2264, 23.0584)" x="42.7075" y="-0.1082" width="2.5877" height="0.2164" ry="0.1082" fill="currentColor"/>
<rect transform="translate(14.2264, 23.0584)" x="49.8739" y="-0.1082" width="1.9020" height="0.2164" ry="0.1082" fill="currentColor"/>
<rect transform="translate(14.2264, 17.0584)" x="54.2922" y="-0.1082" width="1.9232" height="0.2164" ry="0.1082" fill="currentColor"/>
<rect transform="translate(14.2264, 17.0584)" x="59.6742" y="-0.1082" width="1.8183" height="0.2164" ry="0.1082" fill="currentColor"/>
<rect transform="translate(14.2264, 17.0584)" x="68.3420" y="-0.1082" width="1.8183" height="0.2164" ry="0.1082" fill="currentColor"/>
<rect transform="translate(14.2264, 17.0584)" x="80.9515" y="-0.1082" width="1.9719" height="0.2164" ry="0.1082" fill="currentColor"/>
<line transform="translate(14.2264, 22.0584)" stroke-linejoin="round" stroke-linecap="round" stroke-width="0.1164" stroke="currentColor" x1="0.0582" y1="-0.0000" x2="115.4290" y2="-0.0000"/>
<line transform="translate(14.2264, 21.0584)" stroke-linejoin="round" stroke-linecap="round" stroke-width="0.1164" stroke="currentColor" x1="0.0582" y1="-0.0000" x2="115.4290" y2="-0.0000"/>
<line transform="translate(14.2264, 20.0584)" stroke-linejoin="round" stroke-linecap="round" stroke-width="0.1164" stroke="currentColor" x1="0.0582" y1="-0.0000" x2="115.4290" y2="-0.0000"/>
<line transform="translate(14.2264, 19.0584)" stroke-linejoin="round" stroke-linecap="round" stroke-width="0.1164" stroke="currentColor" x1="0.0582" y1="-0.0000" x2="115.4290" y2="-0.0000"/>
<line transform="translate(14.2264, 18.0584)" stroke-linejoin="round" stroke-linecap="round" stroke-width="0.1164" stroke="currentColor" x1="0.0582" y1="-0.0000" x2="115.4290" y2="-0.0000"/>
<a style="color:inherit;" xlink:href="textedit:///Users/tatecarson/Documents/Supercollider%20/_OrgExamples/My%20Comps/Clarinet/notationGen/LY/ferry/160720.13.ly:76:3:25">
<path transform="translate(123.4472, 20.5584) scale(0.0040, -0.0040)" d="M212 110c-49 0 -67 -43 -67 -88c0 -74 56 -132 129 -132c49 0 67 43 67 88c0 74 -56 132 -129 132zM487 0c0 -43 -34 -77 -72 -99c-52 -30 -112 -41 -172 -41s-120 11 -172 41c-38 22 -71 56 -71 99s33 77 71 99c52 30 112 41 172 41s120 -11 172 -41
c38 -22 72 -56 72 -99z" fill="currentColor"/>
</a>
<rect transform="translate(95.5822, 20.0584)" x="-0.0757" y="-2.8269" width="0.1514" height="5.3174" ry="0.0500" fill="currentColor"/>
<a style="color:inherit;" xlink:href="textedit:///Users/tatecarson/Documents/Supercollider%20/_OrgExamples/My%20Comps/Clarinet/notationGen/LY/ferry/160720.13.ly:70:3:25">
<path transform="translate(107.1144, 20.5584) scale(0.0040, -0.0040)" d="M212 110c-49 0 -67 -43 -67 -88c0 -74 56 -132 129 -132c49 0 67 43 67 88c0 74 -56 132 -129 132zM487 0c0 -43 -34 -77 -72 -99c-52 -30 -112 -41 -172 -41s-120 11 -172 41c-38 22 -71 56 -71 99s33 77 71 99c52 30 112 41 172 41s120 -11 172 -41
c38 -22 72 -56 72 -99z" fill="currentColor"/>
</a>
<a style="color:inherit;" xlink:href="textedit:///Users/tatecarson/Documents/Supercollider%20/_OrgExamples/My%20Comps/Clarinet/notationGen/LY/ferry/160720.13.ly:66:3:25">
<path transform="translate(98.0211, 20.5584) scale(0.0040, -0.0040)" d="M214 140c59 0 115 -32 115 -97c0 -72 -54 -121 -101 -149c-35 -21 -74 -34 -114 -34c-59 0 -114 32 -114 97c0 72 54 121 101 149c35 21 73 34 113 34z" fill="currentColor"/>
</a>
<rect transform="translate(101.8586, 20.0584)" x="-0.0757" y="-3.0000" width="0.1514" height="3.2518" ry="0.0500" fill="currentColor"/>
<a style="color:inherit;" xlink:href="textedit:///Users/tatecarson/Documents/Supercollider%20/_OrgExamples/My%20Comps/Clarinet/notationGen/LY/ferry/160720.13.ly:67:3:25">
<path transform="translate(100.5358, 20.5584) scale(0.0040, -0.0040)" d="M312 63c0 23 -20 40 -41 40c-4 0 -7 -1 -11 -2c-30 -8 -75 -38 -111 -61s-81 -52 -101 -76c-7 -8 -10 -17 -10 -27c0 -23 19 -40 40 -40c4 0 8 1 12 2c30 8 75 38 111 61s81 52 101 76c7 8 10 17 10 27zM258 140c51 0 92 -23 92 -78c0 -19 -4 -38 -10 -56
c-11 -38 -31 -75 -64 -97c-53 -36 -112 -49 -185 -49c-51 0 -91 23 -91 78c0 19 4 38 10 56c11 38 30 75 63 97c53 36 112 49 185 49z" fill="currentColor"/>
</a>
<path transform="translate(96.9135, 20.5584) scale(0.0040, -0.0040)" d="M134 37c-1 33 -19 65 -50 65c-28 0 -42 -33 -42 -65c0 -57 46 -99 89 -137c3 21 5 42 5 64v11zM181 -140c0 -16 -11 -29 -26 -29c-24 0 -32 29 -49 44c-58 52 -141 91 -141 169c0 54 34 104 84 104c35 0 69 -14 94 -38l-8 340c9 5 20 8 30 8s21 -3 30 -8z" fill="currentColor"/>
<path transform="translate(99.7772, 20.5584) scale(0.0040, -0.0040)" d="M0 0c0 30 25 55 55 55s55 -25 55 -55s-25 -55 -55 -55s-55 25 -55 55z" fill="currentColor"/>
<rect transform="translate(98.0968, 20.0584)" x="-0.0757" y="0.6731" width="0.1514" height="2.1355" ry="0.0500" fill="currentColor"/>
<a style="color:inherit;" xlink:href="textedit:///Users/tatecarson/Documents/Supercollider%20/_OrgExamples/My%20Comps/Clarinet/notationGen/LY/ferry/160720.13.ly:73:3:25">
<path transform="translate(115.2808, 20.5584) scale(0.0040, -0.0040)" d="M212 110c-49 0 -67 -43 -67 -88c0 -74 56 -132 129 -132c49 0 67 43 67 88c0 74 -56 132 -129 132zM487 0c0 -43 -34 -77 -72 -99c-52 -30 -112 -41 -172 -41s-120 11 -172 41c-38 22 -71 56 -71 99s33 77 71 99c52 30 112 41 172 41s120 -11 172 -41
c38 -22 72 -56 72 -99z" fill="currentColor"/>
</a>
<a style="color:inherit;" xlink:href="textedit:///Users/tatecarson/Documents/Supercollider%20/_OrgExamples/My%20Comps/Clarinet/notationGen/LY/ferry/160720.13.ly:48:3:25">
<path transform="translate(48.9213, 23.0584) scale(0.0040, -0.0040)" d="M212 110c-49 0 -67 -43 -67 -88c0 -74 56 -132 129 -132c49 0 67 43 67 88c0 74 -56 132 -129 132zM487 0c0 -43 -34 -77 -72 -99c-52 -30 -112 -41 -172 -41s-120 11 -172 41c-38 22 -71 56 -71 99s33 77 71 99c52 30 112 41 172 41s120 -11 172 -41
c38 -22 72 -56 72 -99z" fill="currentColor"/>
</a>
<polygon transform="translate(30.1084, 20.0584)" stroke-linejoin="round" stroke-linecap="round" stroke-width="0.1000" fill="currentColor" stroke="currentColor" points="1.1257 -0.4198 1.1257 -0.0398 0.0500 0.1900 0.0500 -0.1900"/>
<polygon transform="translate(30.1084, 20.8766)" stroke-linejoin="round" stroke-linecap="round" stroke-width="0.1000" fill="currentColor" stroke="currentColor" points="3.2065 -0.8264 3.2065 -0.4464 0.0500 0.1900 0.0500 -0.1900"/>
<a style="color:inherit;" xlink:href="textedit:///Users/tatecarson/Documents/Supercollider%20/_OrgExamples/My%20Comps/Clarinet/notationGen/LY/ferry/160720.13.ly:42:10:32">
<path transform="translate(35.4425, 20.0584)" stroke-width="0.0931" stroke-linejoin="round" stroke-linecap="round" stroke="currentColor" fill="currentColor" d="M0.857308128544421 3.75C1.7723208396746 4.59670242945306 5.17100073700974 4.59670242945306 6.08601344813992 3.75C5.17100073700974 4.45698814373878 1.7723208396746 4.45698814373878 0.857308128544421 3.75z"/>
</a>
<a style="color:inherit;" xlink:href="textedit:///Users/tatecarson/Documents/Supercollider%20/_OrgExamples/My%20Comps/Clarinet/notationGen/LY/ferry/160720.13.ly:45:10:32">
<path transform="translate(40.7549, 20.0584)" stroke-width="0.0931" stroke-linejoin="round" stroke-linecap="round" stroke="currentColor" fill="currentColor" d="M1.17356647763075 3.75C2.28572087034584 4.6662020826816 7.82780432502604 4.6662020826816 8.93995871774114 3.75C7.82780432502604 4.52648779696731 2.28572087034584 4.52648779696731 1.17356647763075 3.75z"/>
</a>
<a style="color:inherit;" xlink:href="textedit:///Users/tatecarson/Documents/Supercollider%20/_OrgExamples/My%20Comps/Clarinet/notationGen/LY/ferry/160720.13.ly:48:10:32">
<path transform="translate(48.9213, 20.0584)" stroke-width="0.0931" stroke-linejoin="round" stroke-linecap="round" stroke="currentColor" fill="currentColor" d="M1.17356647763075 3.75C2.28572087034585 4.6662020826816 7.82780432502604 4.6662020826816 8.93995871774114 3.75C7.82780432502604 4.52648779696731 2.28572087034585 4.52648779696731 1.17356647763075 3.75z"/>
</a>
<a style="color:inherit;" xlink:href="textedit:///Users/tatecarson/Documents/Supercollider%20/_OrgExamples/My%20Comps/Clarinet/notationGen/LY/ferry/160720.13.ly:51:10:32">
<path transform="translate(57.0877, 20.0584)" stroke-width="0.0931" stroke-linejoin="round" stroke-linecap="round" stroke="currentColor" fill="currentColor" d="M1.17356647763075 3.75C2.19657991012363 4.63754057235915 6.6426415675419 4.63754057235915 7.66565500003478 3.75C6.6426415675419 4.49782628664486 2.19657991012363 4.49782628664486 1.17356647763075 3.75z"/>
</a>
<a style="color:inherit;" xlink:href="textedit:///Users/tatecarson/Documents/Supercollider%20/_OrgExamples/My%20Comps/Clarinet/notationGen/LY/ferry/160720.13.ly:55:10:32">
<path transform="translate(68.6935, 20.0584)" stroke-width="0.0931" stroke-linejoin="round" stroke-linecap="round" stroke="currentColor" fill="currentColor" d="M0.89926275992439 -3.75C1.7861684146673 -4.58479164082745 4.95247299278489 -4.58479164082745 5.8393786475278 -3.75C4.95247299278489 -4.44507735511317 1.7861684146673 -4.44507735511317 0.89926275992439 -3.75z"/>
</a>
<a style="color:inherit;" xlink:href="textedit:///Users/tatecarson/Documents/Supercollider%20/_OrgExamples/My%20Comps/Clarinet/notationGen/LY/ferry/160720.13.ly:66:11:33">
<path transform="translate(98.0211, 20.0584)" stroke-width="0.0931" stroke-linejoin="round" stroke-linecap="round" stroke="currentColor" fill="currentColor" d="M0.857308128544418 1.225C1.37344588821918 1.83311762225496 2.49774125733848 1.83311762225496 3.01387901701324 1.225C2.49774125733848 1.69340333654067 1.37344588821918 1.69340333654067 0.857308128544418 1.225z"/>
</a>
<polygon transform="translate(93.1419, 22.2402)" stroke-linejoin="round" stroke-linecap="round" stroke-width="0.1000" fill="currentColor" stroke="currentColor" points="4.9806 0.4464 4.9806 0.8264 0.0500 0.1900 0.0500 -0.1900"/>
<a style="color:inherit;" xlink:href="textedit:///Users/tatecarson/Documents/Supercollider%20/_OrgExamples/My%20Comps/Clarinet/notationGen/LY/ferry/160720.13.ly:67:12:34">
<path transform="translate(100.5358, 20.0584)" stroke-width="0.0931" stroke-linejoin="round" stroke-linecap="round" stroke="currentColor" fill="currentColor" d="M0.899262759924397 1.18994820513465C1.9192529450532 2.07644255584675 6.33220707793596 2.07644255584675 7.35219726306477 1.18994820513465C6.33220707793596 1.93672827013247 1.9192529450532 1.93672827013247 0.899262759924397 1.18994820513465z"/>
</a>
<a style="color:inherit;" xlink:href="textedit:///Users/tatecarson/Documents/Supercollider%20/_OrgExamples/My%20Comps/Clarinet/notationGen/LY/ferry/160720.13.ly:70:10:32">
<path transform="translate(107.1144, 20.0584)" stroke-width="0.0931" stroke-linejoin="round" stroke-linecap="round" stroke="currentColor" fill="currentColor" d="M1.17356647763076 1.225C2.28572087034586 2.14120208268159 7.82780432502604 2.14120208268159 8.93995871774113 1.225C7.82780432502604 2.00148779696731 2.28572087034586 2.00148779696731 1.17356647763076 1.225z"/>
</a>
<a style="color:inherit;" xlink:href="textedit:///Users/tatecarson/Documents/Supercollider%20/_OrgExamples/My%20Comps/Clarinet/notationGen/LY/ferry/160720.13.ly:73:10:32">
<path transform="translate(115.2808, 20.0584)" stroke-width="0.0931" stroke-linejoin="round" stroke-linecap="round" stroke="currentColor" fill="currentColor" d="M1.17356647763074 1.225C2.28572087034584 2.1412020826816 7.82780432502605 2.1412020826816 8.93995871774115 1.225C7.82780432502605 2.00148779696731 2.28572087034584 2.00148779696731 1.17356647763074 1.225z"/>
</a>
<path transform="translate(29.0584, 18.0584) scale(0.0040, -0.0040)" d="M87 -337c-12 0 -20 9 -20 21v116l-29 -17c-4 -2 -9 -4 -13 -4c-13 0 -25 11 -25 26v54c0 9 4 16 12 21l55 33v150l-29 -17c-4 -2 -9 -4 -13 -4c-13 0 -25 10 -25 25v54c0 9 4 17 12 22l55 32v141c0 12 8 21 20 21s21 -9 21 -21v-116l29 17c4 2 9 4 13 4
c13 0 25 -11 25 -26v-54c0 -9 -4 -16 -12 -21l-55 -33v-150l29 17c4 2 9 4 13 4c13 0 25 -10 25 -25v-54c0 -9 -4 -17 -12 -22l-55 -32v-141c0 -12 -9 -21 -21 -21z" fill="currentColor"/>
<rect transform="translate(30.1841, 20.0584)" x="-0.0757" y="-1.8269" width="0.1514" height="2.6303" ry="0.0500" fill="currentColor"/>
<a style="color:inherit;" xlink:href="textedit:///Users/tatecarson/Documents/Supercollider%20/_OrgExamples/My%20Comps/Clarinet/notationGen/LY/ferry/160720.13.ly:40:3:25">
<path transform="translate(30.1084, 18.0584) scale(0.0040, -0.0040)" d="M214 140c59 0 115 -32 115 -97c0 -72 -54 -121 -101 -149c-35 -21 -74 -34 -114 -34c-59 0 -114 32 -114 97c0 72 54 121 101 149c35 21 73 34 113 34z" fill="currentColor"/>
</a>
<path transform="translate(26.1362, 20.0584) scale(0.0040, -0.0040)" d="M134 37c-1 33 -19 65 -50 65c-28 0 -42 -33 -42 -65c0 -57 46 -99 89 -137c3 21 5 42 5 64v11zM181 -140c0 -16 -11 -29 -26 -29c-24 0 -32 29 -49 44c-58 52 -141 91 -141 169c0 54 34 104 84 104c35 0 69 -14 94 -38l-8 340c9 5 20 8 30 8s21 -3 30 -8z" fill="currentColor"/>
<path transform="translate(27.3952, 23.3834) scale(0.0040, -0.0040)" d="M0 0h-19v250h19c96 59 223 149 223 259c0 56 -15 111 -41 161c-3 18 11 30 25 30c8 0 17 -4 22 -13c25 -56 41 -116 41 -178c0 -204 -270 -305 -270 -509z" fill="currentColor"/>
<rect transform="translate(27.3195, 20.0584)" x="-0.0757" y="0.1731" width="0.1514" height="3.2019" ry="0.0500" fill="currentColor"/>
<a style="color:inherit;" xlink:href="textedit:///Users/tatecarson/Documents/Supercollider%20/_OrgExamples/My%20Comps/Clarinet/notationGen/LY/ferry/160720.13.ly:39:3:25">
<path transform="translate(27.2438, 20.0584) scale(0.0040, -0.0040)" d="M214 140c59 0 115 -32 115 -97c0 -72 -54 -121 -101 -149c-35 -21 -74 -34 -114 -34c-59 0 -114 32 -114 97c0 72 54 121 101 149c35 21 73 34 113 34z" fill="currentColor"/>
</a>
<a style="color:inherit;" xlink:href="textedit:///Users/tatecarson/Documents/Supercollider%20/_OrgExamples/My%20Comps/Clarinet/notationGen/LY/ferry/160720.13.ly:45:3:25">
<path transform="translate(40.7549, 23.0584) scale(0.0040, -0.0040)" d="M212 110c-49 0 -67 -43 -67 -88c0 -74 56 -132 129 -132c49 0 67 43 67 88c0 74 -56 132 -129 132zM487 0c0 -43 -34 -77 -72 -99c-52 -30 -112 -41 -172 -41s-120 11 -172 41c-38 22 -71 56 -71 99s33 77 71 99c52 30 112 41 172 41s120 -11 172 -41
c38 -22 72 -56 72 -99z" fill="currentColor"/>
</a>
<path transform="translate(34.3349, 23.0584) scale(0.0040, -0.0040)" d="M134 37c-1 33 -19 65 -50 65c-28 0 -42 -33 -42 -65c0 -57 46 -99 89 -137c3 21 5 42 5 64v11zM181 -140c0 -16 -11 -29 -26 -29c-24 0 -32 29 -49 44c-58 52 -141 91 -141 169c0 54 34 104 84 104c35 0 69 -14 94 -38l-8 340c9 5 20 8 30 8s21 -3 30 -8z" fill="currentColor"/>
<rect transform="translate(36.6814, 20.0584)" x="-0.0757" y="-0.5000" width="0.1514" height="3.3269" ry="0.0500" fill="currentColor"/>
<a style="color:inherit;" xlink:href="textedit:///Users/tatecarson/Documents/Supercollider%20/_OrgExamples/My%20Comps/Clarinet/notationGen/LY/ferry/160720.13.ly:42:3:25">
<path transform="translate(35.4425, 23.0584) scale(0.0040, -0.0040)" d="M214 140c59 0 115 -32 115 -97c0 -72 -54 -121 -101 -149c-35 -21 -74 -34 -114 -34c-59 0 -114 32 -114 97c0 72 54 121 101 149c35 21 73 34 113 34z" fill="currentColor"/>
</a>
<path transform="translate(32.0636, 17.0584) scale(0.0040, -0.0040)" d="M31 37l-2 -62v-11c0 -22 2 -43 5 -64c43 38 89 80 89 137c0 32 -14 65 -42 65c-31 0 -49 -32 -50 -65zM-16 -140l-14 590c9 5 20 8 30 8s21 -3 30 -8l-8 -340c25 24 59 38 94 38c50 0 84 -50 84 -104c0 -78 -83 -117 -141 -169c-17 -15 -25 -44 -49 -44
c-15 0 -26 13 -26 29z" fill="currentColor"/>
<rect transform="translate(33.2893, 20.0584)" x="-0.0757" y="-2.8269" width="0.1514" height="3.0234" ry="0.0500" fill="currentColor"/>
<path transform="translate(34.9697, 16.5584) scale(0.0040, -0.0040)" d="M0 0c0 30 25 55 55 55s55 -25 55 -55s-25 -55 -55 -55s-55 25 -55 55z" fill="currentColor"/>
<a style="color:inherit;" xlink:href="textedit:///Users/tatecarson/Documents/Supercollider%20/_OrgExamples/My%20Comps/Clarinet/notationGen/LY/ferry/160720.13.ly:41:3:25">
<path transform="translate(33.2136, 17.0584) scale(0.0040, -0.0040)" d="M214 140c59 0 115 -32 115 -97c0 -72 -54 -121 -101 -149c-35 -21 -74 -34 -114 -34c-59 0 -114 32 -114 97c0 72 54 121 101 149c35 21 73 34 113 34z" fill="currentColor"/>
</a>
<rect transform="translate(65.5770, 20.0584)" x="-0.0757" y="-0.5000" width="0.1514" height="3.2518" ry="0.0500" fill="currentColor"/>
<a style="color:inherit;" xlink:href="textedit:///Users/tatecarson/Documents/Supercollider%20/_OrgExamples/My%20Comps/Clarinet/notationGen/LY/ferry/160720.13.ly:54:3:25">
<path transform="translate(64.2541, 23.0584) scale(0.0040, -0.0040)" d="M312 63c0 23 -20 40 -41 40c-4 0 -7 -1 -11 -2c-30 -8 -75 -38 -111 -61s-81 -52 -101 -76c-7 -8 -10 -17 -10 -27c0 -23 19 -40 40 -40c4 0 8 1 12 2c30 8 75 38 111 61s81 52 101 76c7 8 10 17 10 27zM258 140c51 0 92 -23 92 -78c0 -19 -4 -38 -10 -56
c-11 -38 -31 -75 -64 -97c-53 -36 -112 -49 -185 -49c-51 0 -91 23 -91 78c0 19 4 38 10 56c11 38 30 75 63 97c53 36 112 49 185 49z" fill="currentColor"/>
</a>
<rect transform="translate(74.1513, 20.0584)" x="-0.0757" y="-2.8269" width="0.1514" height="3.3269" ry="0.0500" fill="currentColor"/>
<a style="color:inherit;" xlink:href="textedit:///Users/tatecarson/Documents/Supercollider%20/_OrgExamples/My%20Comps/Clarinet/notationGen/LY/ferry/160720.13.ly:58:3:25">
<path transform="translate(74.0756, 17.0584) scale(0.0040, -0.0040)" d="M214 140c59 0 115 -32 115 -97c0 -72 -54 -121 -101 -149c-35 -21 -74 -34 -114 -34c-59 0 -114 32 -114 97c0 72 54 121 101 149c35 21 73 34 113 34z" fill="currentColor"/>
</a>
<path transform="translate(67.5435, 17.0584) scale(0.0040, -0.0040)" d="M31 37l-2 -62v-11c0 -22 2 -43 5 -64c43 38 89 80 89 137c0 32 -14 65 -42 65c-31 0 -49 -32 -50 -65zM-16 -140l-14 590c9 5 20 8 30 8s21 -3 30 -8l-8 -340c25 24 59 38 94 38c50 0 84 -50 84 -104c0 -78 -83 -117 -141 -169c-17 -15 -25 -44 -49 -44
c-15 0 -26 13 -26 29z" fill="currentColor"/>
<rect transform="translate(68.7692, 20.0584)" x="-0.0757" y="-2.7518" width="0.1514" height="3.2518" ry="0.0500" fill="currentColor"/>
<a style="color:inherit;" xlink:href="textedit:///Users/tatecarson/Documents/Supercollider%20/_OrgExamples/My%20Comps/Clarinet/notationGen/LY/ferry/160720.13.ly:55:3:25">
<path transform="translate(68.6935, 17.0584) scale(0.0040, -0.0040)" d="M312 63c0 23 -20 40 -41 40c-4 0 -7 -1 -11 -2c-30 -8 -75 -38 -111 -61s-81 -52 -101 -76c-7 -8 -10 -17 -10 -27c0 -23 19 -40 40 -40c4 0 8 1 12 2c30 8 75 38 111 61s81 52 101 76c7 8 10 17 10 27zM258 140c51 0 92 -23 92 -78c0 -19 -4 -38 -10 -56
c-11 -38 -31 -75 -64 -97c-53 -36 -112 -49 -185 -49c-51 0 -91 23 -91 78c0 19 4 38 10 56c11 38 30 75 63 97c53 36 112 49 185 49z" fill="currentColor"/>
</a>
<path transform="translate(22.0482, 19.5584) scale(0.0040, -0.0040)" d="M198 -329c-12 0 -21 9 -21 21v138l-79 -30v-154c0 -12 -9 -21 -21 -21s-21 9 -21 21v138l-22 -8c-3 -1 -6 -2 -9 -2c-13 0 -25 11 -25 25v54c0 10 6 20 16 24l40 15v155l-22 -9c-3 -1 -6 -1 -9 -1c-13 0 -25 11 -25 25v54c0 10 6 19 16 23l40 15v154c0 12 9 21 21 21
s21 -9 21 -21v-138l79 30v154c0 12 9 21 21 21s21 -9 21 -21v-138l22 8c3 1 6 2 9 2c13 0 25 -11 25 -25v-54c0 -10 -6 -20 -16 -24l-40 -15v-155l22 9c3 1 6 1 9 1c13 0 25 -11 25 -25v-54c0 -10 -6 -19 -16 -23l-40 -15v-154c0 -12 -9 -21 -21 -21zM98 62v-154l79 30v154z
" fill="currentColor"/>
<rect transform="translate(23.5739, 20.0584)" x="-0.0757" y="-0.3269" width="0.1514" height="3.3269" ry="0.0500" fill="currentColor"/>
<path transform="translate(25.2543, 19.5584) scale(0.0040, -0.0040)" d="M0 0c0 30 25 55 55 55s55 -25 55 -55s-25 -55 -55 -55s-55 25 -55 55z" fill="currentColor"/>
<path transform="translate(19.2264, 22.0643) scale(0.0040, -0.0040)" d="M201 296c23 15 46 29 62 51c12 16 20 35 28 52c2 4 6 6 10 6c7 0 14 -5 14 -15v-233h76c11 0 16 -8 16 -16s-5 -16 -16 -16h-76v-2c0 -50 30 -97 77 -97c9 0 12 -7 12 -13s-3 -13 -12 -13c-46 0 -92 13 -138 13s-93 -13 -139 -13c-9 0 -12 7 -12 13s3 13 12 13
c47 0 77 47 77 97v2h-160c-26 0 -34 15 -34 25c0 3 1 6 2 7c79 91 131 205 131 325c0 10 7 18 15 18h3c24 -7 49 -13 74 -13s50 6 74 13c2 1 3 1 5 1c9 0 15 -7 15 -13c0 -2 0 -4 -2 -6l-283 -325h160v115c0 9 1 19 9 24z" fill="currentColor"/>
<path transform="translate(19.2264, 20.0584) scale(0.0040, -0.0040)" d="M201 296c23 15 46 29 62 51c12 16 20 35 28 52c2 4 6 6 10 6c7 0 14 -5 14 -15v-233h76c11 0 16 -8 16 -16s-5 -16 -16 -16h-76v-2c0 -50 30 -97 77 -97c9 0 12 -7 12 -13s-3 -13 -12 -13c-46 0 -92 13 -138 13s-93 -13 -139 -13c-9 0 -12 7 -12 13s3 13 12 13
c47 0 77 47 77 97v2h-160c-26 0 -34 15 -34 25c0 3 1 6 2 7c79 91 131 205 131 325c0 10 7 18 15 18h3c24 -7 49 -13 74 -13s50 6 74 13c2 1 3 1 5 1c9 0 15 -7 15 -13c0 -2 0 -4 -2 -6l-283 -325h160v115c0 9 1 19 9 24z" fill="currentColor"/>
<path transform="translate(15.0264, 21.0584) scale(0.0040, -0.0040)" d="M379 264c3 0 7 1 10 1c157 0 258 -129 258 -263c0 -77 -33 -155 -108 -211c-22 -16 -46 -29 -72 -37c3 -33 4 -66 4 -99c0 -21 0 -41 -1 -62c-7 -121 -91 -229 -211 -229c-108 0 -196 88 -196 197c0 58 54 103 113 103c54 0 95 -47 95 -103c0 -52 -43 -95 -95 -95
c-9 0 -18 1 -27 4c25 -37 66 -61 113 -61c95 0 156 93 162 191c1 19 2 38 2 57c0 29 -1 58 -3 87c-29 -5 -58 -8 -88 -8c-189 0 -333 173 -333 376c0 177 129 308 244 443c-20 62 -40 124 -48 189c-7 52 -7 105 -7 158c0 114 54 221 147 288c4 3 8 4 12 4c5 0 9 -2 13 -5
c72 -83 135 -243 135 -356c0 -142 -84 -255 -176 -364c21 -68 40 -136 57 -205zM463 -201c65 24 110 94 110 161c0 88 -64 175 -167 188c24 -114 44 -227 57 -349zM77 25c0 -133 128 -243 261 -243c27 0 55 1 81 5c-13 126 -35 244 -60 362c-79 -8 -124 -60 -124 -118
c0 -43 25 -88 80 -120c5 -5 7 -11 7 -17c0 -12 -10 -23 -23 -23c-3 0 -7 1 -10 2c-81 43 -118 115 -118 186c0 89 60 177 163 200c-14 57 -30 113 -47 169c-105 -122 -210 -243 -210 -403zM403 1038c-99 -46 -161 -145 -161 -254c0 -71 21 -130 39 -188
c78 97 142 199 142 324c0 51 -4 72 -20 118z" fill="currentColor"/>
<a style="color:inherit;" xlink:href="textedit:///Users/tatecarson/Documents/Supercollider%20/_OrgExamples/My%20Comps/Clarinet/notationGen/LY/ferry/160720.13.ly:38:3:25">
<path transform="translate(23.4982, 19.5584) scale(0.0040, -0.0040)" d="M214 140c59 0 115 -32 115 -97c0 -72 -54 -121 -101 -149c-35 -21 -74 -34 -114 -34c-59 0 -114 32 -114 97c0 72 54 121 101 149c35 21 73 34 113 34z" fill="currentColor"/>
</a>
<a style="color:inherit;" xlink:href="textedit:///Users/tatecarson/Documents/Supercollider%20/_OrgExamples/My%20Comps/Clarinet/notationGen/LY/ferry/160720.13.ly:51:3:25">
<path transform="translate(57.0877, 23.0584) scale(0.0040, -0.0040)" d="M212 110c-49 0 -67 -43 -67 -88c0 -74 56 -132 129 -132c49 0 67 43 67 88c0 74 -56 132 -129 132zM487 0c0 -43 -34 -77 -72 -99c-52 -30 -112 -41 -172 -41s-120 11 -172 41c-38 22 -71 56 -71 99s33 77 71 99c52 30 112 41 172 41s120 -11 172 -41
c38 -22 72 -56 72 -99z" fill="currentColor"/>
</a>
<path transform="translate(81.5934, 17.0584) scale(0.0040, -0.0040)" d="M31 37l-2 -62v-11c0 -22 2 -43 5 -64c43 38 89 80 89 137c0 32 -14 65 -42 65c-31 0 -49 -32 -50 -65zM-16 -140l-14 590c9 5 20 8 30 8s21 -3 30 -8l-8 -340c25 24 59 38 94 38c50 0 84 -50 84 -104c0 -78 -83 -117 -141 -169c-17 -15 -25 -44 -49 -44
c-15 0 -26 13 -26 29z" fill="currentColor"/>
<path transform="translate(91.6919, 19.5584) scale(0.0040, -0.0040)" d="M198 -329c-12 0 -21 9 -21 21v138l-79 -30v-154c0 -12 -9 -21 -21 -21s-21 9 -21 21v138l-22 -8c-3 -1 -6 -2 -9 -2c-13 0 -25 11 -25 25v54c0 10 6 20 16 24l40 15v155l-22 -9c-3 -1 -6 -1 -9 -1c-13 0 -25 11 -25 25v54c0 10 6 19 16 23l40 15v154c0 12 9 21 21 21
s21 -9 21 -21v-138l79 30v154c0 12 9 21 21 21s21 -9 21 -21v-138l22 8c3 1 6 2 9 2c13 0 25 -11 25 -25v-54c0 -10 -6 -20 -16 -24l-40 -15v-155l22 9c3 1 6 1 9 1c13 0 25 -11 25 -25v-54c0 -10 -6 -19 -16 -23l-40 -15v-154c0 -12 -9 -21 -21 -21zM98 62v-154l79 30v154z
" fill="currentColor"/>
<a style="color:inherit;" xlink:href="textedit:///Users/tatecarson/Documents/Supercollider%20/_OrgExamples/My%20Comps/Clarinet/notationGen/LY/ferry/160720.13.ly:60:9:31">
<path transform="translate(85.7561, 20.0584) scale(0.0040, -0.0040)" d="M61 -500l101 326c-33 -12 -67 -22 -102 -22c-46 0 -87 34 -87 79c0 40 34 72 74 72c25 0 49 -14 57 -37c10 -27 3 -59 32 -59c16 0 51 50 56 66l47 151c-33 -12 -66 -22 -101 -22c-46 0 -87 34 -87 79c0 40 34 72 74 72c25 0 49 -14 57 -37c10 -27 3 -59 32 -59
c14 0 46 42 52 55c7 14 28 14 34 0l-175 -664c-9 -8 -21 -12 -32 -12s-23 4 -32 12z" fill="currentColor"/>
</a>
<rect transform="translate(93.2176, 20.0584)" x="-0.0757" y="-0.3269" width="0.1514" height="2.5182" ry="0.0500" fill="currentColor"/>
<a style="color:inherit;" xlink:href="textedit:///Users/tatecarson/Documents/Supercollider%20/_OrgExamples/My%20Comps/Clarinet/notationGen/LY/ferry/160720.13.ly:61:3:25">
<path transform="translate(87.4561, 18.0584) scale(0.0040, -0.0040)" d="M214 140c59 0 115 -32 115 -97c0 -72 -54 -121 -101 -149c-35 -21 -74 -34 -114 -34c-59 0 -114 32 -114 97c0 72 54 121 101 149c35 21 73 34 113 34z" fill="currentColor"/>
</a>
<rect transform="translate(87.5318, 20.0584)" x="-0.0757" y="-1.8269" width="0.1514" height="3.3269" ry="0.0500" fill="currentColor"/>
<path transform="translate(87.6074, 21.5084) scale(0.0040, -0.0040)" d="M0 205c90 51 210 130 210 231c0 23 -6 46 -14 67c-80 -86 -196 -157 -196 -278v-20zM270 661c0 -44 -16 -82 -39 -116c16 -35 25 -71 25 -109c0 -181 -256 -255 -256 -436h-19v500h19v-70c96 49 223 127 223 231c0 21 -5 40 -14 59c-3 18 11 30 25 30c31 0 36 -62 36 -89
z" fill="currentColor"/>
<path transform="translate(86.3485, 18.0584) scale(0.0040, -0.0040)" d="M134 37c-1 33 -19 65 -50 65c-28 0 -42 -33 -42 -65c0 -57 46 -99 89 -137c3 21 5 42 5 64v11zM181 -140c0 -16 -11 -29 -26 -29c-24 0 -32 29 -49 44c-58 52 -141 91 -141 169c0 54 34 104 84 104c35 0 69 -14 94 -38l-8 340c9 5 20 8 30 8s21 -3 30 -8z" fill="currentColor"/>
<a style="color:inherit;" xlink:href="textedit:///Users/tatecarson/Documents/Supercollider%20/_OrgExamples/My%20Comps/Clarinet/notationGen/LY/ferry/160720.13.ly:61:11:33">
<path transform="translate(89.1707, 20.0584) scale(0.0040, -0.0040)" d="M67 -250l118 326c-33 -12 -66 -22 -101 -22c-46 0 -87 34 -87 79c0 40 33 72 73 72c25 0 49 -14 57 -37c10 -27 4 -59 33 -59c14 0 50 42 56 55c7 14 28 14 34 0l-119 -414c-9 -8 -21 -12 -32 -12s-23 4 -32 12z" fill="currentColor"/>
</a>
<a style="color:inherit;" xlink:href="textedit:///Users/tatecarson/Documents/Supercollider%20/_OrgExamples/My%20Comps/Clarinet/notationGen/LY/ferry/160720.13.ly:64:3:25">
<path transform="translate(93.1419, 19.5584) scale(0.0040, -0.0040)" d="M214 140c59 0 115 -32 115 -97c0 -72 -54 -121 -101 -149c-35 -21 -74 -34 -114 -34c-59 0 -114 32 -114 97c0 72 54 121 101 149c35 21 73 34 113 34z" fill="currentColor"/>
</a>
<path transform="translate(97.2626, 16.5584) scale(0.0040, -0.0040)" d="M0 0c0 30 25 55 55 55s55 -25 55 -55s-25 -55 -55 -55s-55 25 -55 55z" fill="currentColor"/>
<a style="color:inherit;" xlink:href="textedit:///Users/tatecarson/Documents/Supercollider%20/_OrgExamples/My%20Comps/Clarinet/notationGen/LY/ferry/160720.13.ly:65:3:25">
<path transform="translate(95.5065, 17.0584) scale(0.0040, -0.0040)" d="M214 140c59 0 115 -32 115 -97c0 -72 -54 -121 -101 -149c-35 -21 -74 -34 -114 -34c-59 0 -114 32 -114 97c0 72 54 121 101 149c35 21 73 34 113 34z" fill="currentColor"/>
</a>
<a style="color:inherit;" xlink:href="textedit:///Users/tatecarson/Documents/Supercollider%20/_OrgExamples/My%20Comps/Clarinet/notationGen/LY/ferry/160720.13.ly:58:9:31">
<path transform="translate(77.0883, 20.0584) scale(0.0040, -0.0040)" d="M67 -250l118 326c-33 -12 -66 -22 -101 -22c-46 0 -87 34 -87 79c0 40 33 72 73 72c25 0 49 -14 57 -37c10 -27 4 -59 33 -59c14 0 50 42 56 55c7 14 28 14 34 0l-119 -414c-9 -8 -21 -12 -32 -12s-23 4 -32 12z" fill="currentColor"/>
</a>
<a style="color:inherit;" xlink:href="textedit:///Users/tatecarson/Documents/Supercollider%20/_OrgExamples/My%20Comps/Clarinet/notationGen/LY/ferry/160720.13.ly:59:3:25">
<path transform="translate(79.6383, 18.0584) scale(0.0040, -0.0040)" d="M214 140c59 0 115 -32 115 -97c0 -72 -54 -121 -101 -149c-35 -21 -74 -34 -114 -34c-59 0 -114 32 -114 97c0 72 54 121 101 149c35 21 73 34 113 34z" fill="currentColor"/>
</a>
<rect transform="translate(79.7139, 20.0584)" x="-0.0757" y="-1.8269" width="0.1514" height="3.3269" ry="0.0500" fill="currentColor"/>
<rect transform="translate(82.8191, 20.0584)" x="-0.0757" y="-2.8269" width="0.1514" height="3.3269" ry="0.0500" fill="currentColor"/>
<a style="color:inherit;" xlink:href="textedit:///Users/tatecarson/Documents/Supercollider%20/_OrgExamples/My%20Comps/Clarinet/notationGen/LY/ferry/160720.13.ly:60:3:25">
<path transform="translate(82.7434, 17.0584) scale(0.0040, -0.0040)" d="M214 140c59 0 115 -32 115 -97c0 -72 -54 -121 -101 -149c-35 -21 -74 -34 -114 -34c-59 0 -114 32 -114 97c0 72 54 121 101 149c35 21 73 34 113 34z" fill="currentColor"/>
</a>
<path transform="translate(78.5883, 18.0584) scale(0.0040, -0.0040)" d="M87 -337c-12 0 -20 9 -20 21v116l-29 -17c-4 -2 -9 -4 -13 -4c-13 0 -25 11 -25 26v54c0 9 4 16 12 21l55 33v150l-29 -17c-4 -2 -9 -4 -13 -4c-13 0 -25 10 -25 25v54c0 9 4 17 12 22l55 32v141c0 12 8 21 20 21s21 -9 21 -21v-116l29 17c4 2 9 4 13 4
c13 0 25 -11 25 -26v-54c0 -9 -4 -16 -12 -21l-55 -33v-150l29 17c4 2 9 4 13 4c13 0 25 -10 25 -25v-54c0 -9 -4 -17 -12 -22l-55 -32v-141c0 -12 -9 -21 -21 -21z" fill="currentColor"/>
<path transform="translate(79.7896, 21.5084) scale(0.0040, -0.0040)" d="M0 0h-19v250h19c96 59 223 149 223 259c0 56 -15 111 -41 161c-3 18 11 30 25 30c8 0 17 -4 22 -13c25 -56 41 -116 41 -178c0 -204 -270 -305 -270 -509z" fill="currentColor"/>
</svg>
